<svg width="32" height="32" viewBox="0 0 32 32" fill="none" xmlns="http://www.w3.org/2000/svg">
<path d="M8.31396 19.0952V28.0909C8.31396 28.6624 8.69737 29.0924 9.10944 28.9831L26.807 22.4061C27.1205 22.3237 27.3481 21.9492 27.3481 21.5139V12.5702C27.3481 11.9915 26.9557 11.5597 26.54 11.6815L8.84249 18.2048C8.53433 18.2944 8.31396 18.6652 8.31396 19.0934V19.0952Z" fill="#FFE497"/>
<path d="M8.31396 22.2682L27.3481 15.2701V18.4359L8.31396 25.434V22.2682Z" fill="#FFEEC2"/>
<path d="M18.6085 6.6759C17.4278 6.21725 16.0859 6.57557 15.2922 7.56454C12.861 10.5888 7.9412 16.7699 7.77278 17.4722C7.54883 18.4074 7.66887 19.8711 9.01616 19.7995C10.3635 19.726 13.4576 21.2919 13.4576 21.2919C13.4576 21.2919 15.9784 22.0927 17.8309 19.2907C19.6816 16.4886 27.3479 13.1884 27.3479 13.1884C27.3479 13.1884 27.6543 10.7035 26.5973 10.0101C25.8609 9.52636 21.2995 7.724 18.6085 6.6777V6.6759Z" fill="url(#paint0_linear_4283_31160)"/>
<path d="M22.7453 8.39392C22.7453 8.39392 22.4962 11.0795 20.8981 11.5633L19.2588 11.0903L22.7453 8.39392Z" fill="#FFE8CF"/>
<path d="M14.7495 5.97353C14.7495 5.97353 14.2191 4.33779 14.6007 3.63727C14.6007 3.63727 15.7528 4.36645 15.2619 5.72091C15.2619 5.72091 15.7259 3.84868 16.937 3.63727C16.937 3.63727 17.1126 5.33572 15.9624 5.80333C15.9624 5.80333 16.6396 5.31422 17.7217 5.48442C17.7217 5.48442 17.3813 6.48235 15.8961 6.07924L14.7495 5.97353Z" fill="#6EAD62"/>
<path d="M22.8331 8.10375C22.8331 8.10375 23.1126 5.77286 20.2102 5.89648C20.2102 5.89648 18.7787 4.36824 17.6356 6.21539C16.4908 8.06254 16.8186 10.3934 16.8186 10.3934L16.7756 11.1674C16.7756 11.1674 21.9677 11.4612 22.8349 8.10375H22.8331Z" fill="url(#paint1_linear_4283_31160)"/>
<path d="M14.4914 11.4468C14.4914 11.4468 12.01 7.50882 14.0274 6.16511C15.0361 5.49505 15.9856 5.71004 17.1089 6.01641C17.7611 6.19378 18.4742 6.78322 18.4186 7.78473C18.3756 8.5605 18.2126 9.26281 17.2523 10.7624C15.6058 13.3351 14.4896 11.4486 14.4896 11.4486L14.4914 11.4468Z" fill="url(#paint2_linear_4283_31160)"/>
<path d="M16.9244 6.89801H16.9226C16.8464 6.89801 16.7847 6.95977 16.7847 7.03596V7.34591C16.7847 7.4221 16.8464 7.48387 16.9226 7.48387H16.9244C17.0006 7.48387 17.0624 7.4221 17.0624 7.34591V7.03596C17.0624 6.95977 17.0006 6.89801 16.9244 6.89801Z" fill="#FFE497"/>
<path d="M16.6468 8.72723H16.645C16.5688 8.72723 16.5071 8.789 16.5071 8.86519V9.17514C16.5071 9.25133 16.5688 9.31309 16.645 9.31309H16.6468C16.723 9.31309 16.7848 9.25133 16.7848 9.17514V8.86519C16.7848 8.789 16.723 8.72723 16.6468 8.72723Z" fill="#FFE497"/>
<path d="M17.5352 8.20947C17.5352 8.12834 17.4698 8.06256 17.3892 8.06256C17.3085 8.06256 17.2432 8.12834 17.2432 8.20947V8.58034C17.2432 8.66147 17.3085 8.72725 17.3892 8.72725C17.4698 8.72725 17.5352 8.66147 17.5352 8.58034V8.20947Z" fill="#FFE497"/>
<path d="M21.9016 6.95001C21.9016 6.95001 20.0204 7.01988 19.2339 9.18774C18.4473 11.3556 17.9958 11.0815 17.9958 11.0815C17.9958 11.0815 19.748 10.4867 19.8287 9.24865C19.9093 8.01065 22.2724 7.83507 22.2724 7.83507C22.2724 7.83507 22.5501 7.20084 21.9034 6.9518L21.9016 6.95001Z" fill="#FFE8CF"/>
<path d="M21.2314 12.3355C21.2314 12.3355 22.0842 10.5099 19.6852 9.83083C19.6852 9.83083 18.9292 8.20046 17.4995 9.39905C16.0698 10.5976 15.7114 12.5863 15.7114 12.5863L15.4678 13.2062C15.4678 13.2062 19.6225 14.8384 21.2314 12.3337V12.3355Z" fill="url(#paint3_linear_4283_31160)"/>
<path d="M20.1421 6.00217C20.1421 6.00217 19.2427 6.20283 19.094 7.4265C19.0564 7.73645 18.9758 8.04461 18.8324 8.32051C18.7751 8.43159 18.7052 8.54267 18.6228 8.64121C18.6228 8.64121 19.0008 7.97473 18.6909 7.03234C18.6909 7.03234 18.5028 6.28703 19.4165 5.866C19.4165 5.866 19.7067 5.69222 20.1421 6.00217Z" fill="#FFE8CF"/>
<path d="M19.5635 9.97958C19.5635 9.97958 18.5727 9.73771 18.2556 11.1746C18.2556 11.1746 18.1428 11.601 17.9958 11.8124C17.9958 11.8124 19.2141 11.076 19.4488 10.4544L19.5635 9.97958Z" fill="url(#paint4_linear_4283_31160)"/>
<defs>
<linearGradient id="paint0_linear_4283_31160" x1="17.5371" y1="21.3976" x2="17.5371" y2="6.47883" gradientUnits="userSpaceOnUse">
<stop stop-color="#FFF4E9"/>
<stop offset="1" stop-color="#FEF1DB"/>
</linearGradient>
<linearGradient id="paint1_linear_4283_31160" x1="16.7738" y1="8.23812" x2="22.8402" y2="8.23812" gradientUnits="userSpaceOnUse">
<stop stop-color="#FFF4E9"/>
<stop offset="1" stop-color="#FEF1DB"/>
</linearGradient>
<linearGradient id="paint2_linear_4283_31160" x1="15.8297" y1="12.1133" x2="15.8297" y2="5.15643" gradientUnits="userSpaceOnUse">
<stop offset="0.68" stop-color="#FD5139"/>
<stop offset="0.72" stop-color="#FD563E"/>
<stop offset="0.77" stop-color="#FD654F"/>
<stop offset="0.82" stop-color="#FD7F6A"/>
<stop offset="0.88" stop-color="#FDA291"/>
<stop offset="0.95" stop-color="#FECEC1"/>
<stop offset="1" stop-color="#FFF8EE"/>
</linearGradient>
<linearGradient id="paint3_linear_4283_31160" x1="15.4678" y1="11.3447" x2="21.3783" y2="11.3447" gradientUnits="userSpaceOnUse">
<stop stop-color="white"/>
<stop offset="1" stop-color="#FFF4E7"/>
</linearGradient>
<linearGradient id="paint4_linear_4283_31160" x1="17.9958" y1="10.8879" x2="19.5635" y2="10.8879" gradientUnits="userSpaceOnUse">
<stop stop-color="#FFF4E9"/>
<stop offset="1" stop-color="#FEF1DB"/>
</linearGradient>
</defs>
</svg>
