<svg width="32" height="32" viewBox="0 0 32 32" fill="none" xmlns="http://www.w3.org/2000/svg">
<path d="M14.4788 13.6831H2.90593C2.23584 13.6831 1.69263 14.2263 1.69263 14.8964V15.1831C1.69263 15.8532 2.23584 16.3964 2.90593 16.3964H14.4788C15.1489 16.3964 15.6921 15.8532 15.6921 15.1831V14.8964C15.6921 14.2263 15.1489 13.6831 14.4788 13.6831Z" fill="#EB3F23"/>
<path d="M28.3526 13.6831H16.7797C16.1096 13.6831 15.5664 14.2263 15.5664 14.8964V15.1831C15.5664 15.8532 16.1096 16.3964 16.7797 16.3964H28.3526C29.0227 16.3964 29.5659 15.8532 29.5659 15.1831V14.8964C29.5659 14.2263 29.0227 13.6831 28.3526 13.6831Z" fill="#EB3F23"/>
<path d="M27.0672 16.3967H4.10371C3.46718 16.3967 2.95117 16.9127 2.95117 17.5493V19.0227C2.95117 19.6592 3.46718 20.1752 4.10371 20.1752H27.0672C27.7037 20.1752 28.2197 19.6592 28.2197 19.0227V17.5493C28.2197 16.9127 27.7037 16.3967 27.0672 16.3967Z" fill="url(#paint0_linear_4283_31157)"/>
<path d="M2.77439 12.5746C2.77439 12.5746 0.959182 12.8063 1.00095 13.8981C1.04273 14.9899 3.26996 13.3664 3.26996 13.3664C3.26996 13.3664 3.14274 14.6576 4.67693 14.593C6.21112 14.5285 6.49973 13.5848 6.49973 13.5848C6.49973 13.5848 7.68265 15.2006 9.15418 14.8645C10.6257 14.5285 9.61748 13.7424 9.61748 13.7424C9.61748 13.7424 11.0055 14.8721 12.7694 14.9101C14.5352 14.9481 14.8903 13.7424 14.8903 13.7424C14.8903 13.7424 14.4498 15.2861 15.5644 15.2861C16.6789 15.2861 16.4074 13.9304 16.4074 13.9304C16.4074 13.9304 17.8144 15.1171 19.6638 14.9082C21.5131 14.6974 22.3467 13.731 22.3467 13.731C22.3467 13.731 22.2992 15.4133 23.2733 15.2861C24.2473 15.1588 25.7189 13.9341 25.7189 13.9341C25.7189 13.9341 28.7455 16.6873 29.0816 15.2937C29.4176 13.9 28.1986 13.731 28.1986 13.731C28.1986 13.731 30.1733 14.2778 30.6366 14.1316C31.0999 13.9854 31.4398 12.9335 29.5657 12.5746H2.77439Z" fill="#6EAD62"/>
<path d="M22.3388 7.1604C21.0799 7.1604 19.916 7.53066 18.9609 8.15914C18.0059 7.53066 16.8419 7.1604 15.5831 7.1604C14.3242 7.1604 13.1603 7.53066 12.2052 8.15914C11.2501 7.53066 10.0862 7.1604 8.82731 7.1604C5.59184 7.1604 2.96777 9.60029 2.96777 12.6098H28.1964C28.1964 9.60029 25.5743 7.1604 22.3369 7.1604H22.3388Z" fill="#F9CC94"/>
<path d="M12.2077 8.15912C12.2077 8.15912 13.1628 8.84267 13.1286 10.0845C13.0944 11.3262 13.9508 11.1459 14.1406 10.8686C14.3875 10.5079 14.4995 9.66862 13.7818 8.9414C13.3546 8.50849 13.0166 8.29203 12.2058 8.15912H12.2077Z" fill="#FFE7CF"/>
<path d="M18.965 8.15912C18.965 8.15912 19.9201 8.84267 19.8859 10.0845C19.8517 11.3262 20.7081 11.1459 20.898 10.8686C21.1448 10.5079 21.2568 9.66862 20.5391 8.9414C20.1119 8.50849 19.7739 8.29203 18.9631 8.15912H18.965Z" fill="#FFE7CF"/>
<path d="M9.25935 10.3498C9.09406 10.2543 8.88272 10.311 8.78729 10.4762C8.69186 10.6415 8.74849 10.8529 8.91378 10.9483L9.4038 11.2312C9.56908 11.3266 9.78043 11.27 9.87586 11.1047C9.97128 10.9394 9.91465 10.7281 9.74937 10.6327L9.25935 10.3498Z" fill="#EFB97D"/>
<path d="M17.7542 10.3487C17.5889 10.2533 17.3776 10.3099 17.2822 10.4752C17.1867 10.6405 17.2434 10.8518 17.4086 10.9473L17.8987 11.2302C18.064 11.3256 18.2753 11.269 18.3707 11.1037C18.4662 10.9384 18.4095 10.7271 18.2442 10.6316L17.7542 10.3487Z" fill="#EFB97D"/>
<path d="M6.50194 9.60277C6.50194 9.41192 6.34722 9.2572 6.15636 9.2572C5.96551 9.2572 5.81079 9.41192 5.81079 9.60277V10.1686C5.81079 10.3595 5.96551 10.5142 6.15636 10.5142C6.34722 10.5142 6.50194 10.3595 6.50194 10.1686V9.60277Z" fill="#EFB97D"/>
<path d="M15.5837 9.33062C15.5837 9.13976 15.429 8.98505 15.2382 8.98505C15.0473 8.98505 14.8926 9.13976 14.8926 9.33062V9.89645C14.8926 10.0873 15.0473 10.242 15.2382 10.242C15.429 10.242 15.5837 10.0873 15.5837 9.89645V9.33062Z" fill="#EFB97D"/>
<path d="M25.2081 10.3487C25.0428 10.2533 24.8314 10.3099 24.736 10.4752C24.6406 10.6405 24.6972 10.8518 24.8625 10.9473L25.3525 11.2302C25.5178 11.3256 25.7292 11.269 25.8246 11.1037C25.92 10.9384 25.8634 10.7271 25.6981 10.6316L25.2081 10.3487Z" fill="#EFB97D"/>
<path d="M23.0376 9.33062C23.0376 9.13976 22.8829 8.98505 22.692 8.98505C22.5012 8.98505 22.3464 9.13976 22.3464 9.33062V9.89645C22.3464 10.0873 22.5012 10.242 22.692 10.242C22.8829 10.242 23.0376 10.0873 23.0376 9.89645V9.33062Z" fill="#EFB97D"/>
<path d="M2.96973 21.4034H28.1984C28.1984 23.2927 26.6642 24.8269 24.775 24.8269H6.39317C4.50392 24.8269 2.96973 23.2927 2.96973 21.4034Z" fill="#F9CC94"/>
<path d="M6.08308 22.674C5.91779 22.5785 5.70645 22.6352 5.61102 22.8005C5.51559 22.9657 5.57222 23.1771 5.73751 23.2725L6.22753 23.5554C6.39281 23.6509 6.60416 23.5942 6.69959 23.4289C6.79502 23.2637 6.73838 23.0523 6.5731 22.9569L6.08308 22.674Z" fill="#EFB97D"/>
<path d="M16.3375 23.3322C16.1722 23.2368 15.9608 23.2934 15.8654 23.4587C15.77 23.624 15.8266 23.8354 15.9919 23.9308L16.4819 24.2137C16.6472 24.3091 16.8586 24.2525 16.954 24.0872C17.0494 23.9219 16.9928 23.7106 16.8275 23.6151L16.3375 23.3322Z" fill="#EFB97D"/>
<path d="M10.3723 23.9347C10.3125 24.116 10.411 24.3114 10.5922 24.3711C10.7735 24.4309 10.9689 24.3324 11.0286 24.1512L11.2058 23.6138C11.2656 23.4326 11.1671 23.2372 10.9859 23.1774C10.8046 23.1176 10.6092 23.2161 10.5494 23.3974L10.3723 23.9347Z" fill="#EFB97D"/>
<path d="M14.167 22.3141C14.167 22.1233 14.0123 21.9686 13.8214 21.9686C13.6305 21.9686 13.4758 22.1233 13.4758 22.3141V22.88C13.4758 23.0708 13.6305 23.2255 13.8214 23.2255C14.0123 23.2255 14.167 23.0708 14.167 22.88V22.3141Z" fill="#EFB97D"/>
<path d="M23.7923 23.3322C23.627 23.2368 23.4157 23.2934 23.3202 23.4587C23.2248 23.624 23.2815 23.8354 23.4467 23.9308L23.9368 24.2137C24.102 24.3091 24.3134 24.2525 24.4088 24.0872C24.5042 23.9219 24.4476 23.7106 24.2823 23.6151L23.7923 23.3322Z" fill="#EFB97D"/>
<path d="M21.0886 22.9444C21.0886 22.7535 20.9339 22.5988 20.743 22.5988C20.5522 22.5988 20.3975 22.7535 20.3975 22.9444V23.5102C20.3975 23.7011 20.5522 23.8558 20.743 23.8558C20.9339 23.8558 21.0886 23.7011 21.0886 23.5102V22.9444Z" fill="#EFB97D"/>
<path d="M4.67969 16.3967L14.5133 19.2828C15.0867 19.4499 15.6943 19.4556 16.2696 19.2961L26.7033 16.3967H4.67969Z" fill="#FDB405"/>
<path d="M2.77439 20.1754C2.77439 20.1754 0.959182 20.407 1.00095 21.4988C1.04273 22.5906 3.26996 20.9671 3.26996 20.9671C3.26996 20.9671 3.14274 22.2583 4.67693 22.1937C6.21112 22.1292 6.49973 21.1855 6.49973 21.1855C6.49973 21.1855 7.68265 22.8013 9.15418 22.4652C10.6257 22.1292 9.61748 21.3431 9.61748 21.3431C9.61748 21.3431 11.0055 22.4728 12.7694 22.5108C14.5352 22.5488 14.8903 21.3431 14.8903 21.3431C14.8903 21.3431 14.4498 22.8868 15.5644 22.8868C16.6789 22.8868 16.4074 21.5311 16.4074 21.5311C16.4074 21.5311 17.8144 22.7178 19.6638 22.5089C21.5131 22.2982 22.3467 21.3317 22.3467 21.3317C22.3467 21.3317 22.2992 23.014 23.2733 22.8868C24.2473 22.7596 25.7189 21.5349 25.7189 21.5349C25.7189 21.5349 28.7455 24.288 29.0816 22.8944C29.4176 21.5007 28.1986 21.3317 28.1986 21.3317C28.1986 21.3317 30.1733 21.8785 30.6366 21.7323C31.0999 21.5861 31.4398 20.5342 29.5657 20.1754H2.77439Z" fill="#6EAD62"/>
<defs>
<linearGradient id="paint0_linear_4283_31157" x1="15.5854" y1="20.1752" x2="15.5854" y2="16.3967" gradientUnits="userSpaceOnUse">
<stop stop-color="#9B633D"/>
<stop offset="1" stop-color="#7B4E2D"/>
</linearGradient>
</defs>
</svg>
