<svg width="70" height="70" viewBox="0 0 70 70" fill="none" xmlns="http://www.w3.org/2000/svg">
<path d="M51.3915 9.87781H18.6119C16.4596 9.87781 14.7148 11.6226 14.7148 13.7749V58.9194C14.7148 61.0716 16.4596 62.8164 18.6119 62.8164H51.3915C53.5438 62.8164 55.2886 61.0716 55.2886 58.9194V13.7749C55.2886 11.6226 53.5438 9.87781 51.3915 9.87781Z" fill="url(#paint0_linear_4283_31161)"/>
<path opacity="0.4" d="M46.9193 26.4336H23.0807C21.9928 26.4336 21.1108 27.3155 21.1108 28.4034V28.4077C21.1108 29.4956 21.9928 30.3776 23.0807 30.3776H46.9193C48.0072 30.3776 48.8891 29.4956 48.8891 28.4077V28.4034C48.8891 27.3155 48.0072 26.4336 46.9193 26.4336Z" fill="#BABABA"/>
<path opacity="0.4" d="M46.919 39.6088H29.4547C28.3668 39.6088 27.4849 40.4907 27.4849 41.5786V41.5829C27.4849 42.6708 28.3668 43.5527 29.4547 43.5527H46.919C48.0069 43.5527 48.8888 42.6708 48.8888 41.5829V41.5786C48.8888 40.4907 48.0069 39.6088 46.919 39.6088Z" fill="#BABABA"/>
<path opacity="0.4" d="M46.919 45.3862H29.4547C28.3668 45.3862 27.4849 46.2682 27.4849 47.3561V47.3603C27.4849 48.4483 28.3668 49.3302 29.4547 49.3302H46.919C48.0069 49.3302 48.8888 48.4483 48.8888 47.3603V47.3561C48.8888 46.2682 48.0069 45.3862 46.919 45.3862Z" fill="#BABABA"/>
<path opacity="0.4" d="M38.3918 20.1918H23.0807C21.9928 20.1918 21.1108 21.0738 21.1108 22.1617V22.1659C21.1108 23.2539 21.9928 24.1358 23.0807 24.1358H38.3918C39.4797 24.1358 40.3616 23.2539 40.3616 22.1659V22.1617C40.3616 21.0738 39.4797 20.1918 38.3918 20.1918Z" fill="#BABABA"/>
<path d="M44.7319 8.12164H25.7753C24.8993 8.12164 24.1892 8.83177 24.1892 9.70775V13.6347C24.1892 14.5106 24.8993 15.2208 25.7753 15.2208H44.7319C45.6079 15.2208 46.318 14.5106 46.318 13.6347V9.70775C46.318 8.83177 45.6079 8.12164 44.7319 8.12164Z" fill="#FB5A39"/>
<path d="M34.9975 11.4252C36.8225 11.4252 38.3019 9.94577 38.3019 8.12081C38.3019 6.29584 36.8225 4.81641 34.9975 4.81641C33.1725 4.81641 31.6931 6.29584 31.6931 8.12081C31.6931 9.94577 33.1725 11.4252 34.9975 11.4252Z" fill="white" stroke="url(#paint1_linear_4283_31161)" stroke-width="2.55824" stroke-miterlimit="10"/>
<path opacity="0.4" d="M24.1381 39.6088H22.0275C21.5213 39.6088 21.1108 40.0192 21.1108 40.5255V42.636C21.1108 43.1423 21.5213 43.5527 22.0275 43.5527H24.1381C24.6444 43.5527 25.0548 43.1423 25.0548 42.636V40.5255C25.0548 40.0192 24.6444 39.6088 24.1381 39.6088Z" fill="#BABABA"/>
<path opacity="0.4" d="M24.1381 45.3862H22.0275C21.5213 45.3862 21.1108 45.7967 21.1108 46.3029V48.4135C21.1108 48.9198 21.5213 49.3302 22.0275 49.3302H24.1381C24.6444 49.3302 25.0548 48.9198 25.0548 48.4135V46.3029C25.0548 45.7967 24.6444 45.3862 24.1381 45.3862Z" fill="#BABABA"/>
<path opacity="0.4" d="M46.919 51.1637H29.4547C28.3668 51.1637 27.4849 52.0456 27.4849 53.1335V53.1378C27.4849 54.2257 28.3668 55.1077 29.4547 55.1077H46.919C48.0069 55.1077 48.8888 54.2257 48.8888 53.1378V53.1335C48.8888 52.0456 48.0069 51.1637 46.919 51.1637Z" fill="#BABABA"/>
<path opacity="0.4" d="M24.1381 51.1637H22.0275C21.5213 51.1637 21.1108 51.5741 21.1108 52.0804V54.191C21.1108 54.6972 21.5213 55.1077 22.0275 55.1077H24.1381C24.6444 55.1077 25.0548 54.6972 25.0548 54.191V52.0804C25.0548 51.5741 24.6444 51.1637 24.1381 51.1637Z" fill="#BABABA"/>
<defs>
<linearGradient id="paint0_linear_4283_31161" x1="48" y1="65.4999" x2="34.9975" y2="9.8778" gradientUnits="userSpaceOnUse">
<stop stop-color="#DBDCDF"/>
<stop offset="0.02" stop-color="#DCDDE0"/>
<stop offset="0.17" stop-color="#E8E9EA"/>
<stop offset="0.39" stop-color="#EFF0F0"/>
<stop offset="1" stop-color="#F1F2F2"/>
</linearGradient>
<linearGradient id="paint1_linear_4283_31161" x1="34.9975" y1="12.7043" x2="34.9975" y2="3.53728" gradientUnits="userSpaceOnUse">
<stop stop-color="#FB5A39"/>
<stop offset="0.41" stop-color="#FB5B3A"/>
<stop offset="0.56" stop-color="#FB6141"/>
<stop offset="0.67" stop-color="#FB6B4D"/>
<stop offset="0.76" stop-color="#FB7A5E"/>
<stop offset="0.84" stop-color="#FB8D75"/>
<stop offset="0.91" stop-color="#FBA490"/>
<stop offset="0.97" stop-color="#FBBFB0"/>
<stop offset="1" stop-color="#FCD1C5"/>
</linearGradient>
</defs>
</svg>
