<svg width="200" height="200" viewBox="0 0 200 200" fill="none" xmlns="http://www.w3.org/2000/svg">
<path d="M186.168 36.9589C186.168 36.9589 186.766 39.3764 186.3 40.893" stroke="#5B5B5B" stroke-width="0.669071" stroke-miterlimit="10" stroke-linecap="round"/>
<path d="M186.933 36.4059C186.933 36.4059 188.215 38.5425 188.215 40.1282" stroke="#5B5B5B" stroke-width="0.669071" stroke-miterlimit="10" stroke-linecap="round"/>
<path d="M177.894 42.1107C180.871 42.1107 183.285 41.0303 183.285 39.6976C183.285 38.3649 180.871 37.2845 177.894 37.2845C174.917 37.2845 172.504 38.3649 172.504 39.6976C172.504 41.0303 174.917 42.1107 177.894 42.1107Z" fill="#EAEAEA"/>
<path d="M183.184 37.9557C183.664 36.7121 182.373 35.0565 180.3 34.2578C178.228 33.459 176.16 33.8196 175.68 35.0631C175.201 36.3067 176.492 37.9623 178.565 38.761C180.637 39.5598 182.705 39.1992 183.184 37.9557Z" fill="#EAEAEA"/>
<path d="M113.802 168.842C151.928 168.842 182.836 162.645 182.836 155.001C182.836 147.357 151.928 141.16 113.802 141.16C75.6748 141.16 44.7668 147.357 44.7668 155.001C44.7668 162.645 75.6748 168.842 113.802 168.842Z" fill="url(#paint0_linear_4283_31158)"/>
<path d="M163.384 74.3757H67.6512C66.6989 74.3757 65.8491 73.7847 65.5168 72.8926L56.6405 49.0023C56.3082 48.1102 55.4585 47.5192 54.5061 47.5192H40.9619V54.6648H48.7343C49.3008 54.6648 49.8115 55.0128 50.0167 55.5413L81.8823 137.503C82.3083 138.598 83.3632 139.318 84.5385 139.314C95.0987 139.285 145.502 139.316 157.574 139.325C159.049 139.325 160.275 138.201 160.405 136.733L165.668 76.8736C165.788 75.5332 164.733 74.3779 163.386 74.3779L163.384 74.3757ZM76.2644 101.817L69.8636 84.5902C69.3105 83.1026 70.4122 81.5214 71.9979 81.5214H83.3342C84.4449 81.5214 85.3927 82.322 85.5778 83.4171L88.5106 100.643C88.747 102.033 87.6765 103.302 86.267 103.302H78.3965C77.4441 103.302 76.5944 102.711 76.2621 101.819L76.2644 101.817ZM91.1869 132.181H89.1284C88.176 132.181 87.3263 131.59 86.994 130.698L80.6111 113.516C80.058 112.029 81.1575 110.448 82.7454 110.448H88.2608C89.3715 110.448 90.3193 111.248 90.5044 112.343L93.4305 129.525C93.6669 130.914 92.5964 132.183 91.1869 132.183V132.181ZM95.8592 101.406L92.9265 84.1798C92.6901 82.7904 93.7606 81.5214 95.1701 81.5214H107.385C108.572 81.5214 109.56 82.4335 109.655 83.6156L111.038 100.842C111.145 102.167 110.097 103.302 108.768 103.302H98.1028C96.9922 103.302 96.0443 102.501 95.8592 101.408V101.406ZM111.085 132.181H103.021C101.91 132.181 100.962 131.381 100.777 130.288L97.8508 113.106C97.6144 111.717 98.6849 110.448 100.094 110.448H109.705C110.891 110.448 111.879 111.36 111.975 112.542L113.353 129.724C113.46 131.048 112.412 132.183 111.083 132.183L111.085 132.181ZM133.341 129.904C133.341 131.162 132.321 132.181 131.064 132.181H122.814C121.627 132.181 120.639 131.269 120.543 130.087L119.165 112.905C119.058 111.581 120.106 110.445 121.436 110.445H131.066C132.324 110.445 133.343 111.465 133.343 112.722V129.904H133.341ZM133.341 101.025C133.341 102.283 132.321 103.302 131.064 103.302H120.494C119.308 103.302 118.32 102.39 118.224 101.208L116.841 83.9813C116.734 82.6566 117.782 81.5214 119.112 81.5214H131.061C132.319 81.5214 133.338 82.5406 133.338 83.7984V101.025H133.341ZM155.264 112.928L153.703 130.109C153.596 131.282 152.612 132.179 151.435 132.179H142.763C141.505 132.179 140.486 131.16 140.486 129.902V112.72C140.486 111.462 141.505 110.443 142.763 110.443H152.996C154.334 110.443 155.384 111.592 155.264 112.925V112.928ZM157.891 84.0036L156.325 101.23C156.218 102.403 155.235 103.3 154.057 103.3H142.761C141.503 103.3 140.484 102.28 140.484 101.023V83.7962C140.484 82.5384 141.503 81.5191 142.761 81.5191H155.623C156.961 81.5191 158.011 82.6677 157.891 84.0014V84.0036Z" fill="url(#paint1_linear_4283_31158)"/>
<path d="M48.5469 54.5109V47.6708C48.5469 45.5621 46.8374 43.8526 44.7287 43.8526H15.1691C13.0604 43.8526 11.351 45.5621 11.351 47.6708V54.5109C11.351 56.6196 13.0604 58.3291 15.1691 58.3291H44.7287C46.8374 58.3291 48.5469 56.6196 48.5469 54.5109Z" fill="url(#paint2_linear_4283_31158)"/>
<path d="M91.3851 155.717C86.7016 155.717 82.8901 151.908 82.8901 147.225C82.8901 142.541 86.6994 138.73 91.3851 138.73C96.0708 138.73 99.8801 142.539 99.8801 147.225C99.8801 151.91 96.0708 155.717 91.3851 155.717Z" fill="#C1C1C1"/>
<path d="M91.3851 141.852C94.3513 141.852 96.7578 144.256 96.7578 147.224C96.7578 150.193 94.3536 152.597 91.3851 152.597C88.4167 152.597 86.0125 150.193 86.0125 147.224C86.0125 144.256 88.4167 141.852 91.3851 141.852ZM91.3851 135.607C84.9799 135.607 79.7678 140.819 79.7678 147.224C79.7678 153.63 84.9799 158.842 91.3851 158.842C97.7904 158.842 103.002 153.63 103.002 147.224C103.002 140.819 97.7904 135.607 91.3851 135.607Z" fill="#7C7C7C"/>
<path d="M146.196 155.717C141.512 155.717 137.701 151.908 137.701 147.225C137.701 142.541 141.51 138.73 146.196 138.73C150.882 138.73 154.691 142.539 154.691 147.225C154.691 151.91 150.882 155.717 146.196 155.717Z" fill="#C1C1C1"/>
<path d="M146.194 141.852C149.16 141.852 151.566 144.256 151.566 147.224C151.566 150.193 149.162 152.597 146.194 152.597C143.225 152.597 140.821 150.193 140.821 147.224C140.821 144.256 143.225 141.852 146.194 141.852ZM146.194 135.607C139.788 135.607 134.576 140.819 134.576 147.224C134.576 153.63 139.788 158.842 146.194 158.842C152.599 158.842 157.811 153.63 157.811 147.224C157.811 140.819 152.599 135.607 146.194 135.607Z" fill="#7C7C7C"/>
<path d="M183.866 35.7144L179.498 41.3781C178.673 42.4471 178.871 43.9821 179.94 44.8065L179.942 44.8078C181.011 45.6323 182.546 45.434 183.371 44.365L187.739 38.7013C188.563 37.6323 188.365 36.0974 187.296 35.273L187.294 35.2716C186.225 34.4472 184.69 34.6454 183.866 35.7144Z" fill="#C1C1C1"/>
<path d="M118.987 66.2465C118.987 66.2465 119.165 65.7915 119.551 65.0355" stroke="#C1C1C1" stroke-width="0.892095" stroke-miterlimit="10" stroke-linecap="round"/>
<path d="M120.911 62.6892C123.311 58.9803 128.14 53.3936 136.385 51.1165C140.908 49.8675 145.758 50.356 150.114 52.0844C151.151 52.497 152.177 52.9966 153.071 53.5965C156.653 56.0007 165.889 55.8134 170.035 53.3779C170.035 53.3779 171.605 52.6152 173.139 51.4354" stroke="#C1C1C1" stroke-width="0.892095" stroke-miterlimit="10" stroke-linecap="round" stroke-dasharray="2.71 2.71"/>
<path d="M174.172 50.559C174.5 50.2468 174.807 49.9167 175.075 49.5732" stroke="#C1C1C1" stroke-width="0.892095" stroke-miterlimit="10" stroke-linecap="round"/>
<path d="M187.573 32.155C187.892 32.155 188.151 31.8964 188.151 31.5774C188.151 31.2584 187.892 30.9998 187.573 30.9998C187.254 30.9998 186.996 31.2584 186.996 31.5774C186.996 31.8964 187.254 32.155 187.573 32.155Z" fill="#5B5B5B"/>
<defs>
<linearGradient id="paint0_linear_4283_31158" x1="44.7668" y1="155.001" x2="182.836" y2="155.001" gradientUnits="userSpaceOnUse">
<stop stop-color="#E9E9EB"/>
<stop offset="1" stop-color="white"/>
</linearGradient>
<linearGradient id="paint1_linear_4283_31158" x1="103.319" y1="47.5192" x2="103.319" y2="139.322" gradientUnits="userSpaceOnUse">
<stop stop-color="#C8CACE"/>
<stop offset="0.51" stop-color="#C6C8CB"/>
<stop offset="0.76" stop-color="#C0C1C4"/>
<stop offset="0.96" stop-color="#B6B6B6"/>
<stop offset="1" stop-color="#B3B3B3"/>
</linearGradient>
<linearGradient id="paint2_linear_4283_31158" x1="48.5466" y1="51.0894" x2="11.3529" y2="51.0894" gradientUnits="userSpaceOnUse">
<stop stop-color="#FB5A39"/>
<stop offset="0.41" stop-color="#FB5B3A"/>
<stop offset="0.56" stop-color="#FB6141"/>
<stop offset="0.67" stop-color="#FB6B4D"/>
<stop offset="0.76" stop-color="#FB7A5E"/>
<stop offset="0.84" stop-color="#FB8D75"/>
<stop offset="0.91" stop-color="#FBA490"/>
<stop offset="0.97" stop-color="#FBBFB0"/>
<stop offset="1" stop-color="#FCD1C5"/>
</linearGradient>
</defs>
</svg>
