<svg width="74" height="74" viewBox="0 0 74 74" fill="none" xmlns="http://www.w3.org/2000/svg">
<path d="M50.3377 4.00037C45.1588 4.00037 40.9189 8.24021 40.9189 13.4192V20.9781C40.9189 25.3423 43.9296 29.0297 47.9761 30.0839V41.9195C47.9761 43.2177 49.0396 44.2812 50.3377 44.2812C51.6359 44.2812 52.6994 43.2177 52.6994 41.9195V30.0839C56.7458 29.0251 59.7565 25.3423 59.7565 20.9781V13.4192C59.7565 8.24021 55.5167 4.00037 50.3377 4.00037Z" fill="url(#paint0_linear_4283_31162)"/>
<path d="M33.9998 16.9543V6.82199C33.9998 5.5238 32.9364 4.46039 31.6382 4.46039C30.34 4.46039 29.2766 5.5238 29.2766 6.82199V17.5436C29.2766 18.3998 28.5768 19.0996 27.7206 19.0996C26.8643 19.0996 26.1646 18.3998 26.1646 17.5436V6.82199C26.1646 5.5238 25.1012 4.46039 23.803 4.46039C22.5048 4.46039 21.4414 5.5238 21.4414 6.82199V17.5436C21.4414 18.3998 20.7417 19.0996 19.8854 19.0996C19.0291 19.0996 18.3294 18.3998 18.3294 17.5436V6.82199C18.3294 5.5238 17.266 4.46039 15.9678 4.46039C14.6696 4.46039 13.6062 5.5238 13.6062 6.82199V20.5865V23.1V23.2612H13.6246C13.8916 26.6447 17.1325 29.4253 21.4414 30.1849V41.9192C21.4414 43.2174 22.5048 44.2808 23.803 44.2808C25.1012 44.2808 26.1646 43.2174 26.1646 41.9192V30.1849C30.4735 29.4253 33.7144 26.6447 33.9814 23.2612H33.9998V16.9543Z" fill="url(#paint1_linear_4283_31162)"/>
<path d="M28.4939 70.0003H19.1073C17.5882 70.0003 16.3728 68.739 16.4281 67.2198L17.2889 43.7004C17.3396 42.2595 18.5273 41.1179 19.9682 41.1179H27.6376C29.0832 41.1179 30.2663 42.2595 30.3169 43.7004L31.1778 67.2198C31.233 68.739 30.0177 70.0003 28.4985 70.0003H28.4939Z" fill="url(#paint2_linear_4283_31162)"/>
<path d="M55.0286 70.0003H45.642C44.1228 70.0003 42.9075 68.739 42.9627 67.2198L43.8236 43.7004C43.8742 42.2595 45.062 41.1179 46.5029 41.1179H54.1723C55.6178 41.1179 56.8009 42.2595 56.8516 43.7004L57.7124 67.2198C57.7677 68.739 56.5523 70.0003 55.0332 70.0003H55.0286Z" fill="url(#paint3_linear_4283_31162)"/>
<defs>
<linearGradient id="paint0_linear_4283_31162" x1="50.3377" y1="4.00037" x2="50.3377" y2="44.2858" gradientUnits="userSpaceOnUse">
<stop stop-color="#DBDCDF"/>
<stop offset="1" stop-color="#C2C3C8"/>
</linearGradient>
<linearGradient id="paint1_linear_4283_31162" x1="23.803" y1="4.46039" x2="23.803" y2="-4.11136" gradientUnits="userSpaceOnUse">
<stop stop-color="#DBDCDF"/>
<stop offset="1" stop-color="#C2C3C8"/>
</linearGradient>
<linearGradient id="paint2_linear_4283_31162" x1="23.8029" y1="41.1133" x2="23.8029" y2="70.0003" gradientUnits="userSpaceOnUse">
<stop stop-color="#FB5A39"/>
<stop offset="0.41" stop-color="#FB5B3A"/>
<stop offset="0.56" stop-color="#FB6141"/>
<stop offset="0.67" stop-color="#FB6B4D"/>
<stop offset="0.76" stop-color="#FB7A5E"/>
<stop offset="0.84" stop-color="#FB8D75"/>
<stop offset="0.91" stop-color="#FBA490"/>
<stop offset="0.97" stop-color="#FBBFB0"/>
<stop offset="1" stop-color="#FCD1C5"/>
</linearGradient>
<linearGradient id="paint3_linear_4283_31162" x1="50.3376" y1="-4.11171" x2="50.3376" y2="-4.11171" gradientUnits="userSpaceOnUse">
<stop stop-color="#FB5A39"/>
<stop offset="0.41" stop-color="#FB5B3A"/>
<stop offset="0.56" stop-color="#FB6141"/>
<stop offset="0.67" stop-color="#FB6B4D"/>
<stop offset="0.76" stop-color="#FB7A5E"/>
<stop offset="0.84" stop-color="#FB8D75"/>
<stop offset="0.91" stop-color="#FBA490"/>
<stop offset="0.97" stop-color="#FBBFB0"/>
<stop offset="1" stop-color="#FCD1C5"/>
</linearGradient>
</defs>
</svg>
