<svg width="70" height="70" viewBox="0 0 70 70" fill="none" xmlns="http://www.w3.org/2000/svg">
<path d="M51.4971 12.15H20.5057C18.4709 12.15 16.8213 13.7996 16.8213 15.8345V58.5161C16.8213 60.5509 18.4709 62.2005 20.5057 62.2005H51.4971C53.5319 62.2005 55.1815 60.5509 55.1815 58.5161V15.8345C55.1815 13.7996 53.5319 12.15 51.4971 12.15Z" fill="url(#paint0_linear_4283_31159)"/>
<path d="M45.2005 10.4891H27.2781C26.4499 10.4891 25.7786 11.1605 25.7786 11.9887V15.7014C25.7786 16.5296 26.4499 17.201 27.2781 17.201H45.2005C46.0287 17.201 46.7001 16.5296 46.7001 15.7014V11.9887C46.7001 11.1605 46.0287 10.4891 45.2005 10.4891Z" fill="#A3A3A3"/>
<path d="M35.9972 13.6132C37.7226 13.6132 39.1213 12.2145 39.1213 10.4891C39.1213 8.76371 37.7226 7.36499 35.9972 7.36499C34.2718 7.36499 32.873 8.76371 32.873 10.4891C32.873 12.2145 34.2718 13.6132 35.9972 13.6132Z" fill="white" stroke="url(#paint1_linear_4283_31159)" stroke-width="2.41868" stroke-miterlimit="10"/>
<path opacity="0.4" d="M29.2775 35.3129H29.2735C28.245 35.3129 27.4111 36.1467 27.4111 37.1752V37.1793C27.4111 38.2078 28.245 39.0417 29.2735 39.0417H29.2775C30.3061 39.0417 31.1399 38.2078 31.1399 37.1793V37.1752C31.1399 36.1467 30.3061 35.3129 29.2775 35.3129Z" fill="#BABABA"/>
<path opacity="0.4" d="M36.0014 35.3129H35.9974C34.9688 35.3129 34.135 36.1467 34.135 37.1752V37.1793C34.135 38.2078 34.9688 39.0417 35.9974 39.0417H36.0014C37.03 39.0417 37.8638 38.2078 37.8638 37.1793V37.1752C37.8638 36.1467 37.03 35.3129 36.0014 35.3129Z" fill="#BABABA"/>
<path opacity="0.4" d="M42.7253 35.3129H42.7213C41.6927 35.3129 40.8589 36.1467 40.8589 37.1752V37.1793C40.8589 38.2078 41.6927 39.0417 42.7213 39.0417H42.7253C43.7539 39.0417 44.5877 38.2078 44.5877 37.1793V37.1752C44.5877 36.1467 43.7539 35.3129 42.7253 35.3129Z" fill="#BABABA"/>
<defs>
<linearGradient id="paint0_linear_4283_31159" x1="35.9974" y1="62.2005" x2="35.9974" y2="12.15" gradientUnits="userSpaceOnUse">
<stop stop-color="#DBDCDF"/>
<stop offset="0.02" stop-color="#DCDDE0"/>
<stop offset="0.17" stop-color="#E8E9EA"/>
<stop offset="0.39" stop-color="#EFF0F0"/>
<stop offset="1" stop-color="#F1F2F2"/>
</linearGradient>
<linearGradient id="paint1_linear_4283_31159" x1="35.9972" y1="6.15565" x2="35.9972" y2="14.8226" gradientUnits="userSpaceOnUse">
<stop stop-color="#C9C9C9"/>
<stop offset="0.12" stop-color="#BCBCBC"/>
<stop offset="0.3" stop-color="#A3A3A3"/>
</linearGradient>
</defs>
</svg>
