<svg width="120" height="120" viewBox="0 0 120 120" fill="none" xmlns="http://www.w3.org/2000/svg">
<g clip-path="url(#clip0_4321_31234)">
<path d="M67.2419 14.2695L78.9857 33.0793C80.2513 35.1057 82.2551 36.5595 84.5677 37.132L106.089 42.488C112.025 43.9644 114.361 51.1509 110.428 55.8364L96.1684 72.8157C94.6317 74.6462 93.8709 76.9965 94.0366 79.3769L95.5959 101.501C96.0253 107.603 89.9085 112.047 84.2438 109.75L63.6863 101.433C61.4716 100.537 59.0008 100.537 56.7861 101.433L36.2287 109.75C30.5564 112.047 24.4471 107.603 24.8765 101.501L26.4358 79.3769C26.6016 76.9965 25.8407 74.6386 24.304 72.8157L10.0215 55.8439C6.08932 51.1584 8.42454 43.972 14.3605 42.4955L35.8822 37.1396C38.2023 36.5595 40.1986 35.1057 41.4641 33.0868L53.208 14.2771C56.4471 9.08685 64.0027 9.08685 67.2419 14.2771V14.2695Z" fill="url(#paint0_linear_4321_31234)"/>
<path opacity="0.4" d="M45.5847 56.891H45.5771C43.6551 56.891 42.0969 58.4491 42.0969 60.3712V60.3787C42.0969 62.3008 43.6551 63.859 45.5771 63.859H45.5847C47.5068 63.859 49.0649 62.3008 49.0649 60.3787V60.3712C49.0649 58.4491 47.5068 56.891 45.5847 56.891Z" fill="#999999"/>
<path opacity="0.4" d="M60.2287 56.891H60.2212C58.2991 56.891 56.741 58.4491 56.741 60.3712V60.3787C56.741 62.3008 58.2991 63.859 60.2212 63.859H60.2287C62.1508 63.859 63.709 62.3008 63.709 60.3787V60.3712C63.709 58.4491 62.1508 56.891 60.2287 56.891Z" fill="#999999"/>
<path opacity="0.4" d="M74.8728 56.891H74.8652C72.9432 56.891 71.385 58.4491 71.385 60.3712V60.3787C71.385 62.3008 72.9432 63.859 74.8652 63.859H74.8728C76.7948 63.859 78.353 62.3008 78.353 60.3787V60.3712C78.353 58.4491 76.7948 56.891 74.8728 56.891Z" fill="#999999"/>
</g>
<defs>
<linearGradient id="paint0_linear_4321_31234" x1="8.07802" y1="60.3712" x2="112.372" y2="60.3712" gradientUnits="userSpaceOnUse">
<stop stop-color="#DBDCDF"/>
<stop offset="0.42" stop-color="#D3D4D7"/>
<stop offset="1" stop-color="#C1C3C5"/>
</linearGradient>
<clipPath id="clip0_4321_31234">
<rect width="104.294" height="100" fill="white" transform="translate(8.07812 10.375)"/>
</clipPath>
</defs>
</svg>
