<svg width="375" height="373" viewBox="0 0 375 373" fill="none" xmlns="http://www.w3.org/2000/svg">
<rect opacity="0.15" x="402" y="373" width="424" height="425" transform="rotate(-180 402 373)" fill="url(#paint0_linear_5430_59518)"/>
<g opacity="0.2">
<rect x="393" y="235" width="408" height="287" transform="rotate(-180 393 235)" fill="url(#paint1_linear_5430_59518)" fill-opacity="0.1"/>
<rect x="393" y="235" width="408" height="287" transform="rotate(-180 393 235)" fill="#EEECFA" fill-opacity="0.2"/>
</g>
<path d="M361.019 163.187H256.229L277.269 158.088C283.595 147.889 299.548 127.395 312.75 127.007C325.952 126.618 327.052 143.68 325.952 152.26C326.639 149.022 332.635 142.644 351.118 143.033C369.601 143.421 365.42 156.631 361.019 163.187Z" fill="url(#paint2_linear_5430_59518)"/>
<path d="M21.0816 130.81C5.80633 130.282 3.40189 140.05 4.10908 145H118.143C122.563 143.46 128.751 138.466 118.143 130.81C107.535 123.154 89.325 126.08 81.5459 128.5C80.1315 123 73.1657 112 56.6175 112C40.0693 112 40.1754 129.38 42.2969 138.07C41.5898 135.87 36.3569 131.338 21.0816 130.81Z" fill="url(#paint3_linear_5430_59518)"/>
<path d="M196.429 88.3758C188.891 88.1126 187.705 92.9814 188.054 95.4487H244.325C246.506 94.6811 249.56 92.1919 244.325 88.3758C239.091 84.5596 230.105 86.0181 226.266 87.2244C225.568 84.4829 222.131 79 213.965 79C205.799 79 205.851 87.663 206.898 91.9945C206.549 90.8979 203.967 88.6389 196.429 88.3758Z" fill="url(#paint4_linear_5430_59518)"/>
<path d="M337.348 172.792H238L257.948 167.958C263.945 158.289 279.069 138.859 291.585 138.491C304.102 138.122 305.145 154.298 304.102 162.433C304.754 159.363 310.438 153.316 327.961 153.684C345.484 154.053 341.52 166.576 337.348 172.792Z" fill="url(#paint5_linear_5430_59518)"/>
<path d="M108.291 237H33L48.1174 233.336C52.6626 226.009 64.1242 211.284 73.6096 211.005C83.0951 210.726 83.8855 222.985 83.0951 229.149C83.5891 226.823 87.8971 222.24 101.177 222.519C114.456 222.798 111.453 232.289 108.291 237Z" fill="url(#paint6_linear_5430_59518)"/>
<path d="M-8.63014 145.24C-23.2689 144.728 -25.5732 154.2 -24.8955 159H84.3869C88.6227 157.507 94.5527 152.664 84.3869 145.24C74.2211 137.816 56.7697 140.653 49.3148 143C47.9594 137.667 41.2838 127 25.4251 127C9.56641 127 9.66806 143.853 11.7012 152.28C11.0236 150.147 6.00866 145.752 -8.63014 145.24Z" fill="url(#paint7_linear_5430_59518)"/>
<path d="M225.237 95.8888C218.091 95.6393 216.966 100.255 217.297 102.594H270.646C272.714 101.867 275.608 99.5067 270.646 95.8888C265.683 92.2709 257.164 93.6536 253.525 94.7972C252.863 92.1981 249.604 87 241.862 87C234.12 87 234.17 95.2131 235.163 99.3196C234.832 98.28 232.384 96.1383 225.237 95.8888Z" fill="url(#paint8_linear_5430_59518)"/>
<path d="M122.936 165H10L32.6762 162.182C39.4938 156.545 56.6862 145.218 70.9144 145.004C85.1426 144.789 86.3283 154.219 85.1426 158.961C85.8837 157.171 92.3456 153.646 112.265 153.861C132.185 154.076 127.679 161.376 122.936 165Z" fill="#F6F6F7"/>
<defs>
<linearGradient id="paint0_linear_5430_59518" x1="614" y1="373" x2="614" y2="798" gradientUnits="userSpaceOnUse">
<stop stop-color="#EDF5FF"/>
<stop offset="1" stop-color="#76B3FF"/>
</linearGradient>
<linearGradient id="paint1_linear_5430_59518" x1="597" y1="242.827" x2="597" y2="373.655" gradientUnits="userSpaceOnUse">
<stop stop-opacity="0"/>
<stop offset="0.697115"/>
</linearGradient>
<linearGradient id="paint2_linear_5430_59518" x1="310.509" y1="127" x2="310.509" y2="163.187" gradientUnits="userSpaceOnUse">
<stop stop-color="white"/>
<stop offset="0.274038" stop-color="#F6F6F7"/>
</linearGradient>
<linearGradient id="paint3_linear_5430_59518" x1="64" y1="112" x2="64" y2="145" gradientUnits="userSpaceOnUse">
<stop stop-color="white"/>
<stop offset="0.197115" stop-color="#F6F6F7"/>
</linearGradient>
<linearGradient id="paint4_linear_5430_59518" x1="217.608" y1="79" x2="217.608" y2="95.4487" gradientUnits="userSpaceOnUse">
<stop stop-color="white"/>
<stop offset="0.197115" stop-color="#F6F6F7"/>
</linearGradient>
<linearGradient id="paint5_linear_5430_59518" x1="289.461" y1="138.484" x2="289.461" y2="172.792" gradientUnits="userSpaceOnUse">
<stop stop-color="white"/>
<stop offset="0.274038" stop-color="#F6F6F7"/>
</linearGradient>
<linearGradient id="paint6_linear_5430_59518" x1="72" y1="211" x2="72" y2="237" gradientUnits="userSpaceOnUse">
<stop stop-color="white"/>
<stop offset="0.274038" stop-color="#F6F6F7" stop-opacity="0"/>
</linearGradient>
<linearGradient id="paint7_linear_5430_59518" x1="32.5" y1="127" x2="32.5" y2="159" gradientUnits="userSpaceOnUse">
<stop stop-color="white"/>
<stop offset="0.197115" stop-color="#F6F6F7"/>
</linearGradient>
<linearGradient id="paint8_linear_5430_59518" x1="245.316" y1="87" x2="245.316" y2="102.594" gradientUnits="userSpaceOnUse">
<stop stop-color="white"/>
<stop offset="0.197115" stop-color="#F6F6F7"/>
</linearGradient>
</defs>
</svg>
