<svg width="200" height="200" viewBox="0 0 200 200" fill="none" xmlns="http://www.w3.org/2000/svg">
<path d="M145.999 28.5C132.19 28.5 121 34.5919 121 42.1076C121 46.3793 124.619 50.1876 130.276 52.6828L127.177 59.5L138.448 55.0805C140.832 55.4903 143.368 55.7153 146.002 55.7153C159.81 55.7153 171 49.6234 171 42.1076C171 34.5919 159.807 28.5 146.002 28.5H145.999Z" fill="url(#paint0_linear_4283_31155)"/>
<path d="M99.9997 171.86C152.631 171.86 195.297 162.405 195.297 150.741C195.297 139.078 152.631 129.622 99.9997 129.622C47.3686 129.622 4.70264 139.078 4.70264 150.741C4.70264 162.405 47.3686 171.86 99.9997 171.86Z" fill="url(#paint1_linear_4283_31155)"/>
<path d="M136.057 77.189C122.347 64.2679 103.212 59.5854 85.2712 64.5061C84.8799 62.9646 84.2537 61.4741 83.3792 60.0959C81.2115 56.6827 77.8425 54.3142 73.8951 53.4328C69.951 52.5548 65.8913 53.2593 62.4781 55.427C59.0615 57.5947 56.6964 60.9636 55.815 64.9145C54.9337 68.8619 55.6449 72.9183 57.8092 76.3315C58.551 77.4987 59.4426 78.5332 60.4397 79.4384C47.1408 93.605 42.0194 114.547 48.9921 134.07C50.115 137.211 51.5307 140.256 53.205 143.122C54.1918 144.81 55.9988 145.844 57.9521 145.844H156.836C159.871 145.844 162.335 143.384 162.335 140.348C162.335 137.313 159.875 134.853 156.836 134.853H149.404C153.484 123.939 154.325 111.753 150.544 100.622C145.528 85.853 136.061 77.189 136.061 77.189H136.057Z" fill="url(#paint2_linear_4283_31155)"/>
<path d="M104.101 110.576C106.365 110.576 108.201 108.74 108.201 106.476C108.201 104.211 106.365 102.375 104.101 102.375C101.836 102.375 100 104.211 100 106.476C100 108.74 101.836 110.576 104.101 110.576Z" fill="white"/>
<path d="M117.106 98.8487C119.371 98.8487 121.207 97.0128 121.207 94.7481C121.207 92.4834 119.371 90.6475 117.106 90.6475C114.842 90.6475 113.006 92.4834 113.006 94.7481C113.006 97.0128 114.842 98.8487 117.106 98.8487Z" fill="white"/>
<path d="M133.236 112.124C133.236 112.124 112.907 109.351 108.197 125.947" stroke="white" stroke-width="4.08358" stroke-miterlimit="10" stroke-linecap="round"/>
<path d="M136.031 77.189C133.843 75.1268 131.519 73.279 129.082 71.6422C128.228 72.6835 127.445 73.803 126.741 74.9975C119.816 86.765 123.076 101.711 133.867 109.602C132.693 109.735 131.593 110.392 130.954 111.481L125.839 120.172L125.614 120.039C123.246 118.648 120.17 119.444 118.778 121.812L104.635 145.844H126.608L135.098 131.416C136.49 129.047 135.694 125.971 133.326 124.579L133.101 124.446L138.216 115.755C138.855 114.666 138.896 113.383 138.44 112.294C143.092 114.441 148.111 115.112 152.927 114.469C152.814 109.783 152.045 105.117 150.517 100.625C145.501 85.8564 136.034 77.1924 136.034 77.1924L136.031 77.189Z" fill="url(#paint3_linear_4283_31155)"/>
<path d="M158.113 113.901C170.145 113.901 179.899 104.147 179.899 92.1151C179.899 80.0831 170.145 70.3292 158.113 70.3292C146.081 70.3292 136.327 80.0831 136.327 92.1151C136.327 104.147 146.081 113.901 158.113 113.901Z" fill="url(#paint4_linear_4283_31155)"/>
<path d="M144.026 113.294L143.467 112.911C141.702 111.703 139.292 112.155 138.084 113.92L124.32 134.029C123.112 135.794 123.563 138.204 125.328 139.412L125.887 139.794C127.652 141.002 130.062 140.551 131.27 138.786L145.034 118.677C146.242 116.912 145.79 114.502 144.026 113.294Z" fill="url(#paint5_linear_4283_31155)"/>
<path d="M139.553 127.15L132.17 122.097C129.893 120.538 126.784 121.121 125.226 123.397L103.387 155.304C101.829 157.581 102.411 160.69 104.688 162.248L112.071 167.301C114.348 168.86 117.456 168.277 119.015 166L140.854 134.094C142.412 131.817 141.829 128.708 139.553 127.15Z" fill="url(#paint6_linear_4283_31155)"/>
<path d="M157.725 94.2623C162.431 94.2623 166.246 90.4473 166.246 85.7413C166.246 81.0352 162.431 77.2202 157.725 77.2202C153.019 77.2202 149.204 81.0352 149.204 85.7413C149.204 90.4473 153.019 94.2623 157.725 94.2623Z" fill="url(#paint7_linear_4283_31155)"/>
<path d="M158.09 119.336C152.597 119.336 147.289 117.689 142.739 114.576C130.355 106.099 127.174 89.1248 135.651 76.7413C140.728 69.3228 149.133 64.8922 158.134 64.8922C163.626 64.8922 168.935 66.5392 173.485 69.6529C185.868 78.1297 189.05 95.1038 180.573 107.487C175.496 114.906 167.091 119.333 158.09 119.333V119.336ZM158.131 71.528C151.321 71.528 144.964 74.8765 141.126 80.488C134.715 89.853 137.121 102.689 146.486 109.1C149.926 111.455 153.942 112.701 158.093 112.701C164.903 112.701 171.259 109.352 175.098 103.741C178.205 99.2044 179.355 93.729 178.344 88.3251C177.334 82.9211 174.274 78.2352 169.738 75.1283C166.298 72.7735 162.282 71.528 158.131 71.528Z" fill="#C8CACE"/>
<path d="M158.137 65.7699C163.262 65.7699 168.445 67.2639 172.991 70.3776C184.997 78.5958 188.07 94.9879 179.852 106.994C174.747 114.45 166.492 118.462 158.09 118.462C152.965 118.462 147.782 116.968 143.236 113.854C131.23 105.636 128.157 89.2437 136.375 77.238C141.48 69.7821 149.735 65.7699 158.137 65.7699ZM158.093 113.578C164.936 113.578 171.664 110.312 175.823 104.237C182.516 94.4571 180.015 81.1004 170.235 74.4067C166.529 71.8715 162.309 70.6532 158.134 70.6532C151.29 70.6532 144.563 73.9201 140.404 79.9944C133.711 89.7746 136.212 103.131 145.992 109.825C149.698 112.36 153.918 113.578 158.093 113.578ZM158.137 64.0208C148.847 64.0208 140.17 68.591 134.929 76.2477C126.18 89.0293 129.46 106.548 142.245 115.297C146.941 118.509 152.42 120.211 158.09 120.211C167.38 120.211 176.057 115.641 181.298 107.984C190.047 95.1989 186.767 77.6838 173.982 68.9347C169.285 65.7223 163.807 64.0208 158.137 64.0208ZM158.093 111.826C154.118 111.826 150.276 110.635 146.979 108.379C138.012 102.24 135.708 89.9515 141.847 80.9813C145.522 75.608 151.61 72.4024 158.13 72.4024C162.105 72.4024 165.947 73.5934 169.245 75.8496C178.211 81.9886 180.515 94.2767 174.376 103.247C170.701 108.62 164.613 111.826 158.093 111.826Z" fill="#C8CACE"/>
<path d="M134.802 44.2072C136.061 44.2072 137.082 43.1864 137.082 41.9272C137.082 40.6679 136.061 39.6472 134.802 39.6472C133.543 39.6472 132.522 40.6679 132.522 41.9272C132.522 43.1864 133.543 44.2072 134.802 44.2072Z" fill="#9CA8AD"/>
<path d="M145.766 44.2072C147.025 44.2072 148.046 43.1864 148.046 41.9272C148.046 40.6679 147.025 39.6472 145.766 39.6472C144.507 39.6472 143.486 40.6679 143.486 41.9272C143.486 43.1864 144.507 44.2072 145.766 44.2072Z" fill="#9CA8AD"/>
<path d="M156.735 44.2072C157.994 44.2072 159.015 43.1864 159.015 41.9272C159.015 40.6679 157.994 39.6472 156.735 39.6472C155.475 39.6472 154.455 40.6679 154.455 41.9272C154.455 43.1864 155.475 44.2072 156.735 44.2072Z" fill="#9CA8AD"/>
<path d="M99.3976 100.632C99.3976 100.632 101.596 104.75 97.5974 109.677" stroke="white" stroke-width="2.88573" stroke-miterlimit="10" stroke-linecap="round"/>
<path d="M108.214 89.7017C108.214 89.7017 107.615 83.0557 114.823 81.7796" stroke="white" stroke-width="2.88573" stroke-miterlimit="10" stroke-linecap="round"/>
<path d="M41.8733 87.429C41.8733 87.429 32.3994 78.5881 24.3581 82.6274C17.5351 86.0542 22.5682 93.7449 28.7275 90.6686C35.1388 87.463 34.2132 84.9414 41.8733 87.4324V87.429Z" fill="#C7E5E4"/>
<path d="M35.7307 93.4558C35.7307 93.4558 13.2812 95.6201 16.9156 105.846C19.5972 113.394 27.1007 98.3527 35.7307 93.4558Z" fill="#C7E5E4"/>
<defs>
<linearGradient id="paint0_linear_4283_31155" x1="121" y1="43.9983" x2="171" y2="43.9983" gradientUnits="userSpaceOnUse">
<stop stop-color="#E9E9EB"/>
<stop offset="1" stop-color="#D0D6DB"/>
</linearGradient>
<linearGradient id="paint1_linear_4283_31155" x1="4.70604" y1="150.741" x2="195.297" y2="150.741" gradientUnits="userSpaceOnUse">
<stop stop-color="#E9E9EB"/>
<stop offset="1" stop-color="white"/>
</linearGradient>
<linearGradient id="paint2_linear_4283_31155" x1="162.328" y1="99.4547" x2="45.8715" y2="99.4547" gradientUnits="userSpaceOnUse">
<stop stop-color="#F45C33"/>
<stop offset="0.38" stop-color="#F35930"/>
<stop offset="0.65" stop-color="#F05126"/>
<stop offset="0.89" stop-color="#EB4316"/>
<stop offset="1" stop-color="#E83B0D"/>
</linearGradient>
<linearGradient id="paint3_linear_4283_31155" x1="104.628" y1="108.745" x2="152.92" y2="108.745" gradientUnits="userSpaceOnUse">
<stop/>
<stop offset="1" stop-color="#2D0805" stop-opacity="0.6"/>
</linearGradient>
<linearGradient id="paint4_linear_4283_31155" x1="170.419" y1="74.1365" x2="145.807" y2="110.095" gradientUnits="userSpaceOnUse">
<stop stop-color="#D9EAF8"/>
<stop offset="1" stop-color="#FEF8FB"/>
</linearGradient>
<linearGradient id="paint5_linear_4283_31155" x1="143.748" y1="113.103" x2="125.609" y2="139.604" gradientUnits="userSpaceOnUse">
<stop stop-color="#DBDCDF"/>
<stop offset="1" stop-color="#C2C3C8"/>
</linearGradient>
<linearGradient id="paint6_linear_4283_31155" x1="135.863" y1="124.624" x2="108.381" y2="164.776" gradientUnits="userSpaceOnUse">
<stop stop-color="#FB5A39"/>
<stop offset="0.41" stop-color="#FB5B3A"/>
<stop offset="0.56" stop-color="#FB6141"/>
<stop offset="0.67" stop-color="#FB6B4D"/>
<stop offset="0.76" stop-color="#FB7A5E"/>
<stop offset="0.84" stop-color="#FB8D75"/>
<stop offset="0.91" stop-color="#FBA490"/>
<stop offset="0.97" stop-color="#FBBFB0"/>
<stop offset="1" stop-color="#FCD1C5"/>
</linearGradient>
<linearGradient id="paint7_linear_4283_31155" x1="152.912" y1="92.773" x2="162.538" y2="78.7096" gradientUnits="userSpaceOnUse">
<stop stop-color="#E8F0FC" stop-opacity="0"/>
<stop offset="1" stop-color="#FEF8FB"/>
</linearGradient>
</defs>
</svg>
