<svg width="120" height="120" viewBox="0 0 120 120" fill="none" xmlns="http://www.w3.org/2000/svg">
<path d="M88.2801 20.8286H35.1521C31.6638 20.8286 28.8359 23.6565 28.8359 27.1448V100.313C28.8359 103.802 31.6638 106.629 35.1521 106.629H88.2801C91.7685 106.629 94.5963 103.802 94.5963 100.313V27.1448C94.5963 23.6565 91.7685 20.8286 88.2801 20.8286Z" fill="url(#paint0_linear_5305_38192)"/>
<path d="M77.4862 17.981H46.7621C45.3423 17.981 44.1914 19.1319 44.1914 20.5517V26.9162C44.1914 28.336 45.3423 29.4869 46.7621 29.4869H77.4862C78.906 29.4869 80.0569 28.336 80.0569 26.9162V20.5517C80.0569 19.1319 78.906 17.981 77.4862 17.981Z" fill="#A3A3A3"/>
<path d="M61.7092 23.3368C64.667 23.3368 67.0648 20.939 67.0648 17.9811C67.0648 15.0233 64.667 12.6255 61.7092 12.6255C58.7513 12.6255 56.3535 15.0233 56.3535 17.9811C56.3535 20.939 58.7513 23.3368 61.7092 23.3368Z" fill="white" stroke="url(#paint1_linear_5305_38192)" stroke-width="4.14631" stroke-miterlimit="10"/>
<path opacity="0.4" d="M50.1898 60.5361H50.1829C48.4196 60.5361 46.9902 61.9655 46.9902 63.7288V63.7357C46.9902 65.499 48.4196 66.9284 50.1829 66.9284H50.1898C51.9531 66.9284 53.3825 65.499 53.3825 63.7357V63.7288C53.3825 61.9655 51.9531 60.5361 50.1898 60.5361Z" fill="#BABABA"/>
<path opacity="0.4" d="M61.7171 60.5361H61.7102C59.947 60.5361 58.5176 61.9655 58.5176 63.7288V63.7357C58.5176 65.499 59.947 66.9284 61.7102 66.9284H61.7171C63.4804 66.9284 64.9098 65.499 64.9098 63.7357V63.7288C64.9098 61.9655 63.4804 60.5361 61.7171 60.5361Z" fill="#BABABA"/>
<path opacity="0.4" d="M73.2425 60.5361H73.2356C71.4724 60.5361 70.043 61.9655 70.043 63.7288V63.7357C70.043 65.499 71.4724 66.9284 73.2356 66.9284H73.2425C75.0058 66.9284 76.4352 65.499 76.4352 63.7357V63.7288C76.4352 61.9655 75.0058 60.5361 73.2425 60.5361Z" fill="#BABABA"/>
<defs>
<linearGradient id="paint0_linear_5305_38192" x1="61.7092" y1="106.629" x2="61.7092" y2="20.8286" gradientUnits="userSpaceOnUse">
<stop stop-color="#DBDCDF"/>
<stop offset="0.02" stop-color="#DCDDE0"/>
<stop offset="0.17" stop-color="#E8E9EA"/>
<stop offset="0.39" stop-color="#EFF0F0"/>
<stop offset="1" stop-color="#F1F2F2"/>
</linearGradient>
<linearGradient id="paint1_linear_5305_38192" x1="61.7092" y1="10.5523" x2="61.7092" y2="25.4099" gradientUnits="userSpaceOnUse">
<stop stop-color="#C9C9C9"/>
<stop offset="0.12" stop-color="#BCBCBC"/>
<stop offset="0.3" stop-color="#A3A3A3"/>
</linearGradient>
</defs>
</svg>
