<svg width="70" height="70" viewBox="0 0 70 70" fill="none" xmlns="http://www.w3.org/2000/svg">
<g clip-path="url(#clip0_4283_31172)">
<path d="M40.3093 9.97411L14.229 18.7156C12.5166 19.2896 11.5937 21.1431 12.1677 22.8555L24.2066 58.7735C24.7806 60.4859 26.634 61.4088 28.3464 60.8349L54.4267 52.0933C56.1391 51.5194 57.062 49.6659 56.488 47.9535L44.4491 12.0355C43.8752 10.323 42.0217 9.40015 40.3093 9.97411Z" fill="url(#paint0_linear_4283_31172)"/>
<path opacity="0.4" d="M42.068 27.0268L23.1014 33.384C22.2359 33.6741 21.7694 34.611 22.0595 35.4766L22.0606 35.48C22.3507 36.3455 23.2876 36.812 24.1532 36.5219L43.1197 30.1647C43.9853 29.8746 44.4518 28.9377 44.1617 28.0722L44.1605 28.0688C43.8704 27.2032 42.9336 26.7367 42.068 27.0268Z" fill="#BABABA"/>
<path opacity="0.4" d="M33.2753 23.3151L21.0934 27.3982C20.2278 27.6883 19.7613 28.6251 20.0514 29.4907L20.0526 29.4941C20.3427 30.3597 21.2796 30.8262 22.1451 30.5361L34.327 26.453C35.1926 26.1628 35.6591 25.226 35.369 24.3604L35.3678 24.357C35.0777 23.4914 34.1408 23.0249 33.2753 23.3151Z" fill="#BABABA"/>
<path d="M34.545 10.3484L19.4626 15.4037C18.7657 15.6373 18.3901 16.3917 18.6237 17.0886L19.6709 20.2129C19.9045 20.9099 20.6588 21.2855 21.3558 21.0519L36.4381 15.9967C37.1351 15.7631 37.5107 15.0087 37.2771 14.3117L36.2299 11.1874C35.9963 10.4904 35.2419 10.1148 34.545 10.3484Z" fill="#FB5A39"/>
<path d="M26.8021 15.7155C28.3335 15.7155 29.5749 14.4741 29.5749 12.9427C29.5749 11.4114 28.3335 10.1699 26.8021 10.1699C25.2707 10.1699 24.0293 11.4114 24.0293 12.9427C24.0293 14.4741 25.2707 15.7155 26.8021 15.7155Z" fill="white" stroke="url(#paint1_linear_4283_31172)" stroke-width="2.14669" stroke-miterlimit="10"/>
<path d="M57.5031 13.4293L47.0201 26.932C46.8019 27.2111 46.5085 27.4222 46.1722 27.5331L42.326 28.8247C41.9182 28.9606 41.5067 28.6386 41.5353 28.2129L41.8359 24.1664C41.8609 23.8122 41.9933 23.4758 42.208 23.1968L52.6946 9.69767C53.3028 8.91413 54.4334 8.77102 55.2205 9.37925L57.1883 10.907C57.9718 11.5152 58.115 12.6458 57.5067 13.4329L57.5031 13.4293Z" fill="#F45C33"/>
<path d="M52.6949 9.69776L50.9775 11.9089L55.7861 15.6405L57.5035 13.4294C58.1117 12.6459 57.9722 11.5153 57.1851 10.9035L55.2173 9.37576C54.4337 8.76753 53.3031 8.90707 52.6913 9.69419L52.6949 9.69776Z" fill="url(#paint2_linear_4283_31172)"/>
</g>
<defs>
<linearGradient id="paint0_linear_4283_31172" x1="41.3866" y1="56.4641" x2="27.2691" y2="14.3449" gradientUnits="userSpaceOnUse">
<stop stop-color="#DBDCDF"/>
<stop offset="0.02" stop-color="#DCDDE0"/>
<stop offset="0.17" stop-color="#E8E9EA"/>
<stop offset="0.39" stop-color="#EFF0F0"/>
<stop offset="1" stop-color="#F1F2F2"/>
</linearGradient>
<linearGradient id="paint1_linear_4283_31172" x1="28.0255" y1="16.5922" x2="25.5809" y2="9.29871" gradientUnits="userSpaceOnUse">
<stop stop-color="#FB5A39"/>
<stop offset="0.41" stop-color="#FB5B3A"/>
<stop offset="0.56" stop-color="#FB6141"/>
<stop offset="0.67" stop-color="#FB6B4D"/>
<stop offset="0.76" stop-color="#FB7A5E"/>
<stop offset="0.84" stop-color="#FB8D75"/>
<stop offset="0.91" stop-color="#FBA490"/>
<stop offset="0.97" stop-color="#FBBFB0"/>
<stop offset="1" stop-color="#FCD1C5"/>
</linearGradient>
<linearGradient id="paint2_linear_4283_31172" x1="51.1915" y1="13.0201" x2="57.8059" y2="11.7595" gradientUnits="userSpaceOnUse">
<stop stop-color="#D63D1A"/>
<stop offset="1" stop-color="#F45C33"/>
</linearGradient>
<clipPath id="clip0_4283_31172">
<rect width="45.8819" height="52" fill="white" transform="translate(12.0002 9.00006)"/>
</clipPath>
</defs>
</svg>
