<svg width="14" height="14" viewBox="0 0 14 14" fill="none" xmlns="http://www.w3.org/2000/svg">
<path d="M4.43315 4.23073C4.43315 2.8132 5.58228 1.66406 6.9998 1.66406C8.41733 1.66406 9.56646 2.8132 9.56646 4.23073C9.56646 5.64826 8.41733 6.7974 6.9998 6.7974C5.58228 6.7974 4.43315 5.64826 4.43315 4.23073Z" fill="#C2C3C8"/>
<path d="M6.99976 7.93262C5.65113 7.93262 4.39262 8.19661 3.45097 8.70385C2.50998 9.21072 1.80811 10.0129 1.80811 11.0826L1.80811 11.2738C1.80809 11.3827 1.80807 11.4935 1.81581 11.5883C1.82443 11.6937 1.84518 11.8245 1.91302 11.9576C2.00531 12.1388 2.15256 12.286 2.33368 12.3783C2.46682 12.4461 2.59764 12.4669 2.70306 12.4755C2.79782 12.4832 2.90867 12.4832 3.01755 12.4831L10.9821 12.4827C11.091 12.4827 11.2018 12.4827 11.2966 12.475C11.402 12.4663 11.5328 12.4456 11.6659 12.3777C11.847 12.2855 11.9942 12.1382 12.0865 11.9571C12.1543 11.824 12.1751 11.6932 12.1837 11.5878C12.1914 11.493 12.1914 11.3822 12.1914 11.2733L12.1914 11.0826C12.1914 10.0129 11.4895 9.21072 10.5485 8.70385C9.60689 8.19661 8.34838 7.93262 6.99976 7.93262Z" fill="#C2C3C8"/>
</svg>
