<svg width="14" height="14" viewBox="0 0 14 14" fill="none" xmlns="http://www.w3.org/2000/svg">
<path fill-rule="evenodd" clip-rule="evenodd" d="M5.14098 0.957031C5.14098 0.685204 4.92062 0.464844 4.64879 0.464844C4.37697 0.464844 4.15661 0.685204 4.15661 0.957031V1.55847H3.7819C3.49214 1.55847 3.24539 1.55846 3.04281 1.57501C2.82999 1.5924 2.62295 1.63048 2.42502 1.73133C2.12661 1.88338 1.88399 2.126 1.73194 2.42441C1.63109 2.62234 1.59301 2.82939 1.57562 3.04221C1.55907 3.24478 1.55908 3.4915 1.55908 3.78126V9.34346C1.55908 9.63321 1.55907 9.87998 1.57562 10.0826C1.59301 10.2954 1.63109 10.5024 1.73194 10.7003C1.88399 10.9988 2.12661 11.2414 2.42502 11.3934C2.62295 11.4943 2.82999 11.5324 3.04281 11.5498C3.24538 11.5663 3.4921 11.5663 3.78185 11.5663H9.34404C9.63379 11.5663 9.88056 11.5663 10.0831 11.5498C10.2959 11.5324 10.503 11.4943 10.7009 11.3934C10.9993 11.2414 11.242 10.9988 11.394 10.7003C11.4949 10.5024 11.5329 10.2954 11.5503 10.0826C11.5669 9.87998 11.5669 9.63326 11.5669 9.34351V3.7813C11.5669 3.49155 11.5669 3.24478 11.5503 3.04221C11.5329 2.82939 11.4949 2.62234 11.394 2.42441C11.242 2.126 10.9993 1.88338 10.7009 1.73133C10.503 1.63048 10.2959 1.5924 10.0831 1.57501C9.88055 1.55846 9.63382 1.55847 9.34406 1.55847H8.96909V0.957045C8.96909 0.685217 8.74873 0.464857 8.4769 0.464857C8.20508 0.464857 7.98472 0.685217 7.98472 0.957045V1.55847H5.14098V0.957031ZM7.98472 3.14454V2.54285H5.14098V3.14453C5.14098 3.41636 4.92062 3.63672 4.64879 3.63672C4.37697 3.63672 4.15661 3.41636 4.15661 3.14453V2.54285H3.58252C3.13706 2.54285 3.03106 2.54892 2.95913 2.57229C2.776 2.63179 2.63241 2.77538 2.57291 2.95852C2.54954 3.03044 2.54347 3.13645 2.54347 3.58191V4.70299H10.5825V3.58191C10.5825 3.13645 10.5764 3.03044 10.5531 2.95852C10.4936 2.77538 10.35 2.63179 10.1668 2.57229C10.0949 2.54892 9.9889 2.54285 9.54344 2.54285H8.96909V3.14454C8.96909 3.41637 8.74873 3.63673 8.4769 3.63673C8.20508 3.63673 7.98472 3.41637 7.98472 3.14454ZM10.5825 5.68737H2.54347V9.54285C2.54347 9.98831 2.54954 10.0943 2.57291 10.1662C2.63241 10.3494 2.776 10.493 2.95913 10.5525C3.03106 10.5758 3.13706 10.5819 3.58252 10.5819H9.54344C9.9889 10.5819 10.0949 10.5758 10.1668 10.5525C10.35 10.493 10.4936 10.3494 10.5531 10.1662C10.5764 10.0943 10.5825 9.98831 10.5825 9.54285V5.68737Z" fill="#C2C3C8"/>
<path d="M10.5825 5.68737H2.54347V9.54285C2.54347 9.98831 2.54954 10.0943 2.57291 10.1662C2.63241 10.3494 2.776 10.493 2.95913 10.5525C3.03106 10.5758 3.13706 10.5819 3.58252 10.5819H9.54344C9.9889 10.5819 10.0949 10.5758 10.1668 10.5525C10.35 10.493 10.4936 10.3494 10.5531 10.1662C10.5764 10.0943 10.5825 9.98831 10.5825 9.54285V5.68737Z" fill="#C2C3C8"/>
</svg>
