<svg width="14" height="14" viewBox="0 0 14 14" fill="none" xmlns="http://www.w3.org/2000/svg">
<path d="M6.9987 1.13867C4.4542 1.13867 2.33203 2.04809 2.33203 3.47201C2.33203 4.89592 4.4542 5.80534 6.9987 5.80534C9.5432 5.80534 11.6654 4.89592 11.6654 3.47201C11.6654 2.04809 9.5432 1.13867 6.9987 1.13867ZM2.33203 5.58659V6.97201C2.33203 8.39592 4.4542 9.30534 6.9987 9.30534C9.5432 9.30534 11.6654 8.39592 11.6654 6.97201V5.58659C10.6072 6.45576 8.95753 6.97201 6.9987 6.97201C5.03986 6.97201 3.3902 6.45576 2.33203 5.58659ZM2.33203 9.08659V10.472C2.33203 11.8959 4.4542 12.8053 6.9987 12.8053C9.5432 12.8053 11.6654 11.8959 11.6654 10.472V9.08659C10.6072 9.95576 8.95753 10.472 6.9987 10.472C5.03986 10.472 3.3902 9.95576 2.33203 9.08659Z" fill="#C2C3C8"/>
</svg>
