<svg width="32" height="32" viewBox="0 0 32 32" fill="none" xmlns="http://www.w3.org/2000/svg">
<path d="M15.6246 8.70583C16.513 8.70583 17.2331 7.98568 17.2331 7.09733C17.2331 6.20898 16.513 5.48883 15.6246 5.48883C14.7363 5.48883 14.0161 6.20898 14.0161 7.09733C14.0161 7.98568 14.7363 8.70583 15.6246 8.70583Z" fill="url(#paint0_linear_4283_31152)"/>
<path d="M29.0709 24.6607H2.1806C2.01936 24.6607 1.86598 24.5918 1.76176 24.4719L0.760875 23.3373C0.450187 22.9853 0.705816 22.4387 1.17971 22.4387H30.0698C30.5437 22.4387 30.7993 22.9853 30.4886 23.3373L29.4877 24.4719C29.3816 24.5918 29.2302 24.6607 29.0689 24.6607H29.0709Z" fill="#DBDCDF"/>
<path d="M15.6248 8.70538C8.03853 8.70538 1.88965 14.8543 1.88965 22.4406H29.358C29.358 14.8543 23.2092 8.70538 15.6229 8.70538H15.6248Z" fill="url(#paint1_linear_4283_31152)"/>
<defs>
<linearGradient id="paint0_linear_4283_31152" x1="15.6246" y1="6.92036" x2="15.6246" y2="8.88281" gradientUnits="userSpaceOnUse">
<stop stop-color="#DBDCDF"/>
<stop offset="0.32" stop-color="#E0E1E4"/>
<stop offset="0.75" stop-color="#F1F2F3"/>
<stop offset="1" stop-color="white"/>
</linearGradient>
<linearGradient id="paint1_linear_4283_31152" x1="15.6248" y1="14.8208" x2="15.6248" y2="23.1976" gradientUnits="userSpaceOnUse">
<stop stop-color="#DBDCDF"/>
<stop offset="0.32" stop-color="#E0E1E4"/>
<stop offset="0.75" stop-color="#F1F2F3"/>
<stop offset="1" stop-color="white"/>
</linearGradient>
</defs>
</svg>
