<svg width="375" height="812" viewBox="0 0 375 812" fill="none" xmlns="http://www.w3.org/2000/svg">
<g clip-path="url(#clip0_5430_59517)">
<rect width="375" height="812" fill="white"/>
<rect opacity="0.15" x="402" y="373" width="424" height="425" transform="rotate(-180 402 373)" fill="url(#paint0_linear_5430_59517)"/>
<g opacity="0.2">
<rect x="393" y="235" width="408" height="287" transform="rotate(-180 393 235)" fill="url(#paint1_linear_5430_59517)" fill-opacity="0.1"/>
<rect x="393" y="235" width="408" height="287" transform="rotate(-180 393 235)" fill="#EEECFA" fill-opacity="0.2"/>
</g>
<path d="M361.019 163.187H256.229L277.269 158.088C283.595 147.889 299.548 127.395 312.75 127.007C325.952 126.618 327.052 143.68 325.952 152.26C326.639 149.022 332.635 142.644 351.118 143.033C369.601 143.421 365.42 156.631 361.019 163.187Z" fill="url(#paint2_linear_5430_59517)"/>
<path d="M21.0816 130.81C5.80633 130.282 3.40189 140.05 4.10908 145H118.143C122.563 143.46 128.751 138.466 118.143 130.81C107.535 123.154 89.325 126.08 81.5459 128.5C80.1315 123 73.1657 112 56.6175 112C40.0693 112 40.1754 129.38 42.2969 138.07C41.5898 135.87 36.3569 131.338 21.0816 130.81Z" fill="url(#paint3_linear_5430_59517)"/>
<path d="M196.429 88.3758C188.891 88.1126 187.705 92.9814 188.054 95.4487H244.325C246.506 94.6811 249.56 92.1919 244.325 88.3758C239.091 84.5596 230.105 86.0181 226.266 87.2244C225.568 84.4829 222.131 79 213.965 79C205.799 79 205.851 87.663 206.898 91.9945C206.549 90.8979 203.967 88.6389 196.429 88.3758Z" fill="url(#paint4_linear_5430_59517)"/>
<path d="M337.348 172.792H238L257.948 167.958C263.945 158.289 279.069 138.859 291.585 138.491C304.102 138.122 305.145 154.298 304.102 162.433C304.754 159.363 310.438 153.316 327.961 153.684C345.484 154.053 341.52 166.576 337.348 172.792Z" fill="url(#paint5_linear_5430_59517)"/>
<path d="M108.291 237H33L48.1174 233.336C52.6626 226.009 64.1242 211.284 73.6096 211.005C83.0951 210.726 83.8855 222.985 83.0951 229.149C83.5891 226.823 87.8971 222.24 101.177 222.519C114.456 222.798 111.453 232.289 108.291 237Z" fill="url(#paint6_linear_5430_59517)"/>
<path d="M-8.63014 145.24C-23.2689 144.728 -25.5732 154.2 -24.8955 159H84.3869C88.6227 157.507 94.5527 152.664 84.3869 145.24C74.2211 137.816 56.7697 140.653 49.3148 143C47.9594 137.667 41.2838 127 25.4251 127C9.56641 127 9.66806 143.853 11.7012 152.28C11.0236 150.147 6.00866 145.752 -8.63014 145.24Z" fill="url(#paint7_linear_5430_59517)"/>
<path d="M225.237 95.8888C218.091 95.6393 216.966 100.255 217.297 102.594H270.646C272.714 101.867 275.608 99.5067 270.646 95.8888C265.683 92.2709 257.164 93.6536 253.525 94.7972C252.863 92.1981 249.604 87 241.862 87C234.12 87 234.17 95.2131 235.163 99.3196C234.832 98.28 232.384 96.1383 225.237 95.8888Z" fill="url(#paint8_linear_5430_59517)"/>
<path d="M122.936 165H10L32.6762 162.182C39.4938 156.545 56.6862 145.218 70.9144 145.004C85.1426 144.789 86.3283 154.219 85.1426 158.961C85.8837 157.171 92.3456 153.646 112.265 153.861C132.185 154.076 127.679 161.376 122.936 165Z" fill="#F6F6F7"/>
<g clip-path="url(#clip1_5430_59517)">
<g filter="url(#filter0_d_5430_59517)">
<path d="M124.267 343.804C123.582 342.494 122.644 341.506 121.431 340.841C120.218 340.176 118.819 339.843 117.235 339.843C115.494 339.843 113.949 340.234 112.59 341.017C111.23 341.799 110.164 342.904 109.391 344.342C108.619 345.78 108.237 347.442 108.237 349.33C108.237 351.218 108.619 352.89 109.391 354.338C110.164 355.785 111.22 356.9 112.59 357.682C113.949 358.465 115.494 358.856 117.235 358.856C119.582 358.856 121.48 358.201 122.937 356.89C124.394 355.58 125.294 353.8 125.617 351.56H115.749V348.117H130.223V351.482C129.94 353.526 129.216 355.404 128.052 357.115C126.878 358.827 125.353 360.196 123.475 361.213C121.597 362.23 119.514 362.739 117.225 362.739C114.751 362.739 112.501 362.162 110.457 361.017C108.413 359.873 106.8 358.279 105.597 356.235C104.403 354.191 103.797 351.892 103.797 349.32C103.797 346.748 104.394 344.45 105.597 342.406C106.79 340.362 108.413 338.767 110.477 337.623C112.531 336.479 114.78 335.902 117.225 335.902C120.022 335.902 122.507 336.586 124.688 337.965C126.869 339.335 128.453 341.281 129.431 343.804H124.257H124.267Z" fill="#F45C33"/>
</g>
<g filter="url(#filter1_d_5430_59517)">
<path d="M140.888 342.228C141.934 341.641 143.176 341.338 144.614 341.338V345.798H143.518C141.826 345.798 140.555 346.228 139.685 347.079C138.814 347.94 138.384 349.426 138.384 351.539V362.502H134.081V341.68H138.384V344.702C139.01 343.646 139.851 342.815 140.897 342.228H140.888Z" fill="#F45C33"/>
</g>
<g filter="url(#filter2_d_5430_59517)">
<path d="M150.865 361.444C149.28 360.554 148.028 359.292 147.119 357.669C146.209 356.045 145.759 354.158 145.759 352.016C145.759 349.874 146.229 348.026 147.158 346.383C148.087 344.749 149.358 343.488 150.972 342.607C152.586 341.727 154.385 341.287 156.381 341.287C158.376 341.287 160.175 341.727 161.789 342.607C163.403 343.488 164.674 344.749 165.603 346.383C166.532 348.016 167.002 349.894 167.002 352.016C167.002 354.138 166.523 356.006 165.564 357.649C164.606 359.283 163.305 360.554 161.652 361.444C159.999 362.334 158.18 362.784 156.195 362.784C154.209 362.784 152.449 362.334 150.865 361.444ZM159.305 358.246C160.273 357.718 161.065 356.926 161.672 355.869C162.278 354.813 162.581 353.522 162.581 352.016C162.581 350.51 162.288 349.229 161.711 348.182C161.134 347.136 160.361 346.353 159.403 345.815C158.444 345.287 157.407 345.023 156.302 345.023C155.197 345.023 154.17 345.287 153.222 345.815C152.273 346.343 151.53 347.136 150.972 348.182C150.415 349.229 150.141 350.51 150.141 352.016C150.141 354.256 150.718 355.987 151.862 357.209C153.006 358.432 154.454 359.038 156.185 359.038C157.29 359.038 158.337 358.774 159.305 358.246Z" fill="#F45C33"/>
</g>
<g filter="url(#filter3_d_5430_59517)">
<path d="M189.129 341.614V362.436H184.816V359.981C184.132 360.842 183.252 361.507 182.156 362.005C181.061 362.494 179.897 362.739 178.665 362.739C177.031 362.739 175.564 362.397 174.264 361.722C172.963 361.037 171.946 360.03 171.202 358.7C170.459 357.36 170.087 355.756 170.087 353.859V341.614H174.361V353.213C174.361 355.081 174.831 356.509 175.76 357.507C176.689 358.504 177.96 359.003 179.574 359.003C181.188 359.003 182.469 358.504 183.408 357.507C184.357 356.509 184.826 355.081 184.826 353.213V341.614H189.139H189.129Z" fill="#F45C33"/>
</g>
<g filter="url(#filter4_d_5430_59517)">
<path d="M200.883 342.265C202.145 341.61 203.563 341.287 205.157 341.287C206.967 341.287 208.629 341.737 210.126 342.627C211.622 343.517 212.805 344.779 213.656 346.383C214.517 347.996 214.938 349.845 214.938 351.938C214.938 354.031 214.507 355.899 213.656 357.552C212.796 359.204 211.622 360.486 210.126 361.405C208.629 362.324 206.967 362.784 205.157 362.784C203.573 362.784 202.155 362.461 200.923 361.816C199.69 361.17 198.683 360.378 197.9 359.42V372.339H193.597V341.62H197.9V344.681C198.634 343.722 199.622 342.92 200.883 342.265ZM209.676 348.211C209.079 347.165 208.307 346.373 207.329 345.835C206.36 345.297 205.324 345.023 204.209 345.023C203.094 345.023 202.096 345.297 201.128 345.854C200.16 346.412 199.377 347.214 198.781 348.27C198.184 349.326 197.891 350.578 197.891 352.016C197.891 353.454 198.184 354.706 198.781 355.772C199.377 356.847 200.15 357.659 201.128 358.207C202.096 358.764 203.123 359.038 204.209 359.038C205.294 359.038 206.36 358.755 207.329 358.187C208.297 357.62 209.079 356.798 209.676 355.713C210.272 354.627 210.566 353.366 210.566 351.938C210.566 350.51 210.272 349.258 209.676 348.211Z" fill="#F45C33"/>
</g>
<g filter="url(#filter5_d_5430_59517)">
<path d="M238.298 353.701H222.386C222.513 355.363 223.129 356.703 224.235 357.71C225.34 358.718 226.699 359.226 228.313 359.226C230.631 359.226 232.264 358.258 233.223 356.312H237.868C237.242 358.229 236.098 359.794 234.445 361.016C232.792 362.239 230.748 362.845 228.303 362.845C226.308 362.845 224.528 362.395 222.953 361.505C221.379 360.615 220.146 359.353 219.247 357.73C218.347 356.106 217.907 354.219 217.907 352.077C217.907 349.935 218.337 348.048 219.207 346.424C220.078 344.801 221.3 343.549 222.875 342.668C224.45 341.788 226.259 341.348 228.293 341.348C230.328 341.348 232.01 341.778 233.545 342.629C235.081 343.49 236.274 344.693 237.135 346.238C237.995 347.784 238.416 349.573 238.416 351.588C238.416 352.37 238.367 353.075 238.269 353.701H238.298ZM233.956 350.219C233.927 348.634 233.359 347.363 232.254 346.405C231.149 345.446 229.77 344.967 228.137 344.967C226.65 344.967 225.379 345.436 224.323 346.385C223.266 347.334 222.631 348.605 222.435 350.219H233.966H233.956Z" fill="#F45C33"/>
</g>
<g filter="url(#filter6_d_5430_59517)">
<path d="M242.603 346.444C243.473 344.83 244.656 343.578 246.153 342.688C247.649 341.798 249.312 341.348 251.121 341.348C252.754 341.348 254.192 341.671 255.415 342.316C256.637 342.962 257.615 343.754 258.349 344.713V341.69H262.691V362.512H258.349V359.412C257.615 360.39 256.627 361.212 255.366 361.867C254.104 362.522 252.666 362.845 251.053 362.845C249.263 362.845 247.63 362.385 246.143 361.466C244.656 360.547 243.483 359.265 242.612 357.613C241.742 355.96 241.312 354.092 241.312 351.999C241.312 349.906 241.742 348.057 242.612 346.444H242.603ZM257.459 348.331C256.862 347.275 256.089 346.463 255.131 345.915C254.172 345.358 253.136 345.084 252.031 345.084C250.925 345.084 249.889 345.358 248.93 345.896C247.972 346.434 247.199 347.236 246.603 348.273C246.006 349.319 245.713 350.561 245.713 351.999C245.713 353.436 246.006 354.698 246.603 355.774C247.199 356.86 247.972 357.681 248.95 358.248C249.918 358.816 250.945 359.099 252.031 359.099C253.116 359.099 254.172 358.825 255.131 358.268C256.089 357.71 256.862 356.899 257.459 355.833C258.045 354.767 258.349 353.505 258.349 352.077C258.349 350.649 258.055 349.397 257.459 348.331Z" fill="#F45C33"/>
</g>
<g filter="url(#filter7_d_5430_59517)">
<path d="M272.733 345.202V356.733C272.733 357.515 272.919 358.073 273.281 358.415C273.643 358.757 274.269 358.924 275.149 358.924H277.799V362.513H274.396C272.459 362.513 270.973 362.063 269.936 361.153C268.899 360.244 268.391 358.777 268.391 356.733V345.202H265.936V341.691H268.391V336.507H272.733V341.681H277.799V345.192H272.733V345.202Z" fill="#F45C33"/>
</g>
</g>
<path d="M117.541 558.061H105.471V578.007H117.541V558.061Z" fill="url(#paint9_linear_5430_59517)"/>
<path d="M111.205 566.415C126.23 566.415 138.41 554.235 138.41 539.212C138.41 524.188 126.23 512.008 111.205 512.008C96.1804 512.008 84.0005 524.188 84.0005 539.212C84.0005 554.235 96.1804 566.415 111.205 566.415Z" fill="url(#paint10_linear_5430_59517)"/>
<path d="M126.096 547.592H124.152C125.215 544.743 125.341 541.592 124.448 538.649C124.31 538.19 123.951 537.832 123.492 537.693C123.033 537.555 122.536 537.649 122.165 537.951C120.385 539.391 114.631 543.146 111.65 541.542C110.952 541.165 110.084 541.429 109.707 542.127C109.329 542.825 109.593 543.699 110.291 544.07C112.6 545.309 115.65 544.995 119.36 543.127C120.404 542.599 121.354 542.026 122.115 541.523C122.329 543.592 121.958 545.705 121.033 547.586H101.128C100.94 547.208 100.776 546.812 100.632 546.416C98.5751 540.655 101.588 534.291 107.348 532.235C111.298 530.826 115.643 531.738 118.7 534.612C119.278 535.153 120.184 535.128 120.731 534.549C121.272 533.971 121.247 533.065 120.668 532.518C117.09 529.141 112.09 527.921 107.405 529.204C107.304 528.801 107.141 528.411 106.908 528.053C106.342 527.16 105.462 526.544 104.43 526.311C103.399 526.084 102.342 526.267 101.449 526.833C100.556 527.399 99.9398 528.279 99.7071 529.311C99.4744 530.342 99.6631 531.398 100.229 532.291C100.424 532.6 100.657 532.87 100.915 533.103C97.4431 536.8 96.1035 542.272 97.9273 547.372C98.2229 548.189 98.5877 548.988 99.0279 549.736C99.2857 550.176 99.7574 550.447 100.267 550.447H126.096C126.888 550.447 127.53 549.805 127.53 549.013C127.53 548.221 126.888 547.579 126.096 547.579V547.592ZM102.512 529.952C102.575 529.669 102.745 529.43 102.99 529.273C103.235 529.116 103.525 529.065 103.808 529.128C104.348 529.248 104.701 529.757 104.644 530.298C104.128 530.568 103.631 530.864 103.16 531.185C102.682 530.99 102.393 530.468 102.512 529.946V529.952Z" fill="white"/>
<path d="M111.204 514.923C125.741 514.923 137.613 526.318 138.373 540.669C138.402 540.186 138.416 539.696 138.416 539.205C138.416 524.178 126.239 512.002 111.211 512.002C96.1838 512.002 84.0068 524.178 84.0068 539.205C84.0068 539.696 84.0211 540.186 84.0495 540.669C84.8101 526.325 96.6814 514.923 111.211 514.923H111.204Z" fill="url(#paint11_linear_5430_59517)"/>
<path d="M282.274 613.905H84.7743C77.4733 613.905 71.5547 620.015 71.5547 627.552V786.272C71.5547 793.809 77.4733 799.919 84.7743 799.919H282.274C289.575 799.919 295.493 793.809 295.493 786.272V627.552C295.493 620.015 289.575 613.905 282.274 613.905Z" fill="url(#paint12_linear_5430_59517)"/>
<g filter="url(#filter8_i_5430_59517)">
<path d="M133.51 704C152.007 704 167 714.468 167 727.351V785H100V727.351C100 714.454 115.014 704 133.49 704H133.51Z" fill="url(#paint13_linear_5430_59517)"/>
</g>
<g filter="url(#filter9_f_5430_59517)">
<path d="M35 756L35 641L101 641L73.625 756L35 756Z" fill="url(#paint14_linear_5430_59517)" fill-opacity="0.5"/>
</g>
<path d="M325.888 645.737L292.73 587.719H183.52C183.52 587.719 183.52 587.759 183.52 587.819H74.3167L41.1593 645.837C38.7391 650.074 38.3226 655.119 40.3047 659.549C43.9745 667.75 52.5708 673.502 62.5892 673.502C75.9469 673.502 86.7767 663.273 86.7767 650.655C86.7767 663.273 97.6066 673.502 110.964 673.502C124.322 673.502 135.152 663.273 135.152 650.655C135.152 663.273 145.982 673.502 159.339 673.502C172.697 673.502 183.527 663.273 183.527 650.655C183.527 650.655 183.527 650.641 183.527 650.635C183.57 663.219 194.378 673.408 207.707 673.408C221.036 673.408 231.895 663.179 231.895 650.561C231.895 663.179 242.725 673.408 256.083 673.408C269.44 673.408 280.27 663.179 280.27 650.561C280.27 663.179 291.1 673.408 304.458 673.408C314.476 673.408 323.072 667.657 326.742 659.456C328.724 655.025 328.308 649.981 325.888 645.744V645.737Z" fill="url(#paint15_linear_5430_59517)"/>
<path d="M305.197 785H56.8035C53.046 785 50 788.183 50 792.108V810.892C50 814.817 53.046 818 56.8035 818H305.197C308.954 818 312 814.817 312 810.892V792.108C312 788.183 308.954 785 305.197 785Z" fill="url(#paint16_linear_5430_59517)"/>
<path d="M290.524 577.786H75.6193C72.3767 577.786 69.748 580.18 69.748 583.134V583.274C69.748 586.228 72.3767 588.622 75.6193 588.622H290.524C293.767 588.622 296.396 586.228 296.396 583.274V583.134C296.396 580.18 293.767 577.786 290.524 577.786Z" fill="url(#paint17_linear_5430_59517)"/>
<g filter="url(#filter10_f_5430_59517)">
<path d="M35 636L35 561L115 561L81.8182 636L35 636Z" fill="url(#paint18_linear_5430_59517)" fill-opacity="0.7"/>
</g>
<g filter="url(#filter11_f_5430_59517)">
<rect x="188" y="542" width="140" height="270" fill="url(#paint19_linear_5430_59517)" fill-opacity="0.7"/>
</g>
<g filter="url(#filter12_d_5430_59517)">
<g filter="url(#filter13_ii_5430_59517)">
<path d="M331.171 622.753L240.311 597.293C234.345 595.621 228.154 599.102 226.482 605.068L191.418 730.201C189.746 736.167 193.227 742.358 199.193 744.03L290.053 769.49C296.018 771.162 302.21 767.681 303.882 761.715L338.946 636.582C340.618 630.616 337.137 624.425 331.171 622.753Z" fill="url(#paint20_linear_5430_59517)"/>
</g>
<path opacity="0.4" d="M305.912 665.177L239.836 646.661C236.82 645.816 233.69 647.576 232.845 650.591L232.842 650.603C231.997 653.619 233.757 656.748 236.772 657.593L302.849 676.109C305.864 676.954 308.994 675.195 309.839 672.179L309.842 672.167C310.687 669.152 308.928 666.022 305.912 665.177Z" fill="url(#paint21_linear_5430_59517)"/>
<path opacity="0.4" d="M287.125 641.247L244.685 629.355C241.669 628.51 238.54 630.269 237.695 633.285L237.692 633.297C236.847 636.312 238.606 639.442 241.622 640.287L284.061 652.179C287.077 653.024 290.207 651.264 291.052 648.249L291.055 648.237C291.9 645.222 290.14 642.092 287.125 641.247Z" fill="url(#paint22_linear_5430_59517)"/>
<g filter="url(#filter14_i_5430_59517)">
<path d="M314.077 612.718L261.532 597.994C259.104 597.314 256.584 598.731 255.904 601.159L252.853 612.043C252.173 614.471 253.59 616.991 256.018 617.672L308.563 632.396C310.991 633.076 313.511 631.659 314.191 629.231L317.241 618.346C317.921 615.918 316.505 613.398 314.077 612.718Z" fill="url(#paint23_linear_5430_59517)"/>
</g>
<path d="M257.596 694.304L225.337 685.264C223.471 684.741 221.535 685.83 221.012 687.696L220.787 688.498C220.264 690.364 221.353 692.3 223.219 692.823L255.478 701.863C257.344 702.385 259.28 701.297 259.803 699.431L260.028 698.628C260.551 696.763 259.462 694.826 257.596 694.304Z" fill="#EB3F23"/>
<path d="M296.261 705.141L264.003 696.102C262.137 695.579 260.2 696.668 259.677 698.533L259.452 699.336C258.93 701.202 260.019 703.138 261.885 703.661L294.143 712.7C296.009 713.223 297.946 712.135 298.468 710.269L298.693 709.466C299.216 707.601 298.127 705.664 296.261 705.141Z" fill="#EB3F23"/>
<path d="M290.554 711.693L226.559 693.76C224.785 693.263 222.945 694.298 222.448 696.071L221.297 700.179C220.8 701.952 221.835 703.792 223.608 704.289L287.604 722.222C289.377 722.719 291.218 721.684 291.715 719.911L292.866 715.803C293.363 714.03 292.328 712.19 290.554 711.693Z" fill="url(#paint24_linear_5430_59517)"/>
<path d="M225.844 682.076C225.844 682.076 220.602 681.301 219.866 684.382C219.13 687.462 226.608 684.672 226.608 684.672C226.608 684.672 225.247 688.168 229.573 689.19C233.9 690.211 235.44 687.802 235.44 687.802C235.44 687.802 237.476 693.228 241.837 693.443C246.2 693.653 244.002 690.675 244.002 690.675C244.002 690.675 246.983 694.909 251.874 696.393C256.766 697.876 258.701 694.794 258.701 694.794C258.701 694.794 256.267 698.748 259.374 699.619C262.48 700.489 262.781 696.5 262.781 696.5C262.781 696.5 265.772 700.908 271.092 701.768C276.413 702.628 279.485 700.584 279.485 700.584C279.485 700.584 278.036 705.23 280.851 705.642C283.665 706.054 288.718 703.783 288.718 703.783C288.718 703.783 295.004 713.819 297.027 710.194C299.05 706.57 295.789 705.153 295.789 705.153C295.789 705.153 300.866 708.223 302.27 708.172C303.674 708.12 305.442 705.456 300.501 703.001L225.838 682.079L225.844 682.076Z" fill="#6EAD62"/>
<path d="M284.592 682.269C281.087 681.286 277.55 681.41 274.398 682.41C272.227 679.914 269.272 677.976 265.762 676.992C262.252 676.008 258.72 676.134 255.568 677.133C253.397 674.637 250.443 672.699 246.932 671.716C237.916 669.189 228.701 673.938 226.35 682.327L296.654 702.027C299.005 693.638 293.599 684.792 284.583 682.266L284.592 682.269Z" fill="#F9CC94"/>
<path d="M255.573 677.136C255.573 677.136 257.696 679.79 256.637 683.22C255.578 686.649 258.103 686.819 258.845 686.196C259.815 685.387 260.779 683.133 259.347 680.546C258.497 679.007 257.723 678.139 255.568 677.135L255.573 677.136Z" fill="#FFE7CF"/>
<path d="M274.408 682.416C274.408 682.416 276.53 685.07 275.471 688.499C274.412 691.929 276.938 692.099 277.68 691.475C278.65 690.667 279.614 688.413 278.182 685.826C277.332 684.287 276.557 683.419 274.403 682.415L274.408 682.416Z" fill="#FFE7CF"/>
<path d="M245.651 680.946C245.263 680.55 244.629 680.542 244.234 680.928C243.838 681.314 243.832 681.949 244.219 682.345L245.362 683.513C245.749 683.91 246.383 683.918 246.779 683.531C247.174 683.145 247.18 682.511 246.793 682.114L245.651 680.946Z" fill="#EFB97D"/>
<path d="M269.324 687.572C268.937 687.176 268.302 687.168 267.907 687.554C267.512 687.941 267.505 688.575 267.892 688.971L269.035 690.14C269.422 690.536 270.056 690.544 270.452 690.158C270.847 689.771 270.854 689.137 270.466 688.741L269.324 687.572Z" fill="#EFB97D"/>
<path d="M238.548 676.709C238.698 676.175 238.388 675.622 237.855 675.473C237.323 675.324 236.77 675.635 236.621 676.168L236.18 677.742C236.031 678.275 236.341 678.829 236.873 678.978C237.405 679.127 237.958 678.815 238.107 678.282L238.548 676.709Z" fill="#EFB97D"/>
<path d="M264.07 683.039C264.219 682.506 263.909 681.952 263.377 681.803C262.845 681.654 262.292 681.966 262.142 682.499L261.702 684.073C261.552 684.606 261.862 685.159 262.395 685.308C262.927 685.458 263.48 685.146 263.629 684.613L264.07 683.039Z" fill="#EFB97D"/>
<path d="M290.103 693.393C289.716 692.997 289.081 692.989 288.686 693.375C288.291 693.762 288.284 694.396 288.672 694.792L289.814 695.961C290.201 696.357 290.836 696.365 291.231 695.979C291.626 695.592 291.633 694.958 291.246 694.562L290.103 693.393Z" fill="#EFB97D"/>
<path d="M284.847 688.862C284.997 688.328 284.687 687.775 284.154 687.626C283.622 687.477 283.07 687.788 282.92 688.322L282.479 689.895C282.33 690.429 282.64 690.982 283.172 691.131C283.704 691.28 284.257 690.969 284.407 690.435L284.847 688.862Z" fill="#EFB97D"/>
<path d="M219.495 706.828L289.799 726.528C288.324 731.793 282.855 734.867 277.59 733.391L226.361 719.036C221.095 717.561 218.02 712.092 219.495 706.828Z" fill="#F9CC94"/>
<path d="M227.178 712.803C226.791 712.407 226.156 712.399 225.761 712.785C225.366 713.171 225.359 713.806 225.746 714.202L226.889 715.37C227.276 715.767 227.91 715.775 228.306 715.388C228.701 715.002 228.708 714.368 228.32 713.971L227.178 712.803Z" fill="#EFB97D"/>
<path d="M255.235 722.65C254.848 722.254 254.214 722.246 253.818 722.633C253.423 723.019 253.417 723.653 253.804 724.049L254.946 725.218C255.333 725.614 255.968 725.622 256.363 725.236C256.758 724.85 256.765 724.215 256.378 723.819L255.235 722.65Z" fill="#EFB97D"/>
<path d="M238.14 719.659C237.831 720.119 237.952 720.742 238.411 721.05C238.87 721.358 239.492 721.236 239.801 720.776L240.713 719.42C241.022 718.96 240.9 718.337 240.441 718.029C239.983 717.721 239.36 717.843 239.051 718.303L238.14 719.659Z" fill="#EFB97D"/>
<path d="M249.983 718.123C250.133 717.589 249.823 717.036 249.29 716.887C248.758 716.738 248.205 717.049 248.056 717.583L247.615 719.156C247.466 719.689 247.776 720.243 248.308 720.392C248.84 720.541 249.393 720.23 249.543 719.696L249.983 718.123Z" fill="#EFB97D"/>
<path d="M276.015 728.465C275.627 728.069 274.993 728.061 274.598 728.448C274.203 728.834 274.196 729.468 274.583 729.864L275.726 731.033C276.113 731.429 276.747 731.437 277.143 731.051C277.538 730.665 277.544 730.03 277.157 729.634L276.015 728.465Z" fill="#EFB97D"/>
<path d="M268.775 725.281C268.924 724.748 268.614 724.195 268.082 724.045C267.55 723.896 266.997 724.208 266.848 724.741L266.407 726.315C266.257 726.848 266.567 727.401 267.1 727.551C267.632 727.7 268.185 727.388 268.334 726.855L268.775 725.281Z" fill="#EFB97D"/>
<path d="M228.167 694.206L253.32 709.925C254.786 710.839 256.478 711.328 258.204 711.332L289.546 711.405L228.172 694.207L228.167 694.206Z" fill="#FDB405"/>
<path d="M219.91 703.251C219.91 703.251 214.669 702.476 213.933 705.556C213.197 708.637 220.675 705.846 220.675 705.846C220.675 705.846 219.314 709.343 223.64 710.365C227.966 711.386 229.507 708.977 229.507 708.977C229.507 708.977 231.542 714.403 235.904 714.618C240.267 714.828 238.068 711.85 238.068 711.85C238.068 711.85 241.049 716.084 245.941 717.567C250.832 719.051 252.767 715.969 252.767 715.969C252.767 715.969 250.333 719.923 253.44 720.794C256.547 721.664 256.848 717.675 256.848 717.675C256.848 717.675 259.838 722.083 265.159 722.943C270.479 723.803 273.551 721.759 273.551 721.759C273.551 721.759 272.103 726.405 274.917 726.817C277.732 727.229 282.785 724.957 282.785 724.957C282.785 724.957 289.07 734.994 291.094 731.369C293.117 727.745 289.855 726.327 289.855 726.327C289.855 726.327 294.933 729.398 296.336 729.347C297.74 729.295 299.509 726.631 294.567 724.175L219.905 703.254L219.91 703.251Z" fill="#6EAD62"/>
</g>
<circle cx="286.631" cy="605.322" r="12.2513" transform="rotate(15.6537 286.631 605.322)" fill="url(#paint25_linear_5430_59517)"/>
<circle cx="286.631" cy="605.325" r="6.53403" transform="rotate(15.6537 286.631 605.325)" fill="#FFFEFE"/>
<path d="M289.575 594.806C295.878 596.573 299.625 603.017 298.189 609.409C298.261 609.2 298.328 608.987 298.388 608.771C300.236 602.175 296.454 595.351 289.937 593.525C283.421 591.699 276.642 595.564 274.794 602.16C274.734 602.375 274.68 602.592 274.633 602.808C276.727 596.604 283.277 593.042 289.578 594.807L289.575 594.806Z" fill="url(#paint26_linear_5430_59517)"/>
<g filter="url(#filter15_f_5430_59517)">
<path d="M286.073 738.802C260.436 728.059 234.996 675.391 225.481 650.399L196.748 719.023L295.628 755.408L299.87 743.879L286.073 738.802Z" fill="url(#paint27_linear_5430_59517)"/>
</g>
<path d="M354.529 634.627L318.584 668.852C317.837 669.559 316.903 670.038 315.889 670.211L304.288 672.253C303.058 672.466 302.016 671.364 302.283 670.154L304.898 658.667C305.123 657.661 305.649 656.752 306.386 656.044L342.34 621.83C344.425 619.844 347.733 619.923 349.73 622.01L354.717 627.249C356.704 629.334 356.625 632.642 354.538 634.638L354.529 634.627Z" fill="url(#paint28_linear_5430_59517)"/>
<g filter="url(#filter16_i_5430_59517)">
<path d="M342.343 621.837L336.455 627.441L348.644 640.237L354.532 634.633C356.618 632.647 356.707 629.341 354.712 627.243L349.724 622.005C347.738 619.919 344.432 619.83 342.335 621.825L342.343 621.837Z" fill="url(#paint29_linear_5430_59517)"/>
</g>
</g>
<defs>
<filter id="filter0_d_5430_59517" x="94.5267" y="326.631" width="44.9668" height="45.3777" filterUnits="userSpaceOnUse" color-interpolation-filters="sRGB">
<feFlood flood-opacity="0" result="BackgroundImageFix"/>
<feColorMatrix in="SourceAlpha" type="matrix" values="0 0 0 0 0 0 0 0 0 0 0 0 0 0 0 0 0 0 127 0" result="hardAlpha"/>
<feOffset/>
<feGaussianBlur stdDeviation="4.63519"/>
<feColorMatrix type="matrix" values="0 0 0 0 0 0 0 0 0 0 0 0 0 0 0 0 0 0 0.05 0"/>
<feBlend mode="normal" in2="BackgroundImageFix" result="effect1_dropShadow_5430_59517"/>
<feBlend mode="normal" in="SourceGraphic" in2="effect1_dropShadow_5430_59517" result="shape"/>
</filter>
<filter id="filter1_d_5430_59517" x="124.81" y="332.068" width="29.074" height="39.7053" filterUnits="userSpaceOnUse" color-interpolation-filters="sRGB">
<feFlood flood-opacity="0" result="BackgroundImageFix"/>
<feColorMatrix in="SourceAlpha" type="matrix" values="0 0 0 0 0 0 0 0 0 0 0 0 0 0 0 0 0 0 127 0" result="hardAlpha"/>
<feOffset/>
<feGaussianBlur stdDeviation="4.63519"/>
<feColorMatrix type="matrix" values="0 0 0 0 0 0 0 0 0 0 0 0 0 0 0 0 0 0 0.05 0"/>
<feBlend mode="normal" in2="BackgroundImageFix" result="effect1_dropShadow_5430_59517"/>
<feBlend mode="normal" in="SourceGraphic" in2="effect1_dropShadow_5430_59517" result="shape"/>
</filter>
<filter id="filter2_d_5430_59517" x="136.489" y="332.017" width="39.7834" height="40.0378" filterUnits="userSpaceOnUse" color-interpolation-filters="sRGB">
<feFlood flood-opacity="0" result="BackgroundImageFix"/>
<feColorMatrix in="SourceAlpha" type="matrix" values="0 0 0 0 0 0 0 0 0 0 0 0 0 0 0 0 0 0 127 0" result="hardAlpha"/>
<feOffset/>
<feGaussianBlur stdDeviation="4.63519"/>
<feColorMatrix type="matrix" values="0 0 0 0 0 0 0 0 0 0 0 0 0 0 0 0 0 0 0.05 0"/>
<feBlend mode="normal" in2="BackgroundImageFix" result="effect1_dropShadow_5430_59517"/>
<feBlend mode="normal" in="SourceGraphic" in2="effect1_dropShadow_5430_59517" result="shape"/>
</filter>
<filter id="filter3_d_5430_59517" x="160.817" y="332.343" width="37.5925" height="39.6658" filterUnits="userSpaceOnUse" color-interpolation-filters="sRGB">
<feFlood flood-opacity="0" result="BackgroundImageFix"/>
<feColorMatrix in="SourceAlpha" type="matrix" values="0 0 0 0 0 0 0 0 0 0 0 0 0 0 0 0 0 0 127 0" result="hardAlpha"/>
<feOffset/>
<feGaussianBlur stdDeviation="4.63519"/>
<feColorMatrix type="matrix" values="0 0 0 0 0 0 0 0 0 0 0 0 0 0 0 0 0 0 0.05 0"/>
<feBlend mode="normal" in2="BackgroundImageFix" result="effect1_dropShadow_5430_59517"/>
<feBlend mode="normal" in="SourceGraphic" in2="effect1_dropShadow_5430_59517" result="shape"/>
</filter>
<filter id="filter4_d_5430_59517" x="184.327" y="332.017" width="39.8811" height="49.593" filterUnits="userSpaceOnUse" color-interpolation-filters="sRGB">
<feFlood flood-opacity="0" result="BackgroundImageFix"/>
<feColorMatrix in="SourceAlpha" type="matrix" values="0 0 0 0 0 0 0 0 0 0 0 0 0 0 0 0 0 0 127 0" result="hardAlpha"/>
<feOffset/>
<feGaussianBlur stdDeviation="4.63519"/>
<feColorMatrix type="matrix" values="0 0 0 0 0 0 0 0 0 0 0 0 0 0 0 0 0 0 0.05 0"/>
<feBlend mode="normal" in2="BackgroundImageFix" result="effect1_dropShadow_5430_59517"/>
<feBlend mode="normal" in="SourceGraphic" in2="effect1_dropShadow_5430_59517" result="shape"/>
</filter>
<filter id="filter5_d_5430_59517" x="208.636" y="332.078" width="39.0498" height="40.0378" filterUnits="userSpaceOnUse" color-interpolation-filters="sRGB">
<feFlood flood-opacity="0" result="BackgroundImageFix"/>
<feColorMatrix in="SourceAlpha" type="matrix" values="0 0 0 0 0 0 0 0 0 0 0 0 0 0 0 0 0 0 127 0" result="hardAlpha"/>
<feOffset/>
<feGaussianBlur stdDeviation="4.63519"/>
<feColorMatrix type="matrix" values="0 0 0 0 0 0 0 0 0 0 0 0 0 0 0 0 0 0 0.05 0"/>
<feBlend mode="normal" in2="BackgroundImageFix" result="effect1_dropShadow_5430_59517"/>
<feBlend mode="normal" in="SourceGraphic" in2="effect1_dropShadow_5430_59517" result="shape"/>
</filter>
<filter id="filter6_d_5430_59517" x="232.041" y="332.078" width="39.9202" height="40.0378" filterUnits="userSpaceOnUse" color-interpolation-filters="sRGB">
<feFlood flood-opacity="0" result="BackgroundImageFix"/>
<feColorMatrix in="SourceAlpha" type="matrix" values="0 0 0 0 0 0 0 0 0 0 0 0 0 0 0 0 0 0 127 0" result="hardAlpha"/>
<feOffset/>
<feGaussianBlur stdDeviation="4.63519"/>
<feColorMatrix type="matrix" values="0 0 0 0 0 0 0 0 0 0 0 0 0 0 0 0 0 0 0.05 0"/>
<feBlend mode="normal" in2="BackgroundImageFix" result="effect1_dropShadow_5430_59517"/>
<feBlend mode="normal" in="SourceGraphic" in2="effect1_dropShadow_5430_59517" result="shape"/>
</filter>
<filter id="filter7_d_5430_59517" x="256.665" y="327.237" width="30.4041" height="44.5461" filterUnits="userSpaceOnUse" color-interpolation-filters="sRGB">
<feFlood flood-opacity="0" result="BackgroundImageFix"/>
<feColorMatrix in="SourceAlpha" type="matrix" values="0 0 0 0 0 0 0 0 0 0 0 0 0 0 0 0 0 0 127 0" result="hardAlpha"/>
<feOffset/>
<feGaussianBlur stdDeviation="4.63519"/>
<feColorMatrix type="matrix" values="0 0 0 0 0 0 0 0 0 0 0 0 0 0 0 0 0 0 0.05 0"/>
<feBlend mode="normal" in2="BackgroundImageFix" result="effect1_dropShadow_5430_59517"/>
<feBlend mode="normal" in="SourceGraphic" in2="effect1_dropShadow_5430_59517" result="shape"/>
</filter>
<filter id="filter8_i_5430_59517" x="100" y="704" width="67" height="81" filterUnits="userSpaceOnUse" color-interpolation-filters="sRGB">
<feFlood flood-opacity="0" result="BackgroundImageFix"/>
<feBlend mode="normal" in="SourceGraphic" in2="BackgroundImageFix" result="shape"/>
<feColorMatrix in="SourceAlpha" type="matrix" values="0 0 0 0 0 0 0 0 0 0 0 0 0 0 0 0 0 0 127 0" result="hardAlpha"/>
<feOffset/>
<feGaussianBlur stdDeviation="8.76137"/>
<feComposite in2="hardAlpha" operator="arithmetic" k2="-1" k3="1"/>
<feColorMatrix type="matrix" values="0 0 0 0 0.956863 0 0 0 0 0.360784 0 0 0 0 0.2 0 0 0 0.08 0"/>
<feBlend mode="normal" in2="shape" result="effect1_innerShadow_5430_59517"/>
</filter>
<filter id="filter9_f_5430_59517" x="-5" y="601" width="146" height="195" filterUnits="userSpaceOnUse" color-interpolation-filters="sRGB">
<feFlood flood-opacity="0" result="BackgroundImageFix"/>
<feBlend mode="normal" in="SourceGraphic" in2="BackgroundImageFix" result="shape"/>
<feGaussianBlur stdDeviation="20" result="effect1_foregroundBlur_5430_59517"/>
</filter>
<filter id="filter10_f_5430_59517" x="-5" y="521" width="160" height="155" filterUnits="userSpaceOnUse" color-interpolation-filters="sRGB">
<feFlood flood-opacity="0" result="BackgroundImageFix"/>
<feBlend mode="normal" in="SourceGraphic" in2="BackgroundImageFix" result="shape"/>
<feGaussianBlur stdDeviation="20" result="effect1_foregroundBlur_5430_59517"/>
</filter>
<filter id="filter11_f_5430_59517" x="148" y="502" width="220" height="350" filterUnits="userSpaceOnUse" color-interpolation-filters="sRGB">
<feFlood flood-opacity="0" result="BackgroundImageFix"/>
<feBlend mode="normal" in="SourceGraphic" in2="BackgroundImageFix" result="shape"/>
<feGaussianBlur stdDeviation="20" result="effect1_foregroundBlur_5430_59517"/>
</filter>
<filter id="filter12_d_5430_59517" x="164.999" y="582.874" width="188.366" height="213.036" filterUnits="userSpaceOnUse" color-interpolation-filters="sRGB">
<feFlood flood-opacity="0" result="BackgroundImageFix"/>
<feColorMatrix in="SourceAlpha" type="matrix" values="0 0 0 0 0 0 0 0 0 0 0 0 0 0 0 0 0 0 127 0" result="hardAlpha"/>
<feOffset dx="-6" dy="6"/>
<feGaussianBlur stdDeviation="10"/>
<feComposite in2="hardAlpha" operator="out"/>
<feColorMatrix type="matrix" values="0 0 0 0 0.956863 0 0 0 0 0.360784 0 0 0 0 0.2 0 0 0 0.12 0"/>
<feBlend mode="normal" in2="BackgroundImageFix" result="effect1_dropShadow_5430_59517"/>
<feBlend mode="normal" in="SourceGraphic" in2="effect1_dropShadow_5430_59517" result="shape"/>
</filter>
<filter id="filter13_ii_5430_59517" x="189.365" y="596.874" width="151.633" height="173.036" filterUnits="userSpaceOnUse" color-interpolation-filters="sRGB">
<feFlood flood-opacity="0" result="BackgroundImageFix"/>
<feBlend mode="normal" in="SourceGraphic" in2="BackgroundImageFix" result="shape"/>
<feColorMatrix in="SourceAlpha" type="matrix" values="0 0 0 0 0 0 0 0 0 0 0 0 0 0 0 0 0 0 127 0" result="hardAlpha"/>
<feOffset dx="1.63351"/>
<feGaussianBlur stdDeviation="0.816754"/>
<feComposite in2="hardAlpha" operator="arithmetic" k2="-1" k3="1"/>
<feColorMatrix type="matrix" values="0 0 0 0 1 0 0 0 0 1 0 0 0 0 1 0 0 0 1 0"/>
<feBlend mode="normal" in2="shape" result="effect1_innerShadow_5430_59517"/>
<feColorMatrix in="SourceAlpha" type="matrix" values="0 0 0 0 0 0 0 0 0 0 0 0 0 0 0 0 0 0 127 0" result="hardAlpha"/>
<feOffset dx="-1.63351"/>
<feGaussianBlur stdDeviation="0.816754"/>
<feComposite in2="hardAlpha" operator="arithmetic" k2="-1" k3="1"/>
<feColorMatrix type="matrix" values="0 0 0 0 1 0 0 0 0 1 0 0 0 0 1 0 0 0 1 0"/>
<feBlend mode="normal" in2="effect1_innerShadow_5430_59517" result="effect2_innerShadow_5430_59517"/>
</filter>
<filter id="filter14_i_5430_59517" x="252.683" y="593.968" width="64.7288" height="38.5976" filterUnits="userSpaceOnUse" color-interpolation-filters="sRGB">
<feFlood flood-opacity="0" result="BackgroundImageFix"/>
<feBlend mode="normal" in="SourceGraphic" in2="BackgroundImageFix" result="shape"/>
<feColorMatrix in="SourceAlpha" type="matrix" values="0 0 0 0 0 0 0 0 0 0 0 0 0 0 0 0 0 0 127 0" result="hardAlpha"/>
<feOffset dy="-3.85544"/>
<feGaussianBlur stdDeviation="1.92772"/>
<feComposite in2="hardAlpha" operator="arithmetic" k2="-1" k3="1"/>
<feColorMatrix type="matrix" values="0 0 0 0 0.857234 0 0 0 0 0.120013 0 0 0 0 0 0 0 0 0.3 0"/>
<feBlend mode="normal" in2="shape" result="effect1_innerShadow_5430_59517"/>
</filter>
<filter id="filter15_f_5430_59517" x="192.748" y="646.399" width="111.122" height="113.008" filterUnits="userSpaceOnUse" color-interpolation-filters="sRGB">
<feFlood flood-opacity="0" result="BackgroundImageFix"/>
<feBlend mode="normal" in="SourceGraphic" in2="BackgroundImageFix" result="shape"/>
<feGaussianBlur stdDeviation="2" result="effect1_foregroundBlur_5430_59517"/>
</filter>
<filter id="filter16_i_5430_59517" x="336.455" y="620.383" width="19.699" height="23.1215" filterUnits="userSpaceOnUse" color-interpolation-filters="sRGB">
<feFlood flood-opacity="0" result="BackgroundImageFix"/>
<feBlend mode="normal" in="SourceGraphic" in2="BackgroundImageFix" result="shape"/>
<feColorMatrix in="SourceAlpha" type="matrix" values="0 0 0 0 0 0 0 0 0 0 0 0 0 0 0 0 0 0 127 0" result="hardAlpha"/>
<feOffset dy="3.26701"/>
<feGaussianBlur stdDeviation="1.63351"/>
<feComposite in2="hardAlpha" operator="arithmetic" k2="-1" k3="1"/>
<feColorMatrix type="matrix" values="0 0 0 0 1 0 0 0 0 1 0 0 0 0 1 0 0 0 0.4 0"/>
<feBlend mode="normal" in2="shape" result="effect1_innerShadow_5430_59517"/>
</filter>
<linearGradient id="paint0_linear_5430_59517" x1="614" y1="373" x2="614" y2="798" gradientUnits="userSpaceOnUse">
<stop stop-color="#EDF5FF"/>
<stop offset="1" stop-color="#76B3FF"/>
</linearGradient>
<linearGradient id="paint1_linear_5430_59517" x1="597" y1="242.827" x2="597" y2="373.655" gradientUnits="userSpaceOnUse">
<stop stop-opacity="0"/>
<stop offset="0.697115"/>
</linearGradient>
<linearGradient id="paint2_linear_5430_59517" x1="310.509" y1="127" x2="310.509" y2="163.187" gradientUnits="userSpaceOnUse">
<stop stop-color="white"/>
<stop offset="0.274038" stop-color="#F6F6F7"/>
</linearGradient>
<linearGradient id="paint3_linear_5430_59517" x1="64" y1="112" x2="64" y2="145" gradientUnits="userSpaceOnUse">
<stop stop-color="white"/>
<stop offset="0.197115" stop-color="#F6F6F7"/>
</linearGradient>
<linearGradient id="paint4_linear_5430_59517" x1="217.608" y1="79" x2="217.608" y2="95.4487" gradientUnits="userSpaceOnUse">
<stop stop-color="white"/>
<stop offset="0.197115" stop-color="#F6F6F7"/>
</linearGradient>
<linearGradient id="paint5_linear_5430_59517" x1="289.461" y1="138.484" x2="289.461" y2="172.792" gradientUnits="userSpaceOnUse">
<stop stop-color="white"/>
<stop offset="0.274038" stop-color="#F6F6F7"/>
</linearGradient>
<linearGradient id="paint6_linear_5430_59517" x1="72" y1="211" x2="72" y2="237" gradientUnits="userSpaceOnUse">
<stop stop-color="white"/>
<stop offset="0.274038" stop-color="#F6F6F7" stop-opacity="0"/>
</linearGradient>
<linearGradient id="paint7_linear_5430_59517" x1="32.5" y1="127" x2="32.5" y2="159" gradientUnits="userSpaceOnUse">
<stop stop-color="white"/>
<stop offset="0.197115" stop-color="#F6F6F7"/>
</linearGradient>
<linearGradient id="paint8_linear_5430_59517" x1="245.316" y1="87" x2="245.316" y2="102.594" gradientUnits="userSpaceOnUse">
<stop stop-color="white"/>
<stop offset="0.197115" stop-color="#F6F6F7"/>
</linearGradient>
<linearGradient id="paint9_linear_5430_59517" x1="111.506" y1="578.007" x2="111.506" y2="558.061" gradientUnits="userSpaceOnUse">
<stop stop-color="white"/>
<stop offset="0.12" stop-color="#F5F5F5"/>
<stop offset="0.33" stop-color="#DADADA"/>
<stop offset="0.6" stop-color="#AEAEAF"/>
<stop offset="0.91" stop-color="#727273"/>
<stop offset="1" stop-color="#616162"/>
</linearGradient>
<linearGradient id="paint10_linear_5430_59517" x1="121.594" y1="553.87" x2="87.7584" y2="495.264" gradientUnits="userSpaceOnUse">
<stop stop-color="#FF8666"/>
<stop offset="1" stop-color="#E83B0D"/>
</linearGradient>
<linearGradient id="paint11_linear_5430_59517" x1="111.204" y1="512.002" x2="111.204" y2="540.669" gradientUnits="userSpaceOnUse">
<stop stop-color="white" stop-opacity="0.3"/>
<stop offset="0.04" stop-color="white" stop-opacity="0.25"/>
<stop offset="0.15" stop-color="white" stop-opacity="0.16"/>
<stop offset="0.27" stop-color="white" stop-opacity="0.09"/>
<stop offset="0.41" stop-color="white" stop-opacity="0.04"/>
<stop offset="0.59" stop-color="white" stop-opacity="0"/>
<stop offset="1" stop-color="white" stop-opacity="0"/>
</linearGradient>
<linearGradient id="paint12_linear_5430_59517" x1="183.524" y1="650.743" x2="183.196" y2="814.858" gradientUnits="userSpaceOnUse">
<stop stop-color="#FFF7DF"/>
<stop offset="0.596799" stop-color="#FDDA77"/>
<stop offset="1" stop-color="#EACF80"/>
</linearGradient>
<linearGradient id="paint13_linear_5430_59517" x1="133.51" y1="698.1" x2="133.51" y2="785.317" gradientUnits="userSpaceOnUse">
<stop stop-color="#EABB88" stop-opacity="0.8"/>
<stop offset="1" stop-color="#F4CD76" stop-opacity="0.4"/>
</linearGradient>
<linearGradient id="paint14_linear_5430_59517" x1="68" y1="663.115" x2="68" y2="756" gradientUnits="userSpaceOnUse">
<stop stop-color="white" stop-opacity="0.9"/>
<stop offset="1" stop-color="white" stop-opacity="0"/>
</linearGradient>
<linearGradient id="paint15_linear_5430_59517" x1="183.196" y1="581.966" x2="183.52" y2="668.89" gradientUnits="userSpaceOnUse">
<stop stop-color="#FCD1C5"/>
<stop offset="0.276977" stop-color="#FF9274"/>
<stop offset="1" stop-color="#FF8666"/>
</linearGradient>
<linearGradient id="paint16_linear_5430_59517" x1="61.6545" y1="781.542" x2="61.6545" y2="818.234" gradientUnits="userSpaceOnUse">
<stop stop-color="#FFEEC2"/>
<stop offset="0.432692" stop-color="#FFE497"/>
<stop offset="1" stop-color="#FFE9AD"/>
</linearGradient>
<linearGradient id="paint17_linear_5430_59517" x1="183.068" y1="588.616" x2="183.068" y2="577.786" gradientUnits="userSpaceOnUse">
<stop stop-color="#FF8666"/>
<stop offset="0.586538" stop-color="#FF8160"/>
<stop offset="1" stop-color="#FCD1C5"/>
</linearGradient>
<linearGradient id="paint18_linear_5430_59517" x1="75" y1="575.423" x2="75" y2="636" gradientUnits="userSpaceOnUse">
<stop stop-color="white" stop-opacity="0.9"/>
<stop offset="1" stop-color="white" stop-opacity="0"/>
</linearGradient>
<linearGradient id="paint19_linear_5430_59517" x1="301.077" y1="677" x2="188" y2="677" gradientUnits="userSpaceOnUse">
<stop stop-color="white" stop-opacity="0.9"/>
<stop offset="1" stop-color="white" stop-opacity="0"/>
</linearGradient>
<linearGradient id="paint20_linear_5430_59517" x1="242.999" y1="633.499" x2="312.999" y2="707.499" gradientUnits="userSpaceOnUse">
<stop stop-color="white"/>
<stop offset="1" stop-color="#F6F6F6"/>
</linearGradient>
<linearGradient id="paint21_linear_5430_59517" x1="269.811" y1="666.851" x2="272.874" y2="655.919" gradientUnits="userSpaceOnUse">
<stop stop-color="#BABABA"/>
<stop offset="0.5" stop-color="#A2A2A2"/>
</linearGradient>
<linearGradient id="paint22_linear_5430_59517" x1="262.842" y1="646.233" x2="265.905" y2="635.301" gradientUnits="userSpaceOnUse">
<stop stop-color="#BABABA"/>
<stop offset="0.5" stop-color="#A2A2A2"/>
</linearGradient>
<linearGradient id="paint23_linear_5430_59517" x1="287.066" y1="607.99" x2="282.29" y2="625.034" gradientUnits="userSpaceOnUse">
<stop stop-color="#FB5A39"/>
<stop offset="1" stop-color="#E4795C"/>
</linearGradient>
<linearGradient id="paint24_linear_5430_59517" x1="255.608" y1="713.256" x2="258.559" y2="702.727" gradientUnits="userSpaceOnUse">
<stop stop-color="#9B633D"/>
<stop offset="1" stop-color="#7B4E2D"/>
</linearGradient>
<linearGradient id="paint25_linear_5430_59517" x1="286.631" y1="594.704" x2="286.631" y2="617.573" gradientUnits="userSpaceOnUse">
<stop stop-color="#FF3306"/>
<stop offset="1" stop-color="#F16849"/>
</linearGradient>
<linearGradient id="paint26_linear_5430_59517" x1="289.934" y1="593.524" x2="286.408" y2="606.107" gradientUnits="userSpaceOnUse">
<stop stop-color="white" stop-opacity="0.3"/>
<stop offset="0.04" stop-color="white" stop-opacity="0.25"/>
<stop offset="0.15" stop-color="white" stop-opacity="0.16"/>
<stop offset="0.27" stop-color="white" stop-opacity="0.09"/>
<stop offset="0.41" stop-color="white" stop-opacity="0.04"/>
<stop offset="0.59" stop-color="white" stop-opacity="0"/>
<stop offset="1" stop-color="white" stop-opacity="0"/>
</linearGradient>
<linearGradient id="paint27_linear_5430_59517" x1="269.79" y1="712.395" x2="233.758" y2="734.888" gradientUnits="userSpaceOnUse">
<stop stop-color="white" stop-opacity="0.4"/>
<stop offset="1" stop-color="white" stop-opacity="0"/>
</linearGradient>
<linearGradient id="paint28_linear_5430_59517" x1="322.419" y1="640.728" x2="334.67" y2="652.979" gradientUnits="userSpaceOnUse">
<stop stop-color="#FFAC95"/>
<stop offset="0.384215" stop-color="#DA2E00"/>
<stop offset="1" stop-color="#E7451A"/>
</linearGradient>
<linearGradient id="paint29_linear_5430_59517" x1="340.389" y1="622.354" x2="353.457" y2="637.056" gradientUnits="userSpaceOnUse">
<stop stop-color="#FFC4B8"/>
<stop offset="0.264423" stop-color="#FF6B4D"/>
<stop offset="1" stop-color="#FF7B5F"/>
</linearGradient>
<clipPath id="clip0_5430_59517">
<rect width="375" height="812" fill="white"/>
</clipPath>
<clipPath id="clip1_5430_59517">
<rect width="180.082" height="40" fill="white" transform="translate(102 334.096)"/>
</clipPath>
</defs>
</svg>
