<svg width="120" height="120" viewBox="0 0 120 120" fill="none" xmlns="http://www.w3.org/2000/svg">
<path d="M59.9977 105.257C67.5282 105.257 73.6329 99.1519 73.6329 91.6214C73.6329 84.0909 67.5282 77.9862 59.9977 77.9862C52.4672 77.9862 46.3625 84.0909 46.3625 91.6214C46.3625 99.1519 52.4672 105.257 59.9977 105.257Z" fill="url(#paint0_linear_4283_31153)"/>
<path d="M98.6614 82.2781L93.2876 67.2733V49.2938C93.2876 33.4079 82.1562 20.1304 67.2735 16.8153V12.532C67.2735 8.5278 64.0021 5.25641 59.9979 5.25641C55.9937 5.25641 52.7223 8.5278 52.7223 12.532V16.8153C37.8397 20.1304 26.7082 33.4079 26.7082 49.2938V67.2733L21.3344 82.2781C19.7031 86.8319 23.0791 91.6212 27.9121 91.6212H92.075C96.908 91.6212 100.284 86.8232 98.6527 82.2781H98.6614Z" fill="url(#paint1_linear_4283_31153)"/>
<path d="M80.2109 54.7899C77.332 65.363 68.7392 69.3847 61.0187 63.7666C53.2982 58.1485 49.3638 45.0281 52.2426 34.4549C55.1215 23.8818 63.7143 19.8601 71.4348 25.4782C79.1553 31.0963 83.0897 44.2167 80.2109 54.7899Z" fill="url(#paint2_linear_4283_31153)"/>
<path opacity="0.4" d="M45.4556 49.6346H45.4469C43.221 49.6346 41.4165 51.439 41.4165 53.6649V53.6737C41.4165 55.8996 43.221 57.704 45.4469 57.704H45.4556C47.6815 57.704 49.4859 55.8996 49.4859 53.6737V53.6649C49.4859 51.439 47.6815 49.6346 45.4556 49.6346Z" fill="#999999"/>
<path opacity="0.4" d="M60.0069 49.6346H59.9981C57.7722 49.6346 55.9678 51.439 55.9678 53.6649V53.6737C55.9678 55.8996 57.7722 57.704 59.9981 57.704H60.0069C62.2328 57.704 64.0372 55.8996 64.0372 53.6737V53.6649C64.0372 51.439 62.2328 49.6346 60.0069 49.6346Z" fill="#999999"/>
<path opacity="0.4" d="M74.5579 49.6346H74.5492C72.3233 49.6346 70.5188 51.439 70.5188 53.6649V53.6737C70.5188 55.8996 72.3233 57.704 74.5492 57.704H74.5579C76.7838 57.704 78.5882 55.8996 78.5882 53.6737V53.6649C78.5882 51.439 76.7838 49.6346 74.5579 49.6346Z" fill="#999999"/>
<defs>
<linearGradient id="paint0_linear_4283_31153" x1="59.9977" y1="105.257" x2="59.9977" y2="77.9862" gradientUnits="userSpaceOnUse">
<stop stop-color="#DBDCDF"/>
<stop offset="0.03" stop-color="#D8D9DC"/>
<stop offset="0.23" stop-color="#CBCCCF"/>
<stop offset="0.5" stop-color="#C3C5C7"/>
<stop offset="1" stop-color="#C1C3C5"/>
</linearGradient>
<linearGradient id="paint1_linear_4283_31153" x1="20.9244" y1="48.4388" x2="99.0802" y2="48.4388" gradientUnits="userSpaceOnUse">
<stop stop-color="#DBDCDF"/>
<stop offset="0.42" stop-color="#D3D4D7"/>
<stop offset="1" stop-color="#C1C3C5"/>
</linearGradient>
<linearGradient id="paint2_linear_4283_31153" x1="56.4527" y1="53.0942" x2="81.0111" y2="31.8024" gradientUnits="userSpaceOnUse">
<stop stop-color="#E8F0FC" stop-opacity="0"/>
<stop offset="0.23" stop-color="#E8F0FB" stop-opacity="0"/>
<stop offset="0.36" stop-color="#E8F0FB" stop-opacity="0.04"/>
<stop offset="0.48" stop-color="#EAF0FB" stop-opacity="0.1"/>
<stop offset="0.58" stop-color="#EBF1FB" stop-opacity="0.18"/>
<stop offset="0.67" stop-color="#EEF2FB" stop-opacity="0.28"/>
<stop offset="0.75" stop-color="#F1F3FB" stop-opacity="0.41"/>
<stop offset="0.83" stop-color="#F4F4FB" stop-opacity="0.56"/>
<stop offset="0.91" stop-color="#F8F5FB" stop-opacity="0.74"/>
<stop offset="0.98" stop-color="#FCF7FB" stop-opacity="0.93"/>
<stop offset="1" stop-color="#FEF8FB"/>
</linearGradient>
</defs>
</svg>
