<svg width="" height="" viewBox="0 0 343 48" fill="none" xmlns="http://www.w3.org/2000/svg">
<path d="M0 8C0 3.58172 3.58172 0 8 0H335C339.418 0 343 3.58172 343 8V40C343 44.4183 339.418 48 335 48H7.99999C3.58172 48 0 44.4183 0 40V8Z" fill="#03A94D"/>
<g clip-path="url(#clip0_5430_61111)">
<path fill-rule="evenodd" clip-rule="evenodd" d="M122.848 24.5649L116.917 16H112V32H117.152V23.4381L123.083 32H128V16H122.848V24.5649Z" fill="white"/>
<path d="M142.797 18.6719V26.4375C144.18 26.4219 145.453 26.3203 146.891 26.0156L147.141 27.4844C145.344 27.875 143.797 27.9375 142.016 27.9375H141.062V18.6719H142.797ZM152.656 17.2656V31.3906H151V17.2656H152.656ZM149.625 17.5625V30.7188H147.984V23.2344H145.031V21.8281H147.984V17.5625H149.625ZM166.007 17.2656V31.4062H164.257V17.2656H166.007ZM158.398 18.2969C160.523 18.2969 162.069 20.2344 162.085 23.2812C162.069 26.3594 160.523 28.2812 158.398 28.2812C156.257 28.2812 154.71 26.3594 154.71 23.2812C154.71 20.2344 156.257 18.2969 158.398 18.2969ZM158.398 19.8594C157.194 19.8594 156.382 21.125 156.382 23.2812C156.382 25.4531 157.194 26.7188 158.398 26.7188C159.585 26.7188 160.398 25.4531 160.398 23.2812C160.398 21.125 159.585 19.8594 158.398 19.8594ZM179.889 17.2656V31.4062H178.17V23.75H175.295V27.9844H168.576V18.3594H170.326V21.875H173.592V18.3594H175.295V22.3281H178.17V17.2656H179.889ZM170.326 26.5938H173.592V23.2344H170.326V26.5938ZM198.496 28.3125V29.75H185.59V28.3125H191.153V26.0156H187.121V21.3906H195.246V19.6406H187.09V18.2344H196.965V22.7656H188.856V24.5938H197.293V26.0156H192.871V28.3125H198.496ZM210.612 18.6406V20.2344C210.612 22.125 210.612 24.0781 210.097 27.0469L208.331 26.8906C208.878 24.1094 208.878 22.0625 208.878 20.2344V20.0469H200.737V18.6406H210.612ZM212.253 28.0312V29.4531H199.378V28.0312H212.253ZM224.932 17.2812V27.4844H223.182V17.2812H224.932ZM225.323 29.7031V31.1094H215.588V26.4531H217.338V29.7031H225.323ZM217.229 18.2031C219.369 18.2031 221.026 19.6875 221.026 21.7344C221.026 23.8281 219.369 25.2812 217.229 25.2812C215.073 25.2812 213.416 23.8281 213.416 21.7344C213.416 19.6875 215.073 18.2031 217.229 18.2031ZM217.229 19.7188C216.026 19.7188 215.104 20.5156 215.119 21.7344C215.104 22.9844 216.026 23.7656 217.229 23.7656C218.401 23.7656 219.323 22.9844 219.323 21.7344C219.323 20.5156 218.401 19.7188 217.229 19.7188Z" fill="white"/>
</g>
<defs>
<clipPath id="clip0_5430_61111">
<rect width="343" height="22" fill="white" transform="translate(0 13)"/>
</clipPath>
</defs>
</svg>
