<svg width="343" height="48" viewBox="0 0 343 48" fill="none" xmlns="http://www.w3.org/2000/svg">
<path d="M0 8C0 3.58172 3.58172 0 8 0H335C339.418 0 343 3.58172 343 8V40C343 44.4183 339.418 48 335 48H7.99999C3.58172 48 0 44.4183 0 40V8Z" fill="#05AC4F"/>
<path fill-rule="evenodd" clip-rule="evenodd" d="M33.2045 24.6355L26.5312 15H21V33H26.7955V23.3679L33.4688 33H39V15H33.2045V24.6355Z" fill="white"/>
<path d="M131.534 18.6719V26.4375C132.917 26.4219 134.19 26.3203 135.628 26.0156L135.878 27.4844C134.081 27.875 132.534 27.9375 130.753 27.9375H129.8V18.6719H131.534ZM141.393 17.2656V31.3906H139.737V17.2656H141.393ZM138.362 17.5625V30.7188H136.722V23.2344H133.768V21.8281H136.722V17.5625H138.362ZM154.744 17.2656V31.4062H152.994V17.2656H154.744ZM147.135 18.2969C149.26 18.2969 150.807 20.2344 150.822 23.2812C150.807 26.3594 149.26 28.2812 147.135 28.2812C144.994 28.2812 143.447 26.3594 143.447 23.2812C143.447 20.2344 144.994 18.2969 147.135 18.2969ZM147.135 19.8594C145.932 19.8594 145.119 21.125 145.119 23.2812C145.119 25.4531 145.932 26.7188 147.135 26.7188C148.322 26.7188 149.135 25.4531 149.135 23.2812C149.135 21.125 148.322 19.8594 147.135 19.8594ZM168.626 17.2656V31.4062H166.907V23.75H164.032V27.9844H157.313V18.3594H159.063V21.875H162.329V18.3594H164.032V22.3281H166.907V17.2656H168.626ZM159.063 26.5938H162.329V23.2344H159.063V26.5938ZM187.233 28.3125V29.75H174.327V28.3125H179.89V26.0156H175.858V21.3906H183.983V19.6406H175.827V18.2344H185.702V22.7656H177.593V24.5938H186.03V26.0156H181.608V28.3125H187.233ZM199.35 18.6406V20.2344C199.35 22.125 199.35 24.0781 198.834 27.0469L197.068 26.8906C197.615 24.1094 197.615 22.0625 197.615 20.2344V20.0469H189.475V18.6406H199.35ZM200.99 28.0312V29.4531H188.115V28.0312H200.99ZM213.669 17.2812V27.4844H211.919V17.2812H213.669ZM214.06 29.7031V31.1094H204.325V26.4531H206.075V29.7031H214.06ZM205.966 18.2031C208.107 18.2031 209.763 19.6875 209.763 21.7344C209.763 23.8281 208.107 25.2812 205.966 25.2812C203.81 25.2812 202.153 23.8281 202.153 21.7344C202.153 19.6875 203.81 18.2031 205.966 18.2031ZM205.966 19.7188C204.763 19.7188 203.841 20.5156 203.857 21.7344C203.841 22.9844 204.763 23.7656 205.966 23.7656C207.138 23.7656 208.06 22.9844 208.06 21.7344C208.06 20.5156 207.138 19.7188 205.966 19.7188Z" fill="white"/>
</svg>
