<svg width="330" height="258" viewBox="0 0 330 258" fill="none" xmlns="http://www.w3.org/2000/svg">
<rect x="25.5" y="30.5" width="280" height="190" rx="12" fill="white"/>
<path d="M45.5371 52.2734C45.5371 53.6445 46.1465 54.9775 47.708 55.6631L46.832 56.8945C45.8545 56.4819 45.188 55.7583 44.7881 54.876C44.3628 55.9106 43.6519 56.7739 42.6045 57.2754L41.6904 56.0186C43.3154 55.2441 43.9629 53.6953 43.9629 52.2734V50.8896H45.5371V52.2734ZM51.7705 50.1279V58.7734H50.2344V54.7617H49.2695V58.4434H47.7588V50.3311H49.2695V53.4287H50.2344V50.1279H51.7705ZM52.0625 60.1699V61.4648H43.9375V57.7451H45.5625V60.1699H52.0625ZM62.498 55.46V56.7549H54.3223V51.0801H62.4092V52.3877H55.9219V55.46H62.498ZM63.6533 58.9258V60.2588H53.0781V58.9258H63.6533ZM68.084 50.5977C69.8486 50.585 71.1309 51.5879 71.1309 53.0479C71.1309 54.4951 69.8486 55.5107 68.084 55.498C66.3193 55.5107 65.0371 54.4951 65.0498 53.0479C65.0371 51.5879 66.3193 50.585 68.084 50.5977ZM68.084 51.8926C67.2207 51.8926 66.6113 52.3115 66.6113 53.0479C66.6113 53.7715 67.2207 54.1904 68.084 54.1777C68.9727 54.1904 69.5947 53.7715 69.5947 53.0479C69.5947 52.3115 68.9727 51.8926 68.084 51.8926ZM74.0508 50.1279V61.668H72.4512V50.1279H74.0508ZM64.3389 56.209C66.3828 56.209 69.29 56.1582 71.7529 55.79L71.8545 56.9834C70.9023 57.1738 69.9248 57.2944 68.96 57.3643V61.3252H67.3477V57.4658C66.332 57.5103 65.3735 57.5166 64.542 57.5293L64.3389 56.209ZM85.21 50.1152V61.668H83.585V50.1152H85.21ZM80.0684 53.7334C80.0684 55.4092 81.0205 57.3008 82.9375 58.0879L82.0615 59.332C80.7476 58.7925 79.8081 57.688 79.2812 56.3613C78.7671 57.7705 77.8213 58.9512 76.4756 59.5098L75.6123 58.2656C77.5166 57.4404 78.4561 55.498 78.4561 53.7334V53.2891H75.9932V51.9941H78.4434V50.3691H80.0557V51.9941H82.4678V53.2891H80.0684V53.7334ZM91.748 60.5H89.6914L92.8779 51.3086H95.3281L98.502 60.5H96.458L95.7725 58.3799H92.4463L91.748 60.5ZM92.9287 56.8945H95.29L94.1348 53.3779H94.0713L92.9287 56.8945ZM102.818 53.0225C102.818 54.8887 103.339 56.8184 104.913 57.834L104.037 59.0908C103.041 58.4878 102.406 57.4976 102.044 56.3105C101.625 57.6182 100.933 58.71 99.8857 59.3447L98.8955 58.1514C100.609 57.085 101.244 55.0537 101.244 53.0986V51.1055H102.818V53.0225ZM109.128 50.1152V61.668H107.579V50.1152H109.128ZM106.703 50.2803V61.1348H105.192V55.333H103.694V54.0127H105.192V50.2803H106.703ZM119.767 56.082V57.3643H111.591V50.9658H119.678V52.2734H113.241V53.4922H119.411V54.7617H113.241V56.082H119.767ZM120.922 59.002V60.3223H110.347V59.002H120.922Z" fill="#27282B"/>
<path d="M50.1367 70.1445V71.1875C50.1367 72.5 50.1367 73.9883 49.75 76.25L48.8125 76.1562C49.2344 74.0234 49.2344 72.4648 49.2344 71.1875V70.9062H42.9531V70.1445H50.1367ZM51.4141 77.1523V77.9141H41.9219V77.1523H51.4141ZM60.6602 69.4531V72.1602H54.3789V73.5078H60.8828V74.2695H53.4531V71.4336H59.7227V70.2031H53.4297V69.4531H60.6602ZM61.8203 75.3711V76.1094H57.4844V79.4727H56.5703V76.1094H52.2812V75.3711H61.8203ZM68.7695 69.9453V70.707H67.7148V73.8125C68.2539 73.7773 68.7812 73.7246 69.2852 73.6602L69.3555 74.3398C67.2109 74.6914 64.7148 74.7266 62.957 74.7266L62.8398 73.9414H64.1758V70.707H63.1328V69.9453H68.7695ZM71.2656 69.0312V76.0508H70.3516V69.0312H71.2656ZM68.3594 75.7344C68.3477 77.2461 70.0234 78.3594 71.8633 78.6875L71.5 79.4023C69.9355 79.1094 68.4883 78.2891 67.8789 77.0586C67.2578 78.2891 65.8047 79.1094 64.2578 79.4023L63.8711 78.6875C65.7227 78.3594 67.3984 77.2461 67.3984 75.7344V75.5234H68.3594V75.7344ZM65.0664 73.9297C65.6406 73.918 66.2324 73.9004 66.8242 73.8711V70.707H65.0664V73.9297ZM84.6484 69.043V76.6836H83.7344V69.043H84.6484ZM84.9766 78.4531V79.2266H77.9219V75.9805H78.8359V78.4531H84.9766ZM79.7383 70.6719C79.7266 72.2539 80.8164 73.6836 82.3633 74.2461L81.8828 74.9844C80.6758 74.5215 79.7383 73.584 79.2812 72.3828C78.8184 73.6602 77.8691 74.6855 76.6562 75.1719L76.1523 74.457C77.7344 73.8477 78.8008 72.3125 78.8008 70.6719V69.6289H79.7383V70.6719ZM95.9102 74.7852V75.5469H86.418V74.7852H90.707V73.4141H91.6094V74.7852H95.9102ZM91.6094 69.0195V70.168H94.9492V70.9062H91.668C91.7266 72.1367 93.373 72.998 95.3242 73.2148L95.0195 73.9297C93.3203 73.7129 91.791 73.0508 91.1641 71.9609C90.5371 73.0508 89.0078 73.7129 87.3086 73.9297L87.0039 73.2148C88.9434 72.998 90.5898 72.1367 90.6602 70.9062H87.4023V70.168H90.707V69.0195H91.6094ZM94.8555 78.4531V79.2266H87.6484V76.3672H88.5742V78.4531H94.8555ZM105.426 69.0312V75.1367H104.5V72.418H102.391V71.6445H104.5V69.0312H105.426ZM105.426 75.6523V79.3086H98.6172V75.6523H105.426ZM99.5312 76.3906V78.5586H104.523V76.3906H99.5312ZM100.41 70.8828C100.41 72.2305 101.453 73.5312 102.977 74.0703L102.496 74.7969C101.318 74.375 100.41 73.4961 99.9648 72.418C99.5137 73.6191 98.5527 74.5801 97.3164 75.0312L96.8359 74.3047C98.3711 73.7539 99.4844 72.3711 99.4844 70.8828V70.4727H97.1289V69.7109H102.742V70.4727H100.41V70.8828Z" fill="#5B5C63"/>
<rect x="239.499" y="46.5" width="48.0007" height="20.0004" rx="3.07316" fill="#FDECE8"/>
<path d="M250.339 59.5879C249.011 59.5879 248.045 58.8056 248.018 57.707H249.301C249.328 58.208 249.785 58.5419 250.339 58.5419C250.998 58.5419 251.464 58.0761 251.464 57.4169C251.464 56.7401 250.989 56.2743 250.321 56.2655C249.846 56.2655 249.512 56.4413 249.319 56.8016H248.124L248.466 53.1364H252.387V54.2175H249.556L249.381 55.826H249.433C249.671 55.5096 250.145 55.2899 250.708 55.2899C251.877 55.2899 252.747 56.16 252.747 57.3817C252.747 58.665 251.771 59.5879 250.339 59.5879ZM255.313 56.3182C254.364 56.3182 253.846 55.6239 253.846 54.6219C253.846 53.6111 254.382 52.9167 255.313 52.9167C256.272 52.9167 256.773 53.6111 256.781 54.6219C256.773 55.6326 256.254 56.3182 255.313 56.3182ZM255.313 55.536C255.691 55.536 255.876 55.1668 255.885 54.6219C255.876 54.0769 255.709 53.699 255.313 53.699C254.936 53.699 254.742 54.0857 254.742 54.6219C254.742 55.1668 254.944 55.536 255.313 55.536ZM259.603 59.7109C258.662 59.7109 258.144 59.0166 258.144 58.0146C258.144 57.0038 258.68 56.3094 259.603 56.3094C260.561 56.3094 261.071 57.0038 261.079 58.0146C261.071 59.0254 260.552 59.7109 259.603 59.7109ZM259.603 58.9287C259.989 58.9287 260.174 58.5683 260.183 58.0146C260.174 57.4696 260.007 57.0917 259.603 57.1005C259.234 57.1005 259.04 57.4784 259.04 58.0146C259.04 58.5683 259.242 58.9287 259.603 58.9287ZM254.76 59.5L259.137 53.1364H260.121L255.744 59.5H254.76ZM270.44 52.2926V54.033H271.521V54.9295H270.44V56.6258H269.315V52.2926H270.44ZM270.44 56.9511V58.9726H266.248V59.4297H270.669V60.2559H265.149V58.208H269.324V57.7597H265.131V56.9511H270.44ZM268.84 52.9079V53.7605H264.094V52.9079H265.914V52.2575H267.03V52.9079H268.84ZM266.467 53.9539C267.663 53.9539 268.436 54.4636 268.436 55.2635C268.436 56.0809 267.663 56.5731 266.467 56.5731C265.272 56.5731 264.481 56.0809 264.481 55.2635C264.481 54.4636 265.272 53.9539 266.467 53.9539ZM266.467 54.7449C265.914 54.7449 265.571 54.9295 265.58 55.2635C265.571 55.6063 265.914 55.7733 266.467 55.7733C267.021 55.7733 267.373 55.6063 267.373 55.2635C267.373 54.9295 267.021 54.7449 266.467 54.7449ZM278.57 52.319V58.0673H277.445V52.319H278.57ZM278.781 59.2715V60.168H273.209V57.4872H274.343V59.2715H278.781ZM274.184 52.8288C275.415 52.8288 276.373 53.6726 276.373 54.8416C276.373 56.037 275.415 56.872 274.184 56.872C272.954 56.872 271.996 56.037 271.996 54.8416C271.996 53.6726 272.954 52.8288 274.184 52.8288ZM274.184 53.8044C273.56 53.7956 273.086 54.1912 273.095 54.8416C273.086 55.5096 273.56 55.8963 274.184 55.8963C274.791 55.8963 275.266 55.5096 275.266 54.8416C275.266 54.1912 274.791 53.7956 274.184 53.8044Z" fill="#F45C33"/>
<path d="M50.5879 115.773V116.471H41.8867V115.773H45.8184V114.58H46.6455V115.773H50.5879ZM46.6455 110.799V111.755H49.707V112.443H46.6992C46.769 113.501 48.2837 114.231 50.0723 114.398L49.8145 115.053C48.23 114.887 46.8174 114.317 46.2373 113.356C45.6519 114.317 44.2339 114.887 42.6602 115.053L42.3916 114.398C44.1802 114.231 45.6948 113.501 45.7754 112.443H42.7891V111.755H45.8184V110.799H46.6455ZM46.2373 117.191C48.3105 117.191 49.5137 117.749 49.5244 118.77C49.5137 119.801 48.3105 120.349 46.2373 120.349C44.1641 120.349 42.9395 119.801 42.9395 118.77C42.9395 117.749 44.1641 117.191 46.2373 117.191ZM46.2373 117.825C44.6904 117.825 43.7881 118.168 43.7988 118.77C43.7881 119.371 44.6904 119.704 46.2373 119.694C47.7627 119.704 48.6758 119.371 48.6758 118.77C48.6758 118.168 47.7627 117.825 46.2373 117.825ZM61.749 111.336V112.045C61.749 112.786 61.749 113.657 61.502 114.849H62.8984V115.547H54.1543V114.849H60.6533C60.9111 113.651 60.9111 112.786 60.9111 112.045V112.035H55.2607V111.336H61.749ZM61.792 116.869V120.242H55.2285V116.869H61.792ZM56.0664 117.535V119.554H60.9541V117.535H56.0664ZM65.9492 111.422C67.2061 111.422 68.1406 112.357 68.1406 113.678C68.1406 115.01 67.2061 115.912 65.9492 115.912C64.6709 115.912 63.7578 115.01 63.7686 113.678C63.7578 112.357 64.6709 111.422 65.9492 111.422ZM65.9492 112.153C65.1328 112.153 64.5205 112.797 64.5312 113.678C64.5205 114.559 65.1328 115.203 65.9492 115.203C66.7656 115.203 67.3564 114.559 67.3672 113.678C67.3564 112.797 66.7656 112.153 65.9492 112.153ZM71.7715 110.831V116.514H70.9658V113.99H69.6982V116.45H68.9033V111.014H69.6982V113.291H70.9658V110.831H71.7715ZM71.7715 117.051V120.37H70.9443V117.728H65.3369V117.051H71.7715Z" fill="#5B5C63"/>
<path d="M233.262 119.618C231.504 119.618 230.25 118.668 230.203 117.286H231.516C231.562 118.036 232.301 118.504 233.25 118.504C234.27 118.504 235.02 117.942 235.02 117.121C235.02 116.289 234.316 115.68 233.109 115.68H232.383V114.625H233.109C234.07 114.625 234.75 114.086 234.75 113.278C234.75 112.504 234.176 111.977 233.273 111.977C232.418 111.977 231.668 112.446 231.633 113.219H230.391C230.426 111.836 231.703 110.899 233.285 110.899C234.949 110.899 236.004 111.953 235.992 113.207C236.004 114.168 235.406 114.871 234.492 115.094V115.153C235.652 115.317 236.32 116.09 236.32 117.168C236.32 118.586 235.02 119.618 233.262 119.618ZM240.656 110.899C242.215 110.911 243.855 111.848 243.855 114.953C243.855 117.93 242.578 119.618 240.539 119.618C238.98 119.618 237.879 118.657 237.68 117.274H238.957C239.133 117.989 239.684 118.493 240.539 118.493C241.852 118.493 242.613 117.344 242.625 115.411H242.52C242.062 116.125 241.266 116.559 240.352 116.559C238.828 116.559 237.609 115.399 237.609 113.77C237.609 112.153 238.816 110.887 240.656 110.899ZM240.656 111.977C239.625 111.977 238.863 112.774 238.863 113.746C238.863 114.731 239.602 115.504 240.633 115.504C241.652 115.504 242.449 114.672 242.449 113.735C242.449 112.821 241.699 111.977 240.656 111.977ZM245.215 119.5V118.563L248.156 115.598C249.082 114.625 249.551 114.086 249.551 113.348C249.551 112.516 248.871 111.977 247.98 111.977C247.043 111.977 246.434 112.575 246.434 113.477H245.215C245.203 111.93 246.387 110.899 248.004 110.899C249.645 110.899 250.77 111.93 250.781 113.313C250.77 114.262 250.324 115.012 248.73 116.582L247.008 118.328V118.399H250.922V119.5H245.215ZM253.875 118.692L252.938 121.926H251.941L252.562 118.692H253.875ZM258.199 119.618C256.23 119.618 255.082 118.036 255.082 115.258C255.082 112.504 256.254 110.899 258.199 110.899C260.145 110.899 261.316 112.504 261.316 115.258C261.316 118.036 260.156 119.618 258.199 119.618ZM258.199 118.504C259.348 118.504 260.027 117.379 260.027 115.258C260.027 113.149 259.336 111.989 258.199 111.989C257.062 111.989 256.371 113.149 256.371 115.258C256.371 117.379 257.051 118.504 258.199 118.504ZM265.605 119.618C263.637 119.618 262.488 118.036 262.488 115.258C262.488 112.504 263.66 110.899 265.605 110.899C267.551 110.899 268.723 112.504 268.723 115.258C268.723 118.036 267.562 119.618 265.605 119.618ZM265.605 118.504C266.754 118.504 267.434 117.379 267.434 115.258C267.434 113.149 266.742 111.989 265.605 111.989C264.469 111.989 263.777 113.149 263.777 115.258C263.777 117.379 264.457 118.504 265.605 118.504ZM273.012 119.618C271.043 119.618 269.895 118.036 269.895 115.258C269.895 112.504 271.066 110.899 273.012 110.899C274.957 110.899 276.129 112.504 276.129 115.258C276.129 118.036 274.969 119.618 273.012 119.618ZM273.012 118.504C274.16 118.504 274.84 117.379 274.84 115.258C274.84 113.149 274.148 111.989 273.012 111.989C271.875 111.989 271.184 113.149 271.184 115.258C271.184 117.379 271.863 118.504 273.012 118.504ZM285.832 110.008V117.965H284.719V116.957H282.609V116.172H284.719V110.008H285.832ZM286.09 119.371V120.274H278.508V117.192H279.609V119.371H286.09ZM277.055 114.801C279 114.789 281.613 114.766 283.852 114.485L283.922 115.282C283.025 115.428 282.082 115.528 281.156 115.586V117.637H280.043V115.645C279.023 115.692 278.045 115.698 277.195 115.692L277.055 114.801ZM280.488 110.407C282.023 110.407 283.09 111.145 283.09 112.258C283.09 113.371 282.023 114.086 280.488 114.086C278.93 114.086 277.875 113.371 277.875 112.258C277.875 111.145 278.93 110.407 280.488 110.407ZM280.488 111.239C279.551 111.227 278.918 111.625 278.93 112.258C278.918 112.879 279.551 113.266 280.488 113.266C281.391 113.266 282.023 112.879 282.035 112.258C282.023 111.625 281.391 111.227 280.488 111.239Z" fill="#27282B"/>
<g opacity="0.76">
<path d="M220.369 135.5L223.523 129.407V129.348H219.881V128.43H224.637V129.387L221.492 135.5H220.369ZM225.779 134.827L224.998 137.522H224.168L224.686 134.827H225.779ZM229.383 135.598C227.742 135.598 226.785 134.28 226.785 131.965C226.785 129.67 227.762 128.332 229.383 128.332C231.004 128.332 231.98 129.67 231.98 131.965C231.98 134.28 231.014 135.598 229.383 135.598ZM229.383 134.67C230.34 134.67 230.906 133.733 230.906 131.965C230.906 130.207 230.33 129.241 229.383 129.241C228.436 129.241 227.859 130.207 227.859 131.965C227.859 133.733 228.426 134.67 229.383 134.67ZM235.555 135.598C233.914 135.598 232.957 134.28 232.957 131.965C232.957 129.67 233.934 128.332 235.555 128.332C237.176 128.332 238.152 129.67 238.152 131.965C238.152 134.28 237.186 135.598 235.555 135.598ZM235.555 134.67C236.512 134.67 237.078 133.733 237.078 131.965C237.078 130.207 236.502 129.241 235.555 129.241C234.607 129.241 234.031 130.207 234.031 131.965C234.031 133.733 234.598 134.67 235.555 134.67ZM241.727 135.598C240.086 135.598 239.129 134.28 239.129 131.965C239.129 129.67 240.105 128.332 241.727 128.332C243.348 128.332 244.324 129.67 244.324 131.965C244.324 134.28 243.357 135.598 241.727 135.598ZM241.727 134.67C242.684 134.67 243.25 133.733 243.25 131.965C243.25 130.207 242.674 129.241 241.727 129.241C240.779 129.241 240.203 130.207 240.203 131.965C240.203 133.733 240.77 134.67 241.727 134.67ZM252.41 127.59V134.221H251.482V133.381H249.725V132.727H251.482V127.59H252.41ZM252.625 135.393V136.145H246.307V133.577H247.225V135.393H252.625ZM245.096 131.584C246.717 131.575 248.895 131.555 250.76 131.321L250.818 131.985C250.071 132.107 249.285 132.19 248.514 132.239V133.948H247.586V132.287C246.736 132.327 245.921 132.331 245.213 132.327L245.096 131.584ZM247.957 127.922C249.236 127.922 250.125 128.537 250.125 129.465C250.125 130.393 249.236 130.989 247.957 130.989C246.658 130.989 245.779 130.393 245.779 129.465C245.779 128.537 246.658 127.922 247.957 127.922ZM247.957 128.616C247.176 128.606 246.648 128.938 246.658 129.465C246.648 129.983 247.176 130.305 247.957 130.305C248.709 130.305 249.236 129.983 249.246 129.465C249.236 128.938 248.709 128.606 247.957 128.616Z" fill="#484950"/>
<path d="M260.342 132.405H259.6L259.658 130.95L258.428 131.731L258.057 131.086L259.355 130.422L258.057 129.748L258.428 129.104L259.658 129.885L259.6 128.43H260.342L260.273 129.885L261.504 129.104L261.885 129.748L260.586 130.422L261.885 131.086L261.504 131.731L260.273 130.95L260.342 132.405Z" fill="#484950"/>
<path d="M269.527 135.598C268.189 135.598 267.184 134.778 267.135 133.655H268.18C268.238 134.26 268.814 134.7 269.527 134.7C270.387 134.7 271.002 134.075 271.002 133.235C271.002 132.375 270.367 131.75 269.479 131.741C268.912 131.741 268.482 131.926 268.238 132.366H267.223L267.682 128.43H271.686V129.348H268.57L268.336 131.33H268.404C268.697 131.047 269.195 130.852 269.732 130.852C271.061 130.852 272.047 131.838 272.047 133.205C272.047 134.602 271.002 135.598 269.527 135.598ZM275.748 135.598C274.439 135.588 273.072 134.817 273.072 132.2C273.072 129.739 274.137 128.332 275.836 128.332C277.135 128.332 278.043 129.143 278.209 130.266H277.145C277.008 129.69 276.549 129.27 275.836 129.27C274.742 129.27 274.107 130.227 274.107 131.819H274.186C274.566 131.223 275.23 130.862 276.002 130.862C277.262 130.862 278.277 131.828 278.277 133.186C278.277 134.553 277.271 135.608 275.748 135.598ZM275.738 134.7C276.598 134.7 277.232 134.036 277.232 133.205C277.232 132.395 276.617 131.741 275.768 131.741C274.898 131.741 274.244 132.424 274.234 133.215C274.244 133.996 274.869 134.7 275.738 134.7ZM286.607 127.58V136.33H285.719V131.789H284.635V135.911H283.766V127.815H284.635V131.037H285.719V127.58H286.607ZM282.896 128.694C282.887 130.998 282.125 133.059 279.625 134.475L279.088 133.83C281.031 132.732 281.852 131.243 281.998 129.455H279.459V128.694H282.896Z" fill="#484950"/>
</g>
<path d="M49.3525 150.788V153.108H50.8027V153.807H49.3525V156.073H48.5146V150.788H49.3525ZM49.3525 156.567V158.684H44.1104V159.618H49.707V160.263H43.2832V158.061H48.5146V157.201H43.2617V156.567H49.3525ZM47.6016 151.69V152.367H41.9082V151.69H44.3359V150.724H45.1738V151.69H47.6016ZM44.7549 152.797C46.1406 152.797 47.043 153.398 47.0537 154.365C47.043 155.332 46.1406 155.934 44.7549 155.934C43.3584 155.934 42.4453 155.332 42.4561 154.365C42.4453 153.398 43.3584 152.797 44.7549 152.797ZM44.7549 153.42C43.8525 153.42 43.251 153.796 43.2617 154.365C43.251 154.945 43.8525 155.3 44.7549 155.3C45.6572 155.3 46.248 154.945 46.2588 154.365C46.248 153.796 45.6572 153.42 44.7549 153.42ZM59.2783 150.831V157.813H58.4404V150.831H59.2783ZM59.5791 159.457V160.166H53.1123V157.104H53.9502V159.457H59.5791ZM54.1221 151.497C55.5508 151.497 56.625 152.464 56.625 153.839C56.625 155.235 55.5508 156.191 54.1221 156.191C52.6934 156.191 51.6191 155.235 51.6191 153.839C51.6191 152.464 52.6934 151.497 54.1221 151.497ZM54.1221 152.238C53.1553 152.238 52.4355 152.904 52.4463 153.839C52.4355 154.795 53.1553 155.45 54.1221 155.45C55.0674 155.45 55.7979 154.795 55.7979 153.839C55.7979 152.904 55.0674 152.238 54.1221 152.238ZM71.2559 151.336V152.045C71.2559 152.786 71.2559 153.656 71.0088 154.849H72.4053V155.547H63.6611V154.849H70.1602C70.418 153.651 70.418 152.786 70.418 152.045V152.034H64.7676V151.336H71.2559ZM71.2988 156.868V160.241H64.7354V156.868H71.2988ZM65.5732 157.534V159.554H70.4609V157.534H65.5732ZM75.4561 151.422C76.7129 151.422 77.6475 152.356 77.6475 153.678C77.6475 155.01 76.7129 155.912 75.4561 155.912C74.1777 155.912 73.2646 155.01 73.2754 153.678C73.2646 152.356 74.1777 151.422 75.4561 151.422ZM75.4561 152.152C74.6396 152.152 74.0273 152.797 74.0381 153.678C74.0273 154.559 74.6396 155.203 75.4561 155.203C76.2725 155.203 76.8633 154.559 76.874 153.678C76.8633 152.797 76.2725 152.152 75.4561 152.152ZM81.2783 150.831V156.514H80.4727V153.989H79.2051V156.449H78.4102V151.014H79.2051V153.291H80.4727V150.831H81.2783ZM81.2783 157.051V160.37H80.4512V157.728H74.8438V157.051H81.2783Z" fill="#5B5C63"/>
<path d="M220.438 156.266C220.438 154.062 221.117 152.234 222.242 150.652H223.895C223.086 151.824 222.242 154.168 222.242 156.266C222.242 158.375 223.086 160.719 223.895 161.891H222.242C221.117 160.309 220.438 158.469 220.438 156.266ZM228.805 155.316V156.699H224.938V155.316H228.805ZM233.305 156.266C233.305 158.469 232.625 160.309 231.5 161.891H229.848C230.656 160.719 231.5 158.375 231.5 156.266C231.5 154.168 230.656 151.824 229.848 150.652H231.5C232.625 152.234 233.305 154.062 233.305 156.266ZM241.332 151.016V159.5H239.562V152.691H239.516L237.57 153.91V152.352L239.668 151.016H241.332ZM246.395 150.898C248.152 150.91 249.816 151.953 249.816 155.035C249.828 157.918 248.457 159.617 246.324 159.617C244.613 159.617 243.453 158.551 243.277 157.109H245.012C245.152 157.73 245.645 158.105 246.324 158.105C247.484 158.105 248.094 157.074 248.094 155.375H248.023C247.625 156.125 246.793 156.57 245.844 156.57C244.32 156.57 243.195 155.422 243.184 153.84C243.184 152.129 244.473 150.887 246.395 150.898ZM246.406 152.281C245.539 152.281 244.895 152.949 244.906 153.793C244.906 154.625 245.527 155.281 246.395 155.281C247.25 155.281 247.918 154.602 247.918 153.781C247.906 152.973 247.273 152.281 246.406 152.281ZM252.57 158.633L251.562 161.973H250.32L250.906 158.633H252.57ZM257.059 159.617C255.301 159.605 253.637 158.562 253.637 155.457C253.637 152.598 255.008 150.898 257.129 150.898C258.84 150.898 260 151.977 260.176 153.371H258.441C258.301 152.773 257.809 152.41 257.129 152.41C255.98 152.41 255.371 153.453 255.359 155.117H255.441C255.828 154.367 256.672 153.922 257.609 153.922C259.133 153.922 260.27 155.07 260.27 156.664C260.27 158.387 258.969 159.629 257.059 159.617ZM257.047 158.223C257.914 158.223 258.559 157.566 258.559 156.711C258.559 155.867 257.938 155.199 257.07 155.199C256.203 155.199 255.547 155.879 255.535 156.711C255.547 157.543 256.18 158.223 257.047 158.223ZM264.781 159.617C262.66 159.617 261.371 158.035 261.371 155.258C261.371 152.48 262.66 150.898 264.781 150.898C266.902 150.898 268.191 152.492 268.191 155.258C268.191 158.047 266.902 159.617 264.781 159.617ZM264.781 158.164C265.766 158.164 266.398 157.215 266.387 155.258C266.387 153.324 265.766 152.34 264.781 152.34C263.797 152.34 263.176 153.324 263.176 155.258C263.164 157.215 263.797 158.164 264.781 158.164ZM272.703 159.617C270.582 159.617 269.293 158.035 269.293 155.258C269.293 152.48 270.582 150.898 272.703 150.898C274.824 150.898 276.113 152.492 276.113 155.258C276.113 158.047 274.824 159.617 272.703 159.617ZM272.703 158.164C273.688 158.164 274.32 157.215 274.309 155.258C274.309 153.324 273.688 152.34 272.703 152.34C271.719 152.34 271.098 153.324 271.098 155.258C271.086 157.215 271.719 158.164 272.703 158.164ZM286.016 149.926V157.977H284.516V157.133H282.477V156.113H284.516V149.926H286.016ZM286.25 159.195V160.391H278.305V157.203H279.793V155.785C278.838 155.826 277.93 155.832 277.121 155.832L276.945 154.648C278.902 154.637 281.539 154.613 283.789 154.332L283.871 155.398C283.027 155.539 282.154 155.639 281.293 155.703V157.73H279.793V159.195H286.25ZM280.414 150.289C281.961 150.277 283.074 151.062 283.074 152.199C283.074 153.336 281.961 154.074 280.414 154.074C278.832 154.074 277.73 153.336 277.73 152.199C277.73 151.062 278.82 150.277 280.414 150.289ZM280.414 151.379C279.652 151.379 279.137 151.672 279.148 152.199C279.137 152.715 279.652 152.996 280.414 152.996C281.129 152.996 281.645 152.715 281.656 152.199C281.645 151.672 281.129 151.379 280.414 151.379Z" fill="#F45C33"/>
<line x1="41.5" y1="173.125" x2="287.5" y2="173.125" stroke="#DCDDDF" stroke-width="0.75"/>
<path d="M51.8049 188.384V194.328H50.1567V193.42H47.4571V192.161H50.1567V191.122H47.5869C46.8536 192.9 45.1664 194.036 42.5513 194.601L41.9932 193.251C44.6992 192.712 45.9516 191.596 46.1723 190.175H42.6551V188.838H48.0022C48.0022 189.195 47.9763 189.539 47.9244 189.863H50.1567V188.384H51.8049ZM51.8049 194.756V197.988H45.6272V198.767H52.0645V200.078H43.9659V196.768H50.1437V196.054H43.9529V194.756H51.8049ZM63.5505 188.384V200.194H61.9801V188.384H63.5505ZM61.1365 188.579V199.649H59.5791V193.77H58.0217V192.433H59.5791V188.579H61.1365ZM57.0742 191.551C57.0742 193.51 57.6842 195.496 59.4104 196.483L58.437 197.703C57.3857 197.08 56.6914 196.022 56.2955 194.756C55.8867 196.132 55.1729 197.3 54.0892 197.962L53.0898 196.742C54.8289 195.678 55.4779 193.549 55.4779 191.551V190.915H53.5441V189.591H58.8653V190.915H57.0742V191.551ZM77.4116 188.916V189.863C77.4116 190.785 77.4116 191.81 77.139 193.16H78.6964V194.497H67.8853V193.16H75.4648C75.7243 191.979 75.7568 191.064 75.7633 190.24H69.2091V188.916H77.4116ZM77.3726 195.743V200.065H69.1702V195.743H77.3726ZM70.7925 197.041V198.741H75.7243V197.041H70.7925ZM82.1357 189.098C83.7061 189.098 84.8612 190.292 84.8742 191.979C84.8612 193.692 83.7061 194.847 82.1357 194.847C80.5653 194.847 79.4232 193.692 79.4232 191.979C79.4232 190.292 80.5653 189.098 82.1357 189.098ZM82.1357 190.499C81.4089 190.499 80.9028 191.045 80.9028 191.979C80.9028 192.913 81.4089 193.472 82.1357 193.472C82.8496 193.472 83.3557 192.913 83.3687 191.979C83.3557 191.045 82.8496 190.499 82.1357 190.499ZM89.5205 188.397V195.444H87.9501V192.576H86.9767V195.379H85.4453V188.605H86.9767V191.252H87.9501V188.397H89.5205ZM89.5205 195.963V200.194H87.8722V197.287H81.357V195.963H89.5205Z" fill="#27282B"/>
<path d="M221.943 199.637C219.77 199.637 218.211 198.434 218.17 196.711H220.248C220.289 197.45 221 197.942 221.957 197.942C222.941 197.942 223.652 197.381 223.639 196.588C223.652 195.782 222.928 195.207 221.766 195.207H220.85V193.69H221.766C222.736 193.69 223.42 193.157 223.42 192.377C223.42 191.625 222.846 191.106 221.971 191.106C221.096 191.106 220.371 191.598 220.344 192.35H218.375C218.402 190.641 219.947 189.465 221.971 189.465C224.035 189.465 225.416 190.682 225.402 192.254C225.416 193.362 224.637 194.155 223.529 194.346V194.428C224.979 194.606 225.785 195.495 225.771 196.725C225.785 198.42 224.172 199.637 221.943 199.637ZM227.604 199.5L231.773 191.352V191.284H226.92V189.602H233.906V191.311L229.736 199.5H227.604ZM235.273 199.5L235.26 198.01L238.814 194.743C239.744 193.854 240.236 193.307 240.236 192.528C240.236 191.653 239.566 191.106 238.664 191.106C237.734 191.106 237.133 191.694 237.133 192.637H235.178C235.164 190.696 236.6 189.465 238.691 189.465C240.811 189.465 242.219 190.668 242.219 192.391C242.219 193.512 241.672 194.442 239.635 196.287L238.131 197.75V197.805H242.355V199.5H235.273ZM246.033 198.489L244.857 202.385H243.408L244.092 198.489H246.033ZM247.674 197.75V196.123L251.857 189.602H254.441V196.096H255.699V197.75H254.441V199.5H252.486V197.75H247.674ZM249.752 196.096H252.514V191.858H252.418L249.752 196.014V196.096ZM260.881 199.637C258.406 199.637 256.902 197.791 256.902 194.551C256.902 191.311 258.406 189.465 260.881 189.465C263.355 189.465 264.859 191.325 264.859 194.551C264.859 197.805 263.355 199.637 260.881 199.637ZM260.881 197.942C262.029 197.942 262.768 196.834 262.754 194.551C262.754 192.295 262.029 191.147 260.881 191.147C259.732 191.147 259.008 192.295 259.008 194.551C258.994 196.834 259.732 197.942 260.881 197.942ZM270.123 199.637C267.648 199.637 266.145 197.791 266.145 194.551C266.145 191.311 267.648 189.465 270.123 189.465C272.598 189.465 274.102 191.325 274.102 194.551C274.102 197.805 272.598 199.637 270.123 199.637ZM270.123 197.942C271.271 197.942 272.01 196.834 271.996 194.551C271.996 192.295 271.271 191.147 270.123 191.147C268.975 191.147 268.25 192.295 268.25 194.551C268.236 196.834 268.975 197.942 270.123 197.942ZM285.654 188.33V197.723H283.904V196.739H281.525V195.549H283.904V188.33H285.654ZM285.928 199.145V200.539H276.658V196.821H278.395V195.166C277.28 195.214 276.221 195.221 275.277 195.221L275.072 193.84C277.355 193.827 280.432 193.799 283.057 193.471L283.152 194.715C282.168 194.879 281.149 194.995 280.145 195.071V197.436H278.395V199.145H285.928ZM279.119 188.754C280.924 188.741 282.223 189.657 282.223 190.983C282.223 192.309 280.924 193.17 279.119 193.17C277.273 193.17 275.988 192.309 275.988 190.983C275.988 189.657 277.26 188.741 279.119 188.754ZM279.119 190.026C278.23 190.026 277.629 190.368 277.643 190.983C277.629 191.584 278.23 191.912 279.119 191.912C279.953 191.912 280.555 191.584 280.568 190.983C280.555 190.368 279.953 190.026 279.119 190.026Z" fill="#27282B"/>
<rect x="162.5" y="204.5" width="166" height="38" rx="19" transform="rotate(5.90082 162.5 204.5)" fill="white"/>
<g filter="url(#filter0_d_42_312)">
<rect x="162.5" y="204.5" width="166" height="38" rx="19" transform="rotate(5.90082 162.5 204.5)" fill="#DCDDDF" fill-opacity="0.3" shape-rendering="crispEdges"/>
</g>
<path d="M181.07 230.715L187.518 225.475L186.477 224.194L181.31 228.394L179.192 225.787L177.911 226.828L181.07 230.715V230.715M181.768 235.311C180.621 235.192 179.566 234.863 178.603 234.324C177.639 233.784 176.823 233.103 176.154 232.28C175.485 231.457 174.985 230.519 174.654 229.465C174.323 228.412 174.217 227.312 174.335 226.165C174.454 225.018 174.783 223.963 175.322 223C175.862 222.036 176.543 221.22 177.366 220.551C178.189 219.882 179.128 219.382 180.181 219.051C181.235 218.72 182.335 218.614 183.481 218.732C184.628 218.851 185.683 219.18 186.647 219.719C187.61 220.259 188.426 220.94 189.095 221.763C189.764 222.586 190.264 223.525 190.595 224.578C190.926 225.632 191.032 226.732 190.914 227.878C190.795 229.025 190.466 230.08 189.927 231.044C189.387 232.007 188.706 232.823 187.883 233.492C187.06 234.161 186.122 234.661 185.068 234.992C184.015 235.323 182.915 235.429 181.768 235.311V235.311" fill="#1ED45A"/>
<path d="M208.264 228.688L208.155 229.738L203.97 229.305L203.598 232.907L202.316 232.774L202.688 229.173L198.55 228.745L198.658 227.696L208.264 228.688ZM207.923 223.316L207.817 224.342L204.658 224.016C204.615 225.178 205.888 226.428 207.941 226.911L207.37 227.877C205.6 227.441 204.286 226.475 203.763 225.266C203.004 226.342 201.521 227.02 199.723 227.087L199.338 226.022C201.435 225.968 202.936 225.004 203.155 223.86L199.984 223.533L200.09 222.507L207.923 223.316ZM218.654 229.15L218.547 230.187L214.479 229.767L214.279 231.702L212.996 231.569L213.196 229.634L208.918 229.192L209.026 228.155L218.654 229.15ZM217.914 224.231L217.52 228.043L210.351 227.302L210.745 223.49L217.914 224.231ZM211.899 224.634L211.715 226.418L216.342 226.896L216.527 225.113L211.899 224.634ZM217.179 233.05L217.07 234.099L209.668 233.334L209.984 230.28L211.278 230.414L211.071 232.419L217.179 233.05ZM228.664 224.859L227.573 235.408L226.268 235.274L227.358 224.724L228.664 224.859ZM222.907 225.042C224.493 225.206 225.497 226.77 225.274 229.045C225.025 231.34 223.723 232.654 222.138 232.49C220.541 232.325 219.535 230.772 219.772 228.476C220.007 226.203 221.311 224.877 222.907 225.042ZM222.787 226.207C221.889 226.115 221.186 226.996 221.019 228.605C220.852 230.225 221.361 231.232 222.258 231.325C223.144 231.416 223.848 230.535 224.015 228.914C224.181 227.306 223.673 226.299 222.787 226.207ZM236.182 226.096C237.721 226.255 238.728 227.219 238.609 228.491C238.489 229.533 237.621 230.238 236.427 230.339L236.339 231.19C237.218 231.233 238.106 231.243 238.94 231.211L238.948 232.166C236.715 232.336 234.264 232.118 232.48 231.934L232.447 230.882C233.205 230.966 234.091 231.052 235.027 231.113L235.121 230.204C233.935 229.881 233.207 229.004 233.328 227.945C233.448 226.673 234.632 225.935 236.182 226.096ZM236.08 227.086C235.24 227 234.602 227.358 234.541 228.07C234.458 228.757 235.008 229.249 235.846 229.348C236.686 229.423 237.302 229.051 237.385 228.364C237.447 227.652 236.919 227.173 236.08 227.086ZM241.392 226.186L241.04 229.59L242.462 229.737L242.351 230.81L240.929 230.663L240.56 234.23L239.266 234.096L240.098 226.053L241.392 226.186ZM240.808 235.48L240.7 236.529L233.403 235.775L233.71 232.803L235.004 232.937L234.805 234.86L240.808 235.48ZM252.139 235.615L252.029 236.687L242.4 235.692L242.511 234.62L245.064 234.883L245.243 233.147L243.833 233.001L244.188 229.562L250.25 230.189L250.384 228.895L244.299 228.266L244.407 227.217L251.774 227.978L251.425 231.359L245.375 230.733L245.235 232.085L251.53 232.736L251.421 233.785L249.883 233.626L249.703 235.363L252.139 235.615ZM246.323 235.014L248.433 235.232L248.612 233.495L246.502 233.277L246.323 235.014ZM259.498 232.464L259.39 233.513L257.257 233.293L257.067 235.134C257.992 235.189 258.919 235.22 259.803 235.217L259.809 236.184C257.453 236.294 255.015 236.065 253.021 235.859L252.969 234.77C253.837 234.865 254.787 234.964 255.769 235.036L255.963 233.159L253.9 232.946L254.36 228.493L259.804 229.055L259.698 230.081L255.536 229.651L255.29 232.029L259.498 232.464ZM262.456 228.352L261.366 238.901L260.072 238.767L261.163 228.218L262.456 228.352ZM267.147 235.74C267.044 236.631 267.356 237.594 268.205 238.277C269.18 237.735 269.688 236.804 269.782 236.013L269.832 235.523L271.103 235.654L271.052 236.144C270.939 237.24 271.471 238.367 272.835 238.955L272.083 239.856C271.1 239.389 270.494 238.643 270.226 237.755C269.79 238.558 269.083 239.239 268.076 239.524C267.135 239.055 266.585 238.274 266.329 237.388C265.872 238.165 265.132 238.766 264.121 239.033L263.592 238C265.004 237.675 265.77 236.647 265.889 235.61L265.939 235.121L267.198 235.251L267.147 235.74ZM266.863 229.373C268.209 229.512 269.212 230.417 269.365 231.611L271.265 231.807L271.525 229.289L272.819 229.423L272.205 235.368L270.911 235.234L271.157 232.856L269.268 232.661C268.894 233.836 267.715 234.527 266.345 234.385C264.748 234.22 263.666 233.06 263.818 231.591C263.969 230.134 265.266 229.208 266.863 229.373ZM266.751 230.457C265.865 230.365 265.155 230.857 265.065 231.72C264.977 232.571 265.57 233.221 266.456 233.313C267.318 233.402 268.031 232.886 268.119 232.036C268.209 231.173 267.614 230.546 266.751 230.457ZM276.095 236.147L275.991 237.149L280.63 237.629L280.734 236.626L282.028 236.76L281.605 240.851L274.389 240.106L274.812 236.014L276.095 236.147ZM275.778 239.212L280.417 239.692L280.528 238.62L275.888 238.14L275.778 239.212ZM283.434 235.232L283.325 236.293L273.72 235.3L273.829 234.24L283.434 235.232ZM279.725 230.655C279.608 231.786 280.931 233.124 283.084 233.606L282.524 234.585C280.782 234.163 279.47 233.238 278.904 232.102C278.111 233.104 276.632 233.734 274.853 233.792L274.482 232.717C276.712 232.676 278.264 231.682 278.396 230.518L278.437 230.121L279.766 230.259L279.725 230.655ZM293.417 231.552L292.327 242.089L291.045 241.957L292.134 231.419L293.417 231.552ZM286.41 231.864L285.815 237.623C287.297 237.752 288.885 237.781 290.538 237.628L290.589 238.729C288.696 238.922 286.959 238.86 285.327 238.691L284.418 238.597L285.128 231.732L286.41 231.864ZM303.196 232.562L302.783 236.561L304.403 236.728L304.294 237.789L302.674 237.621L302.106 243.112L300.812 242.978L301.903 232.429L303.196 232.562ZM300.202 233.266L300.094 234.315L296.457 233.939L295.957 238.777C297.594 238.946 298.897 238.998 300.375 238.892L300.413 240.003C298.752 240.114 297.325 240.014 295.425 239.818L294.551 239.727L295.271 232.757L300.202 233.266Z" fill="#18181B"/>
<rect x="1.5" y="23.5" width="66" height="30" rx="5.625" transform="rotate(-14.0325 1.5 23.5)" fill="#FDECE8"/>
<path d="M20.9644 38.3405C19.2477 38.7695 17.7442 38.0703 17.3549 36.6577L19.0148 36.2428C19.2108 36.8823 19.91 37.1666 20.6263 36.9876C21.4789 36.7745 21.9309 36.0213 21.7178 35.1686C21.499 34.2932 20.7345 33.8441 19.8676 34.0487C19.2536 34.2021 18.8784 34.5375 18.7448 35.0661L17.1986 35.4526L16.4571 30.6008L21.5277 29.3335L21.8772 30.7319L18.2164 31.6469L18.509 33.7843L18.5772 33.7672C18.7819 33.2812 19.3248 32.8435 20.0524 32.6617C21.5645 32.2838 22.9713 33.128 23.3663 34.7083C23.7811 36.3682 22.8175 37.8773 20.9644 38.3405ZM26.3422 32.5029C25.1144 32.8098 24.2191 32.0793 23.8952 30.7832C23.5684 29.4758 24.0375 28.4043 25.2426 28.1031C26.4818 27.7934 27.3543 28.5296 27.6925 29.8342C28.0079 31.1445 27.5587 32.1989 26.3422 32.5029ZM26.0893 31.4911C26.5782 31.3689 26.6976 30.8317 26.5328 30.124C26.3453 29.422 26.0071 28.9871 25.4955 29.115C25.0066 29.2371 24.8815 29.7999 25.0548 30.4934C25.231 31.1983 25.6118 31.6104 26.0893 31.4911ZM32.9871 35.5047C31.7707 35.8088 30.8754 35.0783 30.5515 33.7822C30.2247 32.4748 30.6937 31.4033 31.8875 31.1049C33.1267 30.7952 34.0106 31.5286 34.3487 32.8332C34.6641 34.1434 34.215 35.1979 32.9871 35.5047ZM32.7342 34.4929C33.2345 34.3679 33.3567 33.8421 33.1891 33.123C33.0016 32.4209 32.6634 31.9861 32.1432 32.1281C31.6657 32.2475 31.5378 32.7989 31.7111 33.4924C31.8901 34.2086 32.2681 34.6094 32.7342 34.4929ZM26.6546 36.7975L30.2592 27.1513L31.5325 26.8331L27.9279 36.4793L26.6546 36.7975ZM44.607 22.4057L45.1696 24.6568L46.568 24.3073L46.8578 25.467L45.4594 25.8165L46.0078 28.0107L44.5526 28.3744L43.1517 22.7694L44.607 22.4057ZM46.1129 28.4313L46.7665 31.0462L41.3435 32.4016L41.4912 32.9928L47.2098 31.5635L47.4769 32.6322L40.3372 34.4167L39.6751 31.7677L45.0754 30.418L44.9305 29.8382L39.5075 31.1935L39.246 30.1476L46.1129 28.4313ZM42.7367 23.7187L43.0123 24.8215L36.873 26.3559L36.5974 25.2531L38.9508 24.6649L38.7405 23.8236L40.1844 23.4628L40.3947 24.3041L42.7367 23.7187ZM40.0052 25.8388C41.5514 25.4524 42.7167 25.8617 42.9752 26.8963C43.2395 27.9537 42.3981 28.8404 40.852 29.2268C39.3058 29.6132 38.1234 29.2323 37.8592 28.175C37.6006 27.1404 38.459 26.2253 40.0052 25.8388ZM40.2609 26.862C39.5447 27.0411 39.161 27.3906 39.2803 27.8198C39.3798 28.266 39.8771 28.3712 40.5934 28.1922C41.3096 28.0132 41.7104 27.6835 41.5996 27.2401C41.4916 26.8081 40.9772 26.683 40.2609 26.862ZM55.1319 19.8115L56.9902 27.2468L55.5349 27.6105L53.6766 20.1752L55.1319 19.8115ZM57.6523 28.7362L57.9421 29.8958L50.7342 31.6973L49.8675 28.2298L51.3341 27.8632L51.911 30.1711L57.6523 28.7362ZM49.6235 21.8888C51.2152 21.491 52.7272 22.2727 53.1051 23.7848C53.4915 25.331 52.5223 26.7207 50.9306 27.1185C49.3389 27.5164 47.8298 26.746 47.4433 25.1998C47.0654 23.6877 48.0318 22.2866 49.6235 21.8888ZM49.9389 23.1507C49.1289 23.3411 48.6428 24.0062 48.8644 24.8446C49.069 25.7115 49.808 26.0583 50.6152 25.8566C51.3996 25.6605 51.8886 25.0068 51.6726 24.1428C51.4623 23.3015 50.7205 22.9433 49.9389 23.1507Z" fill="#F45C33"/>
<defs>
<filter id="filter0_d_42_312" x="128.177" y="195.312" width="229.859" height="115.696" filterUnits="userSpaceOnUse" color-interpolation-filters="sRGB">
<feFlood flood-opacity="0" result="BackgroundImageFix"/>
<feColorMatrix in="SourceAlpha" type="matrix" values="0 0 0 0 0 0 0 0 0 0 0 0 0 0 0 0 0 0 127 0" result="hardAlpha"/>
<feMorphology radius="10.1896" operator="erode" in="SourceAlpha" result="effect1_dropShadow_42_312"/>
<feOffset dy="21.2283"/>
<feGaussianBlur stdDeviation="21.2283"/>
<feComposite in2="hardAlpha" operator="out"/>
<feColorMatrix type="matrix" values="0 0 0 0 0 0 0 0 0 0 0 0 0 0 0 0 0 0 0.1 0"/>
<feBlend mode="normal" in2="BackgroundImageFix" result="effect1_dropShadow_42_312"/>
<feBlend mode="normal" in="SourceGraphic" in2="effect1_dropShadow_42_312" result="shape"/>
</filter>
</defs>
</svg>
