<svg width="181" height="40" viewBox="0 0 181 40" fill="none" xmlns="http://www.w3.org/2000/svg">
<g clip-path="url(#clip0_5430_59530)">
<g filter="url(#filter0_d_5430_59530)">
<path d="M22.2671 9.70855C21.5824 8.398 20.6436 7.4102 19.4308 6.74515C18.2181 6.0801 16.8195 5.74757 15.2351 5.74757C13.4942 5.74757 11.949 6.13878 10.5895 6.9212C9.23007 7.70361 8.16402 8.80877 7.39139 10.2465C6.61875 11.6842 6.23733 13.3468 6.23733 15.2344C6.23733 17.1219 6.61875 18.7944 7.39139 20.2418C8.16402 21.6893 9.22028 22.8042 10.5895 23.5866C11.949 24.3691 13.4942 24.7603 15.2351 24.7603C17.5823 24.7603 19.4797 24.105 20.937 22.7945C22.3942 21.4839 23.294 19.7039 23.6167 17.4642H13.7485V14.0216H28.2232V17.386C27.9396 19.4301 27.2158 21.3079 26.052 23.0194C24.8784 24.7309 23.3527 26.1002 21.4749 27.1173C19.5971 28.1344 17.5139 28.643 15.2253 28.643C12.7509 28.643 10.5015 28.066 8.45743 26.9217C6.41337 25.7774 4.79964 24.1832 3.59667 22.1392C2.40349 20.0951 1.79712 17.7968 1.79712 15.2246C1.79712 12.6524 2.39371 10.354 3.59667 8.30998C4.78986 6.26592 6.41337 4.67175 8.47699 3.52747C10.5308 2.38318 12.7803 1.80615 15.2253 1.80615C18.0225 1.80615 20.5066 2.49077 22.6876 3.86977C24.8686 5.239 26.453 7.18526 27.431 9.70855H22.2573H22.2671Z" fill="#F45C33"/>
</g>
<g filter="url(#filter1_d_5430_59530)">
<path d="M38.8876 8.13219C39.9341 7.54537 41.1761 7.24219 42.6138 7.24219V11.702H41.5185C39.8265 11.702 38.5551 12.1323 37.6846 12.9832C36.8142 13.8438 36.3838 15.3304 36.3838 17.4429V28.4065H32.0806V7.58449H36.3838V10.6066C37.0098 9.55031 37.8509 8.719 38.8974 8.13219H38.8876Z" fill="#F45C33"/>
</g>
<g filter="url(#filter2_d_5430_59530)">
<path d="M48.8645 27.3484C47.2801 26.4584 46.0283 25.1967 45.1187 23.5732C44.2092 21.9497 43.7593 20.0621 43.7593 17.9203C43.7593 15.7784 44.2287 13.93 45.1578 12.2869C46.087 10.6536 47.3584 9.39195 48.9721 8.51173C50.5859 7.63151 52.3854 7.19141 54.3806 7.19141C56.3757 7.19141 58.1753 7.63151 59.789 8.51173C61.4028 9.39195 62.6742 10.6536 63.6033 12.2869C64.5324 13.9202 65.0019 15.798 65.0019 17.9203C65.0019 20.0426 64.5226 21.9106 63.5642 23.5537C62.6057 25.187 61.3049 26.4584 59.6521 27.3484C57.9992 28.2384 56.1801 28.6883 54.1947 28.6883C52.2094 28.6883 50.4489 28.2384 48.8645 27.3484ZM57.3048 24.1503C58.2731 23.6221 59.0653 22.8299 59.6717 21.7737C60.278 20.7174 60.5812 19.4264 60.5812 17.9203C60.5812 16.4141 60.2878 15.1329 59.7108 14.0864C59.1337 13.04 58.3611 12.2575 57.4026 11.7196C56.4442 11.1915 55.4075 10.9274 54.3023 10.9274C53.1972 10.9274 52.1702 11.1915 51.2216 11.7196C50.2729 12.2478 49.5296 13.04 48.9721 14.0864C48.4146 15.1329 48.1408 16.4141 48.1408 17.9203C48.1408 20.1599 48.7178 21.891 49.8621 23.1136C51.0064 24.3361 52.4539 24.9425 54.185 24.9425C55.2901 24.9425 56.3366 24.6784 57.3048 24.1503Z" fill="#F45C33"/>
</g>
<g filter="url(#filter3_d_5430_59530)">
<path d="M87.1294 7.51807V28.3401H82.8164V25.8853C82.1318 26.7459 81.2515 27.411 80.1562 27.9098C79.0608 28.3988 77.8969 28.6433 76.6646 28.6433C75.0313 28.6433 73.5643 28.301 72.2635 27.6261C70.9628 26.9415 69.9456 25.9342 69.2023 24.6041C68.459 23.2642 68.0874 21.6602 68.0874 19.7629V7.51807H72.3614V19.1174C72.3614 20.9854 72.8308 22.4133 73.7599 23.4109C74.689 24.4085 75.9605 24.9073 77.5742 24.9073C79.1879 24.9073 80.4691 24.4085 81.408 23.4109C82.3567 22.4133 82.8262 20.9854 82.8262 19.1174V7.51807H87.1392H87.1294Z" fill="#F45C33"/>
</g>
<g filter="url(#filter4_d_5430_59530)">
<path d="M98.8834 8.16943C100.145 7.51415 101.563 7.19141 103.157 7.19141C104.967 7.19141 106.629 7.6413 108.126 8.53129C109.622 9.42129 110.805 10.6829 111.656 12.2869C112.517 13.9006 112.938 15.7491 112.938 17.842C112.938 19.935 112.507 21.803 111.656 23.4559C110.796 25.1087 109.622 26.3899 108.126 27.3093C106.629 28.2286 104.967 28.6883 103.157 28.6883C101.573 28.6883 100.155 28.3655 98.9225 27.72C97.6902 27.0745 96.6829 26.2823 95.9004 25.3239V38.2435H91.5972V7.52393H95.9004V10.5851C96.634 9.62667 97.6218 8.8247 98.8834 8.16943ZM107.676 14.1158C107.079 13.0693 106.307 12.2771 105.329 11.7392C104.36 11.2013 103.324 10.9274 102.209 10.9274C101.094 10.9274 100.096 11.2013 99.1279 11.7588C98.1597 12.3162 97.3773 13.1182 96.7807 14.1745C96.1841 15.2307 95.8907 16.4826 95.8907 17.9203C95.8907 19.358 96.1841 20.6098 96.7807 21.6759C97.3773 22.7517 98.1499 23.5635 99.1279 24.1111C100.096 24.6686 101.123 24.9425 102.209 24.9425C103.294 24.9425 104.36 24.6588 105.329 24.0916C106.297 23.5243 107.079 22.7028 107.676 21.6172C108.272 20.5316 108.566 19.2699 108.566 17.842C108.566 16.4141 108.272 15.1623 107.676 14.1158Z" fill="#F45C33"/>
</g>
<g filter="url(#filter5_d_5430_59530)">
<path d="M136.298 19.6048H120.386C120.513 21.2675 121.129 22.6073 122.235 23.6147C123.34 24.6221 124.699 25.1306 126.313 25.1306C128.631 25.1306 130.264 24.1624 131.223 22.2161H135.868C135.242 24.1331 134.098 25.6979 132.445 26.9204C130.792 28.1429 128.748 28.7493 126.303 28.7493C124.308 28.7493 122.528 28.2994 120.953 27.4094C119.379 26.5194 118.146 25.2578 117.247 23.6343C116.347 22.0108 115.907 20.1232 115.907 17.9813C115.907 15.8395 116.337 13.9519 117.207 12.3284C118.078 10.7049 119.3 9.45299 120.875 8.57277C122.45 7.69255 124.259 7.25244 126.293 7.25244C128.328 7.25244 130.01 7.68277 131.545 8.53365C133.081 9.3943 134.274 10.5973 135.135 12.1425C135.995 13.6878 136.416 15.4776 136.416 17.4923C136.416 18.2747 136.367 18.9789 136.269 19.6048H136.298ZM131.956 16.1231C131.927 14.5387 131.359 13.2673 130.254 12.3088C129.149 11.3503 127.77 10.8711 126.137 10.8711C124.65 10.8711 123.379 11.3406 122.323 12.2892C121.266 13.2379 120.631 14.5093 120.435 16.1231H131.966H131.956Z" fill="#F45C33"/>
</g>
<g filter="url(#filter6_d_5430_59530)">
<path d="M140.603 12.3479C141.473 10.7342 142.656 9.48233 144.153 8.59233C145.649 7.70233 147.312 7.25244 149.121 7.25244C150.754 7.25244 152.192 7.57519 153.415 8.22068C154.637 8.86617 155.615 9.65837 156.349 10.6168V7.59475H160.691V28.4168H156.349V25.3165C155.615 26.2945 154.627 27.116 153.366 27.7713C152.104 28.4266 150.666 28.7493 149.053 28.7493C147.263 28.7493 145.63 28.2896 144.143 27.3703C142.656 26.451 141.483 25.1698 140.612 23.5169C139.742 21.8641 139.312 19.996 139.312 17.9031C139.312 15.8101 139.742 13.9617 140.612 12.3479H140.603ZM155.459 14.2355C154.862 13.1792 154.089 12.3675 153.131 11.8198C152.172 11.2623 151.136 10.9885 150.031 10.9885C148.925 10.9885 147.889 11.2623 146.93 11.8002C145.972 12.3381 145.199 13.1401 144.603 14.1768C144.006 15.2233 143.713 16.4654 143.713 17.9031C143.713 19.3408 144.006 20.6024 144.603 21.6782C145.199 22.7638 145.972 23.5854 146.95 24.1526C147.918 24.7199 148.945 25.0035 150.031 25.0035C151.116 25.0035 152.172 24.7297 153.131 24.1722C154.089 23.6147 154.862 22.803 155.459 21.7369C156.045 20.6709 156.349 19.4092 156.349 17.9813C156.349 16.5534 156.055 15.3015 155.459 14.2355Z" fill="#F45C33"/>
</g>
<g filter="url(#filter7_d_5430_59530)">
<path d="M170.733 11.1062V22.6371C170.733 23.4195 170.919 23.9769 171.281 24.3193C171.643 24.6616 172.269 24.8278 173.149 24.8278H175.799V28.4172H172.396C170.459 28.4172 168.973 27.9673 167.936 27.0577C166.899 26.1482 166.391 24.6811 166.391 22.6371V11.1062H163.936V7.59512H166.391V2.41162H170.733V7.58534H175.799V11.0964H170.733V11.1062Z" fill="#F45C33"/>
</g>
</g>
<defs>
<filter id="filter0_d_5430_59530" x="-7.47327" y="-7.46423" width="44.9668" height="45.3777" filterUnits="userSpaceOnUse" color-interpolation-filters="sRGB">
<feFlood flood-opacity="0" result="BackgroundImageFix"/>
<feColorMatrix in="SourceAlpha" type="matrix" values="0 0 0 0 0 0 0 0 0 0 0 0 0 0 0 0 0 0 127 0" result="hardAlpha"/>
<feOffset/>
<feGaussianBlur stdDeviation="4.63519"/>
<feColorMatrix type="matrix" values="0 0 0 0 0 0 0 0 0 0 0 0 0 0 0 0 0 0 0.05 0"/>
<feBlend mode="normal" in2="BackgroundImageFix" result="effect1_dropShadow_5430_59530"/>
<feBlend mode="normal" in="SourceGraphic" in2="effect1_dropShadow_5430_59530" result="shape"/>
</filter>
<filter id="filter1_d_5430_59530" x="22.8102" y="-2.0282" width="29.074" height="39.7053" filterUnits="userSpaceOnUse" color-interpolation-filters="sRGB">
<feFlood flood-opacity="0" result="BackgroundImageFix"/>
<feColorMatrix in="SourceAlpha" type="matrix" values="0 0 0 0 0 0 0 0 0 0 0 0 0 0 0 0 0 0 127 0" result="hardAlpha"/>
<feOffset/>
<feGaussianBlur stdDeviation="4.63519"/>
<feColorMatrix type="matrix" values="0 0 0 0 0 0 0 0 0 0 0 0 0 0 0 0 0 0 0.05 0"/>
<feBlend mode="normal" in2="BackgroundImageFix" result="effect1_dropShadow_5430_59530"/>
<feBlend mode="normal" in="SourceGraphic" in2="effect1_dropShadow_5430_59530" result="shape"/>
</filter>
<filter id="filter2_d_5430_59530" x="34.4889" y="-2.07898" width="39.7834" height="40.0378" filterUnits="userSpaceOnUse" color-interpolation-filters="sRGB">
<feFlood flood-opacity="0" result="BackgroundImageFix"/>
<feColorMatrix in="SourceAlpha" type="matrix" values="0 0 0 0 0 0 0 0 0 0 0 0 0 0 0 0 0 0 127 0" result="hardAlpha"/>
<feOffset/>
<feGaussianBlur stdDeviation="4.63519"/>
<feColorMatrix type="matrix" values="0 0 0 0 0 0 0 0 0 0 0 0 0 0 0 0 0 0 0.05 0"/>
<feBlend mode="normal" in2="BackgroundImageFix" result="effect1_dropShadow_5430_59530"/>
<feBlend mode="normal" in="SourceGraphic" in2="effect1_dropShadow_5430_59530" result="shape"/>
</filter>
<filter id="filter3_d_5430_59530" x="58.817" y="-1.75232" width="37.5925" height="39.6658" filterUnits="userSpaceOnUse" color-interpolation-filters="sRGB">
<feFlood flood-opacity="0" result="BackgroundImageFix"/>
<feColorMatrix in="SourceAlpha" type="matrix" values="0 0 0 0 0 0 0 0 0 0 0 0 0 0 0 0 0 0 127 0" result="hardAlpha"/>
<feOffset/>
<feGaussianBlur stdDeviation="4.63519"/>
<feColorMatrix type="matrix" values="0 0 0 0 0 0 0 0 0 0 0 0 0 0 0 0 0 0 0.05 0"/>
<feBlend mode="normal" in2="BackgroundImageFix" result="effect1_dropShadow_5430_59530"/>
<feBlend mode="normal" in="SourceGraphic" in2="effect1_dropShadow_5430_59530" result="shape"/>
</filter>
<filter id="filter4_d_5430_59530" x="82.3268" y="-2.07898" width="39.8811" height="49.593" filterUnits="userSpaceOnUse" color-interpolation-filters="sRGB">
<feFlood flood-opacity="0" result="BackgroundImageFix"/>
<feColorMatrix in="SourceAlpha" type="matrix" values="0 0 0 0 0 0 0 0 0 0 0 0 0 0 0 0 0 0 127 0" result="hardAlpha"/>
<feOffset/>
<feGaussianBlur stdDeviation="4.63519"/>
<feColorMatrix type="matrix" values="0 0 0 0 0 0 0 0 0 0 0 0 0 0 0 0 0 0 0.05 0"/>
<feBlend mode="normal" in2="BackgroundImageFix" result="effect1_dropShadow_5430_59530"/>
<feBlend mode="normal" in="SourceGraphic" in2="effect1_dropShadow_5430_59530" result="shape"/>
</filter>
<filter id="filter5_d_5430_59530" x="106.636" y="-2.01795" width="39.0498" height="40.0378" filterUnits="userSpaceOnUse" color-interpolation-filters="sRGB">
<feFlood flood-opacity="0" result="BackgroundImageFix"/>
<feColorMatrix in="SourceAlpha" type="matrix" values="0 0 0 0 0 0 0 0 0 0 0 0 0 0 0 0 0 0 127 0" result="hardAlpha"/>
<feOffset/>
<feGaussianBlur stdDeviation="4.63519"/>
<feColorMatrix type="matrix" values="0 0 0 0 0 0 0 0 0 0 0 0 0 0 0 0 0 0 0.05 0"/>
<feBlend mode="normal" in2="BackgroundImageFix" result="effect1_dropShadow_5430_59530"/>
<feBlend mode="normal" in="SourceGraphic" in2="effect1_dropShadow_5430_59530" result="shape"/>
</filter>
<filter id="filter6_d_5430_59530" x="130.041" y="-2.01795" width="39.9202" height="40.0378" filterUnits="userSpaceOnUse" color-interpolation-filters="sRGB">
<feFlood flood-opacity="0" result="BackgroundImageFix"/>
<feColorMatrix in="SourceAlpha" type="matrix" values="0 0 0 0 0 0 0 0 0 0 0 0 0 0 0 0 0 0 127 0" result="hardAlpha"/>
<feOffset/>
<feGaussianBlur stdDeviation="4.63519"/>
<feColorMatrix type="matrix" values="0 0 0 0 0 0 0 0 0 0 0 0 0 0 0 0 0 0 0.05 0"/>
<feBlend mode="normal" in2="BackgroundImageFix" result="effect1_dropShadow_5430_59530"/>
<feBlend mode="normal" in="SourceGraphic" in2="effect1_dropShadow_5430_59530" result="shape"/>
</filter>
<filter id="filter7_d_5430_59530" x="154.665" y="-6.85877" width="30.4041" height="44.5461" filterUnits="userSpaceOnUse" color-interpolation-filters="sRGB">
<feFlood flood-opacity="0" result="BackgroundImageFix"/>
<feColorMatrix in="SourceAlpha" type="matrix" values="0 0 0 0 0 0 0 0 0 0 0 0 0 0 0 0 0 0 127 0" result="hardAlpha"/>
<feOffset/>
<feGaussianBlur stdDeviation="4.63519"/>
<feColorMatrix type="matrix" values="0 0 0 0 0 0 0 0 0 0 0 0 0 0 0 0 0 0 0.05 0"/>
<feBlend mode="normal" in2="BackgroundImageFix" result="effect1_dropShadow_5430_59530"/>
<feBlend mode="normal" in="SourceGraphic" in2="effect1_dropShadow_5430_59530" result="shape"/>
</filter>
<clipPath id="clip0_5430_59530">
<rect width="180.082" height="40" fill="white"/>
</clipPath>
</defs>
</svg>
