<svg width="72" height="46" viewBox="0 0 72 46" fill="none" xmlns="http://www.w3.org/2000/svg">
<rect y="16.0032" width="66" height="30" rx="5.625" transform="rotate(-14.0325 0 16.0032)" fill="#FDECE8"/>
<path d="M19.4644 30.8437C17.7477 31.2727 16.2442 30.5734 15.8549 29.1608L17.5148 28.746C17.7109 29.3855 18.41 29.6698 19.1263 29.4907C19.9789 29.2776 20.4309 28.5245 20.2178 27.6718C19.999 26.7964 19.2345 26.3473 18.3676 26.5518C17.7537 26.7053 17.3785 27.0406 17.2449 27.5693L15.6987 27.9557L14.9572 23.104L20.0278 21.8367L20.3773 23.2351L16.7164 24.1501L17.009 26.2874L17.0772 26.2704C17.2819 25.7844 17.8248 25.3467 18.5524 25.1649C20.0645 24.7869 21.4714 25.6312 21.8663 27.2115C22.2812 28.8713 21.3176 30.3805 19.4644 30.8437ZM24.8423 25.0061C23.6144 25.313 22.7192 24.5825 22.3952 23.2864C22.0685 21.979 22.5375 20.9075 23.7426 20.6063C24.9818 20.2966 25.8543 21.0328 26.1925 22.3374C26.5079 23.6476 26.0587 24.7021 24.8423 25.0061ZM24.5894 23.9943C25.0782 23.8721 25.1976 23.3349 25.0328 22.6272C24.8453 21.9251 24.5071 21.4903 23.9955 21.6181C23.5066 21.7403 23.3815 22.3031 23.5549 22.9966C23.731 23.7015 24.1119 24.1136 24.5894 23.9943ZM31.4872 28.0079C30.2707 28.312 29.3754 27.5814 29.0515 26.2854C28.7247 24.9779 29.1938 23.9065 30.3875 23.6081C31.6267 23.2984 32.5106 24.0317 32.8488 25.3363C33.1642 26.6466 32.715 27.701 31.4872 28.0079ZM31.2343 26.9961C31.7345 26.871 31.8568 26.3452 31.6891 25.6262C31.5016 24.9241 31.1634 24.4892 30.6432 24.6313C30.1657 24.7507 30.0378 25.302 30.2111 25.9955C30.3901 26.7118 30.7681 27.1126 31.2343 26.9961ZM25.1546 29.3007L28.7592 19.6545L30.0325 19.3362L26.428 28.9825L25.1546 29.3007ZM43.107 14.9089L43.6696 17.16L45.068 16.8105L45.3578 17.9701L43.9594 18.3196L44.5078 20.5139L43.0526 20.8776L41.6518 15.2726L43.107 14.9089ZM44.613 20.9345L45.2665 23.5494L39.8435 24.9048L39.9912 25.496L45.7099 24.0667L45.977 25.1354L38.8372 26.9198L38.1751 24.2708L43.5754 22.9211L43.4305 22.3413L38.0075 23.6967L37.7461 22.6508L44.613 20.9345ZM41.2367 16.2219L41.5123 17.3247L35.3731 18.8591L35.0974 17.7563L37.4508 17.1681L37.2406 16.3268L38.6844 15.9659L38.8947 16.8072L41.2367 16.2219ZM38.5052 18.342C40.0514 17.9556 41.2167 18.3649 41.4753 19.3995C41.7395 20.4568 40.8982 21.3435 39.352 21.73C37.8058 22.1164 36.6235 21.7355 36.3592 20.6782C36.1006 19.6436 36.959 18.7284 38.5052 18.342ZM38.761 19.3652C38.0447 19.5442 37.661 19.8938 37.7803 20.323C37.8798 20.7692 38.3772 20.8744 39.0934 20.6954C39.8097 20.5164 40.2104 20.1867 40.0996 19.7433C39.9916 19.3113 39.4772 19.1862 38.761 19.3652ZM53.6319 12.3147L55.4902 19.75L54.035 20.1137L52.1766 12.6784L53.6319 12.3147ZM56.1523 21.2394L56.4422 22.399L49.2342 24.2005L48.3675 20.733L49.8342 20.3664L50.411 22.6743L56.1523 21.2394ZM48.1235 14.392C49.7152 13.9942 51.2272 14.7759 51.6051 16.2879C51.9916 17.8341 51.0223 19.2239 49.4306 19.6217C47.8389 20.0195 46.3298 19.2492 45.9433 17.703C45.5654 16.1909 46.5319 14.7898 48.1235 14.392ZM48.4389 15.6539C47.6289 15.8443 47.1428 16.5093 47.3645 17.3478C47.569 18.2147 48.308 18.5615 49.1152 18.3598C49.8997 18.1637 50.3886 17.51 50.1726 16.646C49.9624 15.8047 49.2206 15.4465 48.4389 15.6539Z" fill="#F45C33"/>
</svg>
