<svg width="14" height="14" viewBox="0 0 14 14" fill="none" xmlns="http://www.w3.org/2000/svg">
<mask id="mask0_4533_134187" style="mask-type:alpha" maskUnits="userSpaceOnUse" x="0" y="0" width="14" height="14">
<rect width="14" height="14" fill="#D9D9D9"/>
</mask>
<g mask="url(#mask0_4533_134187)">
<path d="M6.73189 11.4992C6.65781 11.4266 6.62077 11.3365 6.62077 11.2291V7.3791H2.77077C2.66334 7.3791 2.57331 7.34303 2.50068 7.27089C2.42796 7.19875 2.3916 7.10941 2.3916 7.00285C2.3916 6.8962 2.42796 6.80588 2.50068 6.73189C2.57331 6.65781 2.66334 6.62077 2.77077 6.62077H6.62077V2.77077C6.62077 2.66334 6.65684 2.57331 6.72898 2.50068C6.80112 2.42796 6.89046 2.3916 6.99702 2.3916C7.10367 2.3916 7.19399 2.42796 7.26798 2.50068C7.34206 2.57331 7.3791 2.66334 7.3791 2.77077V6.62077H11.2291C11.3365 6.62077 11.4266 6.65684 11.4992 6.72898C11.5719 6.80112 11.6083 6.89046 11.6083 6.99702C11.6083 7.10367 11.5719 7.19399 11.4992 7.26798C11.4266 7.34206 11.3365 7.3791 11.2291 7.3791H7.3791V11.2291C7.3791 11.3365 7.34303 11.4266 7.27089 11.4992C7.19875 11.5719 7.10941 11.6083 7.00285 11.6083C6.8962 11.6083 6.80588 11.5719 6.73189 11.4992Z" fill="#F45C33" stroke="#F45C33" stroke-width="0.42"/>
</g>
</svg>
