<svg width="36" height="36" viewBox="0 0 36 36" fill="none" xmlns="http://www.w3.org/2000/svg">
<g opacity="0.7">
<path opacity="0.21" d="M22.2002 0C29.8216 0.000106558 35.9999 6.17843 36 13.7998V22.2002C35.9999 29.8216 29.8216 35.9999 22.2002 36H13.7998C6.17843 35.9999 0.000105985 29.8216 0 22.2002V13.7998C0.000106565 6.17843 6.17843 0.000105978 13.7998 0H22.2002Z" fill="#6FDC8C"/>
<path d="M10.8141 25.1864H26.2141C26.7811 25.1864 27.2407 25.6461 27.2407 26.2131C27.2407 26.7801 26.7811 27.2398 26.2141 27.2398H9.78741C9.2204 27.2398 8.76074 26.7801 8.76074 26.2131V9.78643C8.76074 9.21942 9.2204 8.75977 9.78741 8.75977C10.3544 8.75977 10.8141 9.21942 10.8141 9.78643V25.1864Z" fill="#6FDC8C"/>
<path opacity="0.5" d="M14.6424 20.7557C14.2546 21.1694 13.6048 21.1904 13.1912 20.8025C12.7775 20.4147 12.7566 19.765 13.1444 19.3514L16.9944 15.2447C17.3694 14.8447 17.9927 14.81 18.4098 15.1659L21.4485 17.7589L25.4076 12.7441C25.7589 12.299 26.4045 12.2231 26.8495 12.5744C27.2946 12.9258 27.3705 13.5714 27.0192 14.0164L22.3992 19.8684C22.0383 20.3255 21.3699 20.3912 20.9269 20.0132L17.8222 17.3639L14.6424 20.7557Z" fill="#6FDC8C"/>
</g>
</svg>
