<svg width="20" height="20" viewBox="0 0 20 20" fill="none" xmlns="http://www.w3.org/2000/svg">
<g clip-path="url(#clip0_4431_126181)">
<path d="M10.0036 10.3569C9.80638 10.3569 9.64648 10.197 9.64648 9.99972C9.64648 9.80248 9.80638 9.64258 10.0036 9.64258" stroke="#5D6069" stroke-width="1.42857" stroke-linecap="round" stroke-linejoin="round"/>
<path d="M10.0039 10.3569C10.2011 10.3569 10.361 10.197 10.361 9.99972C10.361 9.80248 10.2011 9.64258 10.0039 9.64258" stroke="#5D6069" stroke-width="1.42857" stroke-linecap="round" stroke-linejoin="round"/>
<path d="M6.07589 10.3569C5.87865 10.3569 5.71875 10.197 5.71875 9.99972C5.71875 9.80248 5.87865 9.64258 6.07589 9.64258" stroke="#5D6069" stroke-width="1.42857" stroke-linecap="round" stroke-linejoin="round"/>
<path d="M6.07617 10.3569C6.27341 10.3569 6.43331 10.197 6.43331 9.99972C6.43331 9.80248 6.27341 9.64258 6.07617 9.64258" stroke="#5D6069" stroke-width="1.42857" stroke-linecap="round" stroke-linejoin="round"/>
<path d="M13.9314 10.3569C13.7341 10.3569 13.5742 10.197 13.5742 9.99972C13.5742 9.80248 13.7341 9.64258 13.9314 9.64258" stroke="#5D6069" stroke-width="1.42857" stroke-linecap="round" stroke-linejoin="round"/>
<path d="M13.9316 10.3569C14.1289 10.3569 14.2889 10.197 14.2889 9.99972C14.2889 9.80248 14.1289 9.64258 13.9316 9.64258" stroke="#5D6069" stroke-width="1.42857" stroke-linecap="round" stroke-linejoin="round"/>
<path d="M9.99819 0.800783C8.33417 0.801301 6.70142 1.25316 5.27388 2.10824C3.84635 2.96333 2.67748 4.1896 1.89177 5.65646C1.10605 7.12331 0.73292 8.77583 0.812117 10.438C0.891312 12.1001 1.41987 13.7097 2.34149 15.0951L0.798828 19.1996L5.96462 18.2654C7.20854 18.8733 8.57359 19.1926 9.95806 19.1994C11.3425 19.2063 12.7107 18.9006 13.9606 18.305C15.2104 17.7096 16.3098 16.8396 17.1766 15.76C18.0434 14.6806 18.6556 13.4193 18.967 12.0703C19.2786 10.7213 19.2817 9.31943 18.976 7.96911C18.6703 6.61879 18.0638 5.35487 17.2017 4.27159C16.3396 3.18829 15.244 2.31357 13.9968 1.71261C12.7495 1.11165 11.3827 0.799966 9.99819 0.800783Z" stroke="#5D6069" stroke-width="1.42857" stroke-linecap="round" stroke-linejoin="round"/>
</g>
<defs>
<clipPath id="clip0_4431_126181">
<rect width="20" height="20" fill="white"/>
</clipPath>
</defs>
</svg>
