<svg width="16" height="16" viewBox="0 0 16 16" fill="currentColor" xmlns="http://www.w3.org/2000/svg">
<path fill-rule="currentColor" clip-rule="evenodd" d="M1.81242 8.00006C1.81242 4.5828 4.58265 1.81256 7.9999 1.81256C11.4171 1.81256 14.1874 4.5828 14.1874 8.00006C14.1874 11.4173 11.4171 14.1876 7.9999 14.1876C4.58265 14.1876 1.81242 11.4173 1.81242 8.00006ZM8.62488 5.5C8.62488 5.84518 8.34506 6.125 7.99988 6.125C7.65471 6.125 7.37488 5.84518 7.37488 5.5C7.37488 5.15482 7.65471 4.875 7.99988 4.875C8.34506 4.875 8.62488 5.15482 8.62488 5.5ZM7.99996 7.125C8.31062 7.125 8.56246 7.37684 8.56246 7.6875V10.5C8.56246 10.8107 8.31062 11.0625 7.99996 11.0625C7.6893 11.0625 7.43746 10.8107 7.43746 10.5V7.6875C7.43746 7.37684 7.6893 7.125 7.99996 7.125Z" fill="currentColor"/>
</svg>
