<svg viewBox="0 0 40 40" fill="none" xmlns="http://www.w3.org/2000/svg">
<path fill-rule="evenodd" clip-rule="evenodd" d="M3.50004 20C3.50004 10.8873 10.8873 3.5 20 3.5C29.1127 3.5 36.5 10.8873 36.5 20C36.5 29.1127 29.1127 36.5 20 36.5C10.8873 36.5 3.50004 29.1127 3.50004 20ZM21.6667 13.3332C21.6667 14.2536 20.9205 14.9998 20 14.9998C19.0795 14.9998 18.3333 14.2536 18.3333 13.3332C18.3333 12.4127 19.0795 11.6665 20 11.6665C20.9205 11.6665 21.6667 12.4127 21.6667 13.3332ZM20.0002 17.6665C20.8286 17.6665 21.5002 18.3381 21.5002 19.1665V26.6665C21.5002 27.4949 20.8286 28.1665 20.0002 28.1665C19.1718 28.1665 18.5002 27.4949 18.5002 26.6665V19.1665C18.5002 18.3381 19.1718 17.6665 20.0002 17.6665Z" fill="#3E5EFA"/>
</svg>
