<svg width="" height="" viewBox="0 0 24 24" fill="none" xmlns="http://www.w3.org/2000/svg">
<mask id="mask0_1_273" style="mask-type:alpha" maskUnits="userSpaceOnUse" x="0" y="0" width="23" height="23">
<rect width="23" height="23" fill="#D9D9D9"/>
</mask>
<g mask="url(#mask0_1_273)">
<path d="M12.7678 12.3415V8.46039C12.7678 8.25107 12.6945 8.07584 12.5479 7.93471C12.4015 7.79341 12.2197 7.72276 12.0025 7.72276C11.7853 7.72276 11.6035 7.79341 11.4571 7.93471C11.3105 8.07584 11.2372 8.25107 11.2372 8.46039V12.5685C11.2372 12.687 11.2594 12.7998 11.304 12.907C11.3484 13.0141 11.4184 13.1136 11.514 13.2058L14.4988 16.0825C14.6399 16.2187 14.8175 16.2884 15.0315 16.2915C15.2454 16.2946 15.4263 16.2249 15.5741 16.0825C15.7219 15.9401 15.7958 15.7673 15.7958 15.5642C15.7958 15.3613 15.7219 15.1886 15.5741 15.0461L12.7678 12.3415ZM8.61943 20.3418C7.56751 19.903 6.65038 19.3066 5.86803 18.5526C5.08568 17.7985 4.46686 16.9146 4.01157 15.9008C3.55628 14.8871 3.32863 13.8003 3.32863 12.6403C3.32863 11.4802 3.55628 10.3934 4.01157 9.37971C4.46686 8.36589 5.08568 7.48197 5.86803 6.72795C6.65038 5.97394 7.56751 5.37753 8.61943 4.93872C9.67118 4.49992 10.7989 4.28052 12.0025 4.28052C13.2061 4.28052 14.3338 4.49992 15.3856 4.93872C16.4375 5.37753 17.3546 5.97394 18.137 6.72795C18.9193 7.48197 19.5381 8.36589 19.9934 9.37971C20.4487 10.3934 20.6764 11.4802 20.6764 12.6403C20.6764 13.8003 20.4487 14.8871 19.9934 15.9008C19.5381 16.9146 18.9193 17.7985 18.137 18.5526C17.3546 19.3066 16.4375 19.903 15.3856 20.3418C14.3338 20.7806 13.2061 21 12.0025 21C10.7989 21 9.67118 20.7806 8.61943 20.3418ZM2.22195 7.01538C2.07398 6.87294 2 6.70017 2 6.49708C2 6.29415 2.07398 6.12146 2.22195 5.97902L5.09096 3.21391C5.23229 3.0777 5.40985 3.00803 5.62363 3.00492C5.83759 3.00164 6.01846 3.0713 6.16626 3.21391C6.31406 3.35635 6.38795 3.52904 6.38795 3.73197C6.38795 3.93506 6.31406 4.10783 6.16626 4.25027L3.29725 7.01538C3.15592 7.1516 2.97836 7.22126 2.76458 7.22437C2.55062 7.22749 2.36974 7.15782 2.22195 7.01538ZM21.783 7.01538C21.6352 7.15782 21.4561 7.22905 21.2455 7.22905C21.0348 7.22905 20.8555 7.15782 20.7077 7.01538L17.8387 4.25027C17.6974 4.11406 17.6251 3.94293 17.6219 3.73689C17.6186 3.53068 17.6909 3.35635 17.8387 3.21391C17.9865 3.0713 18.1658 3 18.3765 3C18.5871 3 18.7662 3.0713 18.914 3.21391L21.783 5.97902C21.9244 6.11523 21.9967 6.28636 21.9999 6.49241C22.0033 6.69861 21.931 6.87294 21.783 7.01538ZM12.0025 19.5248C13.9859 19.5248 15.6723 18.8552 17.0617 17.5162C18.451 16.1772 19.1457 14.5519 19.1457 12.6403C19.1457 10.7287 18.451 9.10335 17.0617 7.76432C15.6723 6.42528 13.9859 5.75576 12.0025 5.75576C10.0191 5.75576 8.33268 6.42528 6.94334 7.76432C5.55399 9.10335 4.85931 10.7287 4.85931 12.6403C4.85931 14.5519 5.55399 16.1772 6.94334 17.5162C8.33268 18.8552 10.0191 19.5248 12.0025 19.5248Z" fill="#FEE8E3"/>
</g>
</svg>
