<svg width="24" height="24" viewBox="0 0 24 24" fill="none" xmlns="http://www.w3.org/2000/svg">
<path d="M21 21V9.17042C21 8.85357 20.8498 8.55546 20.5952 8.36686L12.5952 2.44091C12.2416 2.17899 11.7584 2.17899 11.4048 2.44091L3.40477 8.36686C3.15016 8.55546 3 8.85357 3 9.17042V21C3 21.5523 3.44772 22 4 22H8.75C9.30228 22 9.75 21.5523 9.75 21V17.5833C9.75 16.3407 10.7574 15.3333 12 15.3333C13.2426 15.3333 14.25 16.3407 14.25 17.5833V21C14.25 21.5523 14.6977 22 15.25 22H20C20.5523 22 21 21.5523 21 21Z" fill="#F45C33"/>
</svg>
