<svg width="36" height="36" viewBox="0 0 36 36" fill="none" xmlns="http://www.w3.org/2000/svg">
<g opacity="0.8">
<g clip-path="url(#clip0_2869_27120)">
<path opacity="0.3" d="M22.5 0.0996094C29.9558 0.0996094 35.9999 6.14382 36 13.5996V22.5996C36 30.0555 29.9558 36.0996 22.5 36.0996H13.5C6.04416 36.0996 0 30.0555 0 22.5996V13.5996C6.59733e-05 6.14382 6.0442 0.0996094 13.5 0.0996094H22.5Z" fill="#F78364"/>
<path opacity="0.78" fill-rule="evenodd" clip-rule="evenodd" d="M17.1782 15.0867C17.1897 14.9299 17.3202 14.8086 17.4774 14.8086H17.7258C17.8805 14.8086 18.0098 14.9262 18.0245 15.0802L18.3986 19.0086L21.0529 20.6012C21.1433 20.6554 21.1986 20.7531 21.1986 20.8585V21.1306C21.1986 21.33 21.0077 21.4739 20.816 21.419L17.033 20.3357C16.8964 20.2966 16.806 20.1671 16.8164 20.0254L17.1782 15.0867Z" fill="#F78364"/>
<path opacity="0.901274" d="M13.1128 9.6585C13.1688 9.41212 13.4683 9.33576 13.6226 9.52862L14.7104 10.8899C15.7205 10.4382 16.8323 10.1878 17.9995 10.1878L18.4312 10.1995C22.8696 10.4356 26.3989 14.2891 26.3989 19.0081C26.3988 23.879 22.6384 27.8272 17.9995 27.8274C13.3604 27.8274 9.59928 23.8791 9.59912 19.0081C9.59912 18.1808 9.70781 17.3797 9.91064 16.6204L11.4507 17.0745C11.2843 17.6976 11.1987 18.3462 11.1987 19.0081C11.1989 22.9513 14.2441 26.1478 17.9995 26.1478C21.7548 26.1475 24.7992 22.9511 24.7993 19.0081C24.7993 15.1881 21.942 12.0685 18.3491 11.8773L17.9995 11.8675C17.2383 11.8675 16.4964 11.9984 15.7974 12.2493L16.8882 13.6146C17.0424 13.8079 16.9184 14.105 16.6772 14.1194L12.4263 14.3724C12.2315 14.3838 12.0822 14.1956 12.1274 13.9964L13.1128 9.6585Z" fill="#F78364"/>
</g>
</g>
<defs>
<clipPath id="clip0_2869_27120">
<rect width="36" height="36" rx="13.5" fill="white"/>
</clipPath>
</defs>
</svg>
