<svg width="24" height="24" viewBox="0 0 24 24" fill="none" xmlns="http://www.w3.org/2000/svg">
<path fill-rule="evenodd" clip-rule="evenodd" d="M2.375 9.51485C2.375 6.37781 4.82249 3.8086 7.96665 3.8086C9.56391 3.8086 10.9892 4.47626 12 5.5465C13.0107 4.47626 14.436 3.8086 16.0333 3.8086C19.1774 3.8086 21.6249 6.37781 21.6249 9.51485C21.6249 11.0002 21.0808 12.2509 20.2309 13.4119C19.3966 14.5514 18.2361 15.6451 16.9613 16.8148L16.9574 16.8184L13.5295 19.9232C13.3711 20.0667 13.219 20.2045 13.0809 20.3112C12.9292 20.4284 12.7443 20.5487 12.5093 20.6197C12.1773 20.72 11.8226 20.72 11.4906 20.6197C11.2557 20.5487 11.0708 20.4284 10.9191 20.3112C10.7809 20.2045 10.6289 20.0667 10.4704 19.9232L7.04251 16.8183L7.03861 16.8148C5.76382 15.6451 4.6033 14.5514 3.76906 13.4119C2.9191 12.2509 2.375 11.0002 2.375 9.51485ZM7.96663 5.43878C5.79414 5.43878 4.02498 7.21719 4.02498 9.51467C4.02498 10.5654 4.39755 11.4885 5.10591 12.4561C5.82964 13.4446 6.86844 14.4336 8.15942 15.6181L11.938 19.0406C11.9731 19.0724 12.0268 19.0724 12.0619 19.0406L15.8405 15.6181C17.1315 14.4336 18.1703 13.4446 18.894 12.4561C19.6024 11.4885 19.9749 10.5654 19.9749 9.51467C19.9749 7.21719 18.2058 5.43878 16.0333 5.43878C14.6281 5.43878 13.4044 6.1754 12.705 7.31282C12.5554 7.55614 12.2881 7.70469 12 7.70469C11.7118 7.70469 11.4445 7.55614 11.2949 7.31282C10.5955 6.1754 9.37182 5.43878 7.96663 5.43878Z" fill="#45474D"/>
</svg>
