<svg width="16" height="16" viewBox="0 0 16 16" fill="none" xmlns="http://www.w3.org/2000/svg">
<path d="M8 1C9.60641 1 10.9249 1.54309 11.9551 2.62891C12.985 3.71468 13.5 5.01969 13.5 6.54395C13.5 7.67955 13.0449 8.91463 12.1348 10.249C11.2246 11.5832 9.8462 13.0333 8 14.5996C6.16626 13.0457 4.79139 11.5983 3.875 10.2578C2.95865 8.91725 2.5 7.67951 2.5 6.54395C2.5 5.01961 3.01231 3.71472 4.03613 2.62891C5.06007 1.54316 6.38116 1 8 1ZM8 5.29492C7.66417 5.29492 7.37964 5.41091 7.14648 5.64355C6.91328 5.87629 6.7969 6.16011 6.79688 6.49512C6.79688 6.83016 6.91327 7.11405 7.14648 7.34668C7.37964 7.57933 7.66417 7.69629 8 7.69629C8.33583 7.69629 8.62036 7.57933 8.85352 7.34668C9.08673 7.11405 9.20312 6.83016 9.20312 6.49512C9.2031 6.16011 9.08672 5.87629 8.85352 5.64355C8.62036 5.41091 8.33583 5.29492 8 5.29492Z" fill="#C2C3C8"/>
<path d="M8 1C9.60641 1 10.9249 1.54309 11.9551 2.62891C12.985 3.71468 13.5 5.01969 13.5 6.54395C13.5 7.67955 13.0449 8.91463 12.1348 10.249C11.2246 11.5832 9.8462 13.0333 8 14.5996C6.16626 13.0457 4.79139 11.5983 3.875 10.2578C2.95865 8.91725 2.5 7.67951 2.5 6.54395C2.5 5.01961 3.01231 3.71472 4.03613 2.62891C5.06007 1.54316 6.38116 1 8 1ZM8 5.29492C7.66417 5.29492 7.37964 5.41091 7.14648 5.64355C6.91328 5.87629 6.7969 6.16011 6.79688 6.49512C6.79688 6.83016 6.91327 7.11405 7.14648 7.34668C7.37964 7.57933 7.66417 7.69629 8 7.69629C8.33583 7.69629 8.62036 7.57933 8.85352 7.34668C9.08673 7.11405 9.20312 6.83016 9.20312 6.49512C9.2031 6.16011 9.08672 5.87629 8.85352 5.64355C8.62036 5.41091 8.33583 5.29492 8 5.29492Z" stroke="#C2C3C8"/>
</svg>
