<svg width="20" height="20" viewBox="0 0 18 18" fill="none" xmlns="http://www.w3.org/2000/svg">
<mask id="mask0_5732_9860" style="mask-type:alpha" maskUnits="userSpaceOnUse" x="0" y="0" width="18" height="18">
<rect width="17.3333" height="17.3333" fill="#D9D9D9"/>
</mask>
<g mask="url(#mask0_5732_9860)">
<path d="M8.33463 14.2365C8.24291 14.1466 8.19705 14.0351 8.19705 13.9021V9.13545H3.43038C3.29737 9.13545 3.18591 9.09079 3.09599 9.00148C3.00596 8.91216 2.96094 8.80154 2.96094 8.66962C2.96094 8.53757 3.00596 8.42575 3.09599 8.33414C3.18591 8.24242 3.29737 8.19656 3.43038 8.19656H8.19705V3.42989C8.19705 3.29688 8.24171 3.18542 8.33102 3.0955C8.42034 3.00547 8.53096 2.96045 8.66288 2.96045C8.79493 2.96045 8.90675 3.00547 8.99835 3.0955C9.09008 3.18542 9.13594 3.29688 9.13594 3.42989V8.19656H13.9026C14.0356 8.19656 14.1471 8.24122 14.237 8.33053C14.327 8.41985 14.372 8.53047 14.372 8.66239C14.372 8.79444 14.327 8.90626 14.237 8.99787C14.1471 9.08959 14.0356 9.13545 13.9026 9.13545H9.13594V13.9021C9.13594 14.0351 9.09128 14.1466 9.00197 14.2365C8.91265 14.3265 8.80203 14.3716 8.6701 14.3716C8.53806 14.3716 8.42623 14.3265 8.33463 14.2365Z" fill="#45474D" stroke="#45474D" stroke-width="0.52"/>
</g>
</svg>
