<svg width="26" height="26" viewBox="0 0 26 26" fill="none" xmlns="http://www.w3.org/2000/svg">
<path fill-rule="evenodd" clip-rule="evenodd" d="M1.82812 10.1155C1.82812 6.4743 4.66896 3.49219 8.31843 3.49219C10.1724 3.49219 11.8268 4.26715 13 5.50939C14.1731 4.26715 15.8275 3.49219 17.6815 3.49219C21.3309 3.49219 24.1718 6.4743 24.1718 10.1155C24.1718 11.8396 23.5402 13.2913 22.5537 14.6388C21.5854 15.9615 20.2383 17.231 18.7587 18.5887L18.7542 18.5928L14.7753 22.1966C14.5914 22.3632 14.415 22.5231 14.2546 22.647C14.0785 22.783 13.8639 22.9227 13.5911 23.0051C13.2058 23.1215 12.7941 23.1215 12.4088 23.0051C12.136 22.9227 11.9214 22.783 11.7453 22.647C11.5849 22.5231 11.4085 22.3632 11.2246 22.1966L7.24577 18.5928L7.24124 18.5887C5.76158 17.231 4.41454 15.9615 3.44623 14.6388C2.45967 13.2913 1.82812 11.8396 1.82812 10.1155ZM8.31841 5.38436C5.79677 5.38436 3.74328 7.44859 3.74328 10.1153C3.74328 11.3349 4.17573 12.4064 4.99794 13.5295C5.83798 14.6769 7.04373 15.8248 8.54218 17.1997L12.928 21.1722C12.9687 21.2091 13.0312 21.2091 13.0718 21.1722L17.4577 17.1996C18.9562 15.8248 20.1619 14.6769 21.002 13.5295C21.8242 12.4064 22.2566 11.3349 22.2566 10.1153C22.2566 7.44859 20.2031 5.38436 17.6815 5.38436C16.0505 5.38436 14.6302 6.23937 13.8183 7.55958C13.6446 7.842 13.3344 8.01443 12.9999 8.01443C12.6655 8.01443 12.3553 7.842 12.1816 7.55958C11.3697 6.23937 9.94943 5.38436 8.31841 5.38436Z" fill="#5D6069"/>
</svg>
