<svg width="20" height="20" viewBox="0 0 20 20" fill="none" xmlns="http://www.w3.org/2000/svg">
<g clip-path="url(#clip0_4467_130364)">
<path d="M10.0011 11.429C11.9736 11.429 13.5725 9.83 13.5725 7.85756C13.5725 5.88512 11.9736 4.28613 10.0011 4.28613C8.02867 4.28613 6.42969 5.88512 6.42969 7.85756C6.42969 9.83 8.02867 11.429 10.0011 11.429Z" stroke="#5D6069" stroke-width="1.42857" stroke-linecap="round" stroke-linejoin="round"/>
<path d="M3.90039 16.9999C4.53788 15.9535 5.43383 15.0886 6.50212 14.4886C7.5704 13.8884 8.77509 13.5732 10.0004 13.5732C11.2257 13.5732 12.4304 13.8884 13.4987 14.4886C14.567 15.0886 15.4628 15.9535 16.1004 16.9999" stroke="#5D6069" stroke-width="1.42857" stroke-linecap="round" stroke-linejoin="round"/>
<path d="M10.0006 19.2853C15.129 19.2853 19.2863 15.128 19.2863 9.99958C19.2863 4.87122 15.129 0.713867 10.0006 0.713867C4.8722 0.713867 0.714844 4.87122 0.714844 9.99958C0.714844 15.128 4.8722 19.2853 10.0006 19.2853Z" stroke="#5D6069" stroke-width="1.42857" stroke-linecap="round" stroke-linejoin="round"/>
</g>
<defs>
<clipPath id="clip0_4467_130364">
<rect width="20" height="20" fill="white"/>
</clipPath>
</defs>
</svg>
