<svg width="20" height="20" viewBox="0 0 20 20" fill="none" xmlns="http://www.w3.org/2000/svg">
<path d="M8.57129 18.5713H11.4284" stroke="#5D6069" stroke-width="1.42857" stroke-linecap="round" stroke-linejoin="round"/>
<path d="M15.715 7.85686C15.715 6.34133 15.113 4.88789 14.0413 3.81625C12.9697 2.74462 11.5162 2.14258 10.0007 2.14258C8.48517 2.14258 7.03173 2.74462 5.96008 3.81625C4.88845 4.88789 4.28641 6.34133 4.28641 7.85686V12.8569C4.28641 13.4252 4.06064 13.9703 3.65878 14.3721C3.25693 14.774 2.71187 14.9997 2.14355 14.9997H17.8578C17.2896 14.9997 16.7444 14.774 16.3426 14.3721C15.9407 13.9703 15.715 13.4252 15.715 12.8569V7.85686Z" stroke="#5D6069" stroke-width="1.42857" stroke-linecap="round" stroke-linejoin="round"/>
<path d="M0.713867 7.67101C0.714637 6.31121 1.03892 4.97111 1.65992 3.7614C2.28092 2.55168 3.18082 1.50708 4.2853 0.713867" stroke="#5D6069" stroke-width="1.42857" stroke-linecap="round" stroke-linejoin="round"/>
<path d="M19.2853 7.67101C19.2846 6.31121 18.9603 4.97111 18.3393 3.7614C17.7183 2.55168 16.8183 1.50708 15.7139 0.713867" stroke="#5D6069" stroke-width="1.42857" stroke-linecap="round" stroke-linejoin="round"/>
</svg>
