<svg width="16" height="16" viewBox="0 0 16 16" fill="none" xmlns="http://www.w3.org/2000/svg">
<path d="M3.73333 10.0957C3.44679 10.0887 3.20917 10.0685 2.99373 10.0108C2.09649 9.77035 1.39567 9.06952 1.15525 8.17228C1.06622 7.84 1.06639 7.45494 1.06663 6.91904V6.74634C1.06639 6.21044 1.06622 5.82537 1.15525 5.49309C1.39567 4.59585 2.09649 3.89503 2.99373 3.65461C3.32601 3.56558 3.71108 3.56575 4.24697 3.56599L6.56641 3.56602L11.1157 2.00221C11.2194 1.96654 11.3316 1.92793 11.4299 1.90374C11.5365 1.8775 11.7017 1.84756 11.888 1.89305C12.1208 1.94987 12.3228 2.09402 12.4521 2.29564C12.5557 2.45705 12.5811 2.62303 12.591 2.73238C12.6001 2.83323 12.6 2.9519 12.6 3.06157V10.6038C12.6 10.7135 12.6001 10.8321 12.591 10.933C12.5811 11.0423 12.5557 11.2083 12.4521 11.3697C12.3228 11.5714 12.1208 11.7155 11.888 11.7723C11.7017 11.8178 11.5365 11.7879 11.4299 11.7616C11.3316 11.7374 11.2193 11.6988 11.1156 11.6632L7.26666 10.3401V12.666C7.26666 13.6417 6.4757 14.4327 5.49999 14.4327C4.52429 14.4327 3.73333 13.6417 3.73333 12.666V10.0957Z" fill="#C2C3C8"/>
<path d="M14.9333 4.99931C14.9333 4.66794 14.6647 4.39931 14.3333 4.39931C14.0019 4.39931 13.7333 4.66794 13.7333 4.99931V8.66597C13.7333 8.99734 14.0019 9.26597 14.3333 9.26597C14.6647 9.26597 14.9333 8.99734 14.9333 8.66597V4.99931Z" fill="#C2C3C8"/>
</svg>
