<svg viewBox="0 0 16 16" fill="none" xmlns="http://www.w3.org/2000/svg">
<mask id="mask0_1217_22928" style="mask-type:alpha" maskUnits="userSpaceOnUse" x="0" y="0" width="14" height="14">
<rect width="14" height="14" fill="#D9D9D9"/>
</mask>
<g mask="url(#mask0_1217_22928)">
<path d="M5.39953 4.59691L7.16869 2.28141C7.27614 2.13796 7.40281 2.03291 7.5487 1.96624C7.69469 1.89946 7.84931 1.86607 8.01253 1.86607C8.17564 1.86607 8.32814 1.90068 8.47003 1.96991C8.61192 2.03913 8.73758 2.14296 8.84703 2.28141L10.6162 4.59691L13.3392 5.49424C13.5692 5.57891 13.7468 5.7123 13.8719 5.89441C13.9971 6.07641 14.0597 6.27807 14.0597 6.49941C14.0597 6.60574 14.045 6.71102 14.0157 6.81524C13.9862 6.91935 13.9373 7.01963 13.8687 7.11607L12.1072 9.52374L12.1739 12.1341C12.1739 12.44 12.069 12.6996 11.8592 12.9129C11.6493 13.1261 11.3994 13.2327 11.1094 13.2327C11.1019 13.2327 11.008 13.2182 10.8277 13.1891L7.99953 12.3852L5.17036 13.1897C5.11547 13.2115 5.06731 13.2241 5.02586 13.2276C4.98442 13.231 4.94064 13.2327 4.89453 13.2327C4.60242 13.2327 4.34836 13.1261 4.13236 12.9129C3.91647 12.6996 3.81408 12.44 3.82519 12.1341L3.89186 9.52374L2.12386 7.11607C2.05464 7.01774 2.00553 6.92052 1.97653 6.82441C1.94742 6.7283 1.93286 6.62535 1.93286 6.51557C1.93286 6.28602 1.99864 6.0773 2.13019 5.88941C2.26164 5.70163 2.44586 5.5678 2.68286 5.48791L5.39953 4.59691ZM5.90086 5.34174L2.95336 6.32374C2.88925 6.34507 2.84547 6.38891 2.82203 6.45524C2.79847 6.52146 2.80808 6.58235 2.85086 6.63791L4.76319 9.27707L4.69186 12.1546C4.68753 12.2272 4.71314 12.2849 4.76869 12.3276C4.82425 12.3704 4.88625 12.3811 4.95469 12.3597L7.99953 11.4814L11.061 12.3431C11.1295 12.3644 11.1915 12.3537 11.247 12.3109C11.3026 12.2682 11.3282 12.2106 11.3239 12.1379L11.2342 9.25974L13.1482 6.62124C13.191 6.56568 13.2006 6.5048 13.177 6.43857C13.1536 6.37224 13.1098 6.32841 13.0457 6.30707L10.0815 5.34174L8.15986 2.85591C8.12131 2.80024 8.06786 2.77241 7.99953 2.77241C7.93119 2.77241 7.87775 2.80024 7.83919 2.85591L5.90086 5.34174Z" fill="#F7CF42"/>
<path d="M5.90086 5.34174L2.95336 6.32374C2.88925 6.34507 2.84547 6.38891 2.82203 6.45524C2.79847 6.52146 2.80808 6.58235 2.85086 6.63791L4.76319 9.27707L4.69186 12.1546C4.68753 12.2272 4.71314 12.2849 4.76869 12.3276C4.82425 12.3704 4.88625 12.3811 4.95469 12.3597L7.99953 11.4814L11.061 12.3431C11.1295 12.3644 11.1915 12.3537 11.247 12.3109C11.3026 12.2682 11.3282 12.2106 11.3239 12.1379L11.2342 9.25974L13.1482 6.62124C13.191 6.56568 13.2006 6.5048 13.177 6.43857C13.1536 6.37224 13.1098 6.32841 13.0457 6.30707L10.0815 5.34174L8.15986 2.85591C8.12131 2.80024 8.06786 2.77241 7.99953 2.77241C7.93119 2.77241 7.87775 2.80024 7.83919 2.85591L5.90086 5.34174Z" fill="#F7CF42"/>
</g>
</svg>
