<svg width="14" height="14" viewBox="0 0 14 14" fill="none" xmlns="http://www.w3.org/2000/svg">
<path fill-rule="evenodd" clip-rule="evenodd" d="M2.30291 5.59189L5.5926 2.30221C5.92589 1.96891 6.19848 1.69631 6.43811 1.49288C6.68615 1.28231 6.93321 1.11517 7.22516 1.02031C7.68208 0.87185 8.17427 0.871851 8.63119 1.02031C9.11243 1.17668 9.50256 1.5466 9.99443 2.03374C10.158 2.19573 10.1969 2.44539 10.0905 2.64951C9.90681 3.00176 9.96377 3.446 10.2586 3.74086C10.5535 4.03572 10.9977 4.09269 11.35 3.90899C11.5541 3.80255 11.8038 3.8415 11.9658 4.00506C12.4529 4.49693 12.8228 4.88706 12.9792 5.3683C13.1276 5.82522 13.1276 6.31741 12.9792 6.77433C12.8843 7.06628 12.7172 7.31334 12.5066 7.56138C12.3032 7.80101 12.0306 8.0736 11.6973 8.4069L8.4076 11.6966C8.0743 12.0299 7.80171 12.3025 7.56208 12.5059C7.31405 12.7165 7.06699 12.8836 6.77504 12.9785C6.31812 13.1269 5.82593 13.1269 5.36901 12.9785C4.88775 12.8221 4.49762 12.4522 4.00573 11.965C3.84218 11.803 3.80322 11.5534 3.90964 11.3493C4.09328 10.9971 4.0363 10.5529 3.74146 10.258C3.44663 9.96319 3.00243 9.90621 2.6502 10.0899C2.44608 10.1963 2.19645 10.1573 2.03447 9.99376C1.54732 9.50188 1.17738 9.11174 1.02101 8.63049C0.872553 8.17357 0.872552 7.68138 1.02101 7.22446C1.11588 6.93251 1.28301 6.68545 1.49358 6.43741C1.69701 6.19778 1.96961 5.92519 2.30291 5.59189ZM6.42338 3.94791C6.62841 3.74288 6.96082 3.74288 7.16585 3.94791L7.78456 4.56663C7.98959 4.77165 7.98959 5.10406 7.78456 5.30909C7.57954 5.51411 7.24713 5.51411 7.0421 5.30909L6.42338 4.69037C6.21836 4.48534 6.21836 4.15293 6.42338 3.94791ZM8.69137 6.2159C8.8964 6.01087 9.22881 6.01087 9.43383 6.2159L10.0526 6.83462C10.2576 7.03964 10.2576 7.37205 10.0526 7.57708C9.84753 7.78211 9.51511 7.7821 9.31009 7.57708L8.69137 6.95836C8.48635 6.75334 8.48635 6.42092 8.69137 6.2159Z" fill="#0F62FE"/>
</svg>
