<svg width="20" height="20" viewBox="0 0 20 20" fill="none" xmlns="http://www.w3.org/2000/svg">
<path fill-rule="evenodd" clip-rule="evenodd" d="M8.33306 1.75003C4.6972 1.75003 1.74976 4.69749 1.74976 8.33336C1.74976 11.9692 4.6972 14.9167 8.33306 14.9167C9.88081 14.9167 11.3038 14.3826 12.4278 13.4886L16.5528 17.6137C16.8457 17.9066 17.3206 17.9066 17.6135 17.6137C17.9064 17.3208 17.9064 16.8459 17.6135 16.553L13.4884 12.4279C14.3823 11.304 14.9164 9.88104 14.9164 8.33336C14.9164 4.69749 11.9689 1.75003 8.33306 1.75003ZM3.24975 8.33336C3.24975 5.52592 5.52563 3.25003 8.33306 3.25003C11.1405 3.25003 13.4164 5.52592 13.4164 8.33336C13.4164 11.1408 11.1405 13.4167 8.33306 13.4167C5.52563 13.4167 3.24975 11.1408 3.24975 8.33336Z" fill="#C2C3C8"/>
</svg>
