<svg viewBox="0 0 15 15" fill="none" xmlns="http://www.w3.org/2000/svg">
<path fill-rule="evenodd" clip-rule="evenodd" d="M5.87582 1.09375C5.87582 0.78309 5.62399 0.53125 5.31333 0.53125C5.00267 0.53125 4.75083 0.78309 4.75083 1.09375V1.78111H4.32259C3.99143 1.7811 3.70943 1.7811 3.47792 1.80001C3.23469 1.81988 2.99807 1.86341 2.77187 1.97866C2.43082 2.15244 2.15355 2.42971 1.97978 2.77076C1.86452 2.99696 1.821 3.23359 1.80113 3.47681C1.78221 3.70832 1.78222 3.99029 1.78223 4.32144V10.6782C1.78222 11.0094 1.78221 11.2914 1.80113 11.5229C1.821 11.7661 1.86452 12.0028 1.97978 12.229C2.15355 12.57 2.43082 12.8473 2.77187 13.0211C2.99807 13.1363 3.23469 13.1798 3.47792 13.1997C3.70942 13.2186 3.99139 13.2186 4.32253 13.2186H10.6793C11.0105 13.2186 11.2925 13.2186 11.524 13.1997C11.7672 13.1798 12.0038 13.1363 12.23 13.0211C12.5711 12.8473 12.8484 12.57 13.0221 12.229C13.1374 12.0028 13.1809 11.7661 13.2008 11.5229C13.2197 11.2914 13.2197 11.0094 13.2197 10.6783V4.32149C13.2197 3.99034 13.2197 3.70832 13.2008 3.47681C13.1809 3.23359 13.1374 2.99696 13.0221 2.77076C12.8484 2.42971 12.5711 2.15244 12.23 1.97866C12.0038 1.86341 11.7672 1.81988 11.524 1.80001C11.2925 1.7811 11.0105 1.7811 10.6793 1.78111H10.2508V1.09377C10.2508 0.783105 9.99897 0.531265 9.68831 0.531265C9.37765 0.531265 9.12581 0.783105 9.12581 1.09377V1.78111H5.87582V1.09375ZM9.12581 3.59377V2.90611H5.87582V3.59375C5.87582 3.90441 5.62399 4.15625 5.31333 4.15625C5.00267 4.15625 4.75083 3.90441 4.75083 3.59375V2.90611H4.09473C3.58563 2.90611 3.46449 2.91305 3.38229 2.93976C3.17299 3.00776 3.00889 3.17186 2.94089 3.38116C2.91418 3.46336 2.90724 3.58451 2.90724 4.09361V5.37485H12.0947V4.09361C12.0947 3.58451 12.0878 3.46336 12.0611 3.38116C11.993 3.17186 11.829 3.00776 11.6197 2.93976C11.5375 2.91305 11.4163 2.90611 10.9072 2.90611H10.2508V3.59377C10.2508 3.90443 9.99897 4.15627 9.68831 4.15627C9.37765 4.15627 9.12581 3.90443 9.12581 3.59377ZM12.0947 6.49985H2.90724V10.9061C2.90724 11.4152 2.91418 11.5364 2.94089 11.6186C3.00889 11.8279 3.17299 11.992 3.38229 12.06C3.46449 12.0867 3.58563 12.0936 4.09473 12.0936H10.9072C11.4163 12.0936 11.5375 12.0867 11.6197 12.06C11.829 11.992 11.993 11.8279 12.0611 11.6186C12.0878 11.5364 12.0947 11.4152 12.0947 10.9061V6.49985Z" fill="#C2C3C8"/>
<path d="M12.0947 6.49985H2.90724V10.9061C2.90724 11.4152 2.91418 11.5364 2.94089 11.6186C3.00889 11.8279 3.17299 11.992 3.38229 12.06C3.46449 12.0867 3.58563 12.0936 4.09473 12.0936H10.9072C11.4163 12.0936 11.5375 12.0867 11.6197 12.06C11.829 11.992 11.993 11.8279 12.0611 11.6186C12.0878 11.5364 12.0947 11.4152 12.0947 10.9061V6.49985Z" fill="#C2C3C8"/>
</svg>
