<svg width="27" height="22" viewBox="0 0 27 22" fill="none" xmlns="http://www.w3.org/2000/svg">
<g clip-path="url(#clip0_1216_612)">
<path d="M21.3711 19.6627C22.8324 17.1656 23.2787 14.0974 22.3865 11.1448C22.3865 11.1448 15.8828 16.4206 12.0227 14.3434" stroke="white" stroke-width="2.52307" stroke-linecap="round" stroke-linejoin="round"/>
<path d="M19.4828 6.44264C16.6433 3.76467 12.4391 2.73784 8.50869 4.13804C2.92627 6.12861 0.015754 12.2669 2.00491 17.8488C2.23434 18.4903 2.51681 19.0991 2.84982 19.6674L24.965 19.6753" stroke="white" stroke-width="2.52307" stroke-linecap="round" stroke-linejoin="round"/>
<path d="M5.21414 5.63875C4.05008 5.37821 3.32093 4.22383 3.57923 3.06222C3.84006 1.89809 4.99463 1.16865 6.15617 1.42666C7.32024 1.6872 8.04938 2.84158 7.79108 4.00319" stroke="white" stroke-width="2.52307" stroke-miterlimit="10"/>
</g>
<defs>
<clipPath id="clip0_1216_612">
<rect width="26.3377" height="21.0394" fill="white" transform="matrix(1 0.000358244 -0.000610266 1 0.0129395 0)"/>
</clipPath>
</defs>
</svg>
