<svg width="20" height="20" viewBox="0 0 20 20" fill="none" xmlns="http://www.w3.org/2000/svg">
<path fill-rule="evenodd" clip-rule="evenodd" d="M7.83337 1.45853C7.83337 1.04431 7.49759 0.708527 7.08338 0.708527C6.66917 0.708527 6.33338 1.04431 6.33338 1.45853V2.37501H5.7624C5.32085 2.375 4.94485 2.37499 4.63617 2.40021C4.31187 2.42671 3.99637 2.48473 3.69476 2.63841C3.24004 2.87011 2.87034 3.23981 2.63865 3.69453C2.48497 3.99615 2.42694 4.31164 2.40044 4.63594C2.37522 4.94462 2.37523 5.32058 2.37524 5.76211V14.2378C2.37523 14.6794 2.37522 15.0554 2.40044 15.3641C2.42694 15.6884 2.48497 16.0039 2.63865 16.3055C2.87034 16.7602 3.24004 17.1299 3.69476 17.3616C3.99637 17.5153 4.31187 17.5733 4.63617 17.5998C4.94484 17.625 5.3208 17.625 5.76232 17.625H14.238C14.6796 17.625 15.0556 17.625 15.3643 17.5998C15.6886 17.5733 16.0041 17.5153 16.3057 17.3616C16.7604 17.1299 17.1301 16.7602 17.3618 16.3055C17.5155 16.0039 17.5735 15.6884 17.6 15.3641C17.6252 15.0554 17.6252 14.6795 17.6252 14.2379V5.76217C17.6252 5.32065 17.6252 4.94462 17.6 4.63594C17.5735 4.31164 17.5155 3.99615 17.3618 3.69453C17.1301 3.23981 16.7604 2.87011 16.3057 2.63841C16.0041 2.48473 15.6886 2.42671 15.3643 2.40021C15.0556 2.37499 14.6796 2.375 14.2381 2.37501H13.6667V1.45855C13.6667 1.04433 13.3309 0.708547 12.9167 0.708547C12.5025 0.708547 12.1667 1.04433 12.1667 1.45855V2.37501H7.83337V1.45853ZM12.1667 4.79188V3.87501H7.83337V4.79186C7.83337 5.20607 7.49759 5.54186 7.08338 5.54186C6.66917 5.54186 6.33338 5.20607 6.33338 4.79186V3.87501H5.45859C4.77979 3.87501 4.61826 3.88426 4.50866 3.91987C4.22959 4.01055 4.0108 4.22934 3.92012 4.50841C3.88451 4.61801 3.87526 4.77954 3.87526 5.45834V7.16666H16.1252V5.45834C16.1252 4.77954 16.116 4.61801 16.0803 4.50841C15.9897 4.22934 15.7709 4.01055 15.4918 3.91987C15.3822 3.88426 15.2207 3.87501 14.5419 3.87501H13.6667V4.79188C13.6667 5.20609 13.3309 5.54188 12.9167 5.54188C12.5025 5.54188 12.1667 5.20609 12.1667 4.79188ZM16.1252 8.66666H3.87526V14.5417C3.87526 15.2205 3.88451 15.382 3.92012 15.4916C4.0108 15.7707 4.22959 15.9895 4.50866 16.0801C4.61826 16.1158 4.77979 16.125 5.45859 16.125H14.5419C15.2207 16.125 15.3822 16.1158 15.4918 16.0801C15.7709 15.9895 15.9897 15.7707 16.0803 15.4916C16.116 15.382 16.1252 15.2205 16.1252 14.5417V8.66666Z" fill="currentColor"/>
</svg>
