<svg width="24" height="24" viewBox="0 0 24 24" fill="none" xmlns="http://www.w3.org/2000/svg">
<path d="M10.7883 3.29784C11.4546 2.19072 13.0597 2.19072 13.7259 3.29784L15.5504 6.3295C15.7898 6.72724 16.1802 7.0109 16.6324 7.11564L20.0795 7.91398C21.3383 8.20553 21.8343 9.73205 20.9873 10.7078L18.6678 13.3799C18.3635 13.7304 18.2144 14.1894 18.2545 14.6518L18.5604 18.1769C18.6722 19.4642 17.3736 20.4077 16.1838 19.9036L12.9258 18.5233C12.4984 18.3423 12.0158 18.3423 11.5884 18.5233L8.33039 19.9036C7.14062 20.4077 5.84208 19.4642 5.9538 18.1769L6.25973 14.6518C6.29986 14.1894 6.15074 13.7304 5.84643 13.3799L3.52695 10.7078C2.67991 9.73205 3.1759 8.20553 4.43473 7.91398L7.8818 7.11564C8.33404 7.0109 8.72446 6.72724 8.96382 6.3295L10.7883 3.29784Z" fill="#F45C33"/>
</svg>
