<svg viewBox="0 0 84 84" fill="none" xmlns="http://www.w3.org/2000/svg">
<path d="M0 42C0 18.804 18.804 0 42 0C65.196 0 84 18.804 84 42C84 65.196 65.196 84 42 84C18.804 84 0 65.196 0 42Z" fill="#F0F0F1"/>
<path d="M42 0.5C64.9198 0.5 83.5 19.0802 83.5 42C83.5 64.9198 64.9198 83.5 42 83.5C19.0802 83.5 0.5 64.9198 0.5 42C0.5 19.0802 19.0802 0.5 42 0.5Z" stroke="#F0F0F1" stroke-opacity="0.6"/>
<g opacity="0.3" clip-path="url(#clip0_4431_126723)">
<path d="M54.9184 54.3381C54.4302 55.1724 54.7107 56.2443 55.5448 56.7322C56.379 57.2202 57.4509 56.9395 57.9391 56.1052L56.4287 55.2217L54.9184 54.3381ZM58.125 40.9916L59.8002 40.485C59.6316 39.9269 59.1961 39.4896 58.6388 39.3185C58.0815 39.1475 57.4756 39.2653 57.0228 39.6326L58.125 40.9916ZM41.6408 44.794C40.7898 44.336 39.7285 44.6547 39.2703 45.5058C38.8121 46.357 39.1306 47.4182 39.9816 47.8761L40.8112 46.335L41.6408 44.794ZM56.4287 55.2217L57.9391 56.1052C60.6165 51.5297 61.437 45.9016 59.8002 40.485L58.125 40.9916L56.4498 41.4981C57.7941 45.9466 57.1233 50.5701 54.9184 54.3381L56.4287 55.2217ZM58.125 40.9916C57.0228 39.6326 57.023 39.6324 57.0233 39.6322C57.0233 39.6322 57.0235 39.632 57.0235 39.632C57.0236 39.6319 57.0236 39.6319 57.0234 39.6321C57.0229 39.6325 57.0218 39.6334 57.0201 39.6348C57.0166 39.6376 57.0105 39.6424 57.002 39.6493C56.9849 39.6629 56.9577 39.6845 56.921 39.7133C56.8476 39.7709 56.7361 39.8574 56.5902 39.9678C56.298 40.1888 55.8692 40.5043 55.3332 40.874C54.2573 41.6161 52.7689 42.563 51.1011 43.401C49.4227 44.2442 47.6298 44.9428 45.9346 45.2406C44.2364 45.5389 42.7868 45.4107 41.6408 44.794L40.8112 46.335L39.9816 47.8761C42.0599 48.9946 44.3868 49.066 46.5394 48.6878C48.6952 48.309 50.8277 47.4548 52.6717 46.5284C54.5263 45.5966 56.1571 44.557 57.32 43.755C57.9034 43.3526 58.3737 43.0067 58.701 42.7591C58.8647 42.6353 58.9929 42.5359 59.0818 42.4661C59.1263 42.4312 59.1609 42.4037 59.1853 42.3842C59.1975 42.3745 59.2072 42.3667 59.2142 42.3611C59.2177 42.3583 59.2205 42.356 59.2227 42.3542C59.2238 42.3533 59.2248 42.3526 59.2255 42.3519C59.2259 42.3516 59.2263 42.3513 59.2265 42.3511C59.2269 42.3508 59.2273 42.3505 58.125 40.9916Z" fill="#A1A3AA"/>
<path d="M52.0732 34.4098C52.7763 35.0728 53.8838 35.0403 54.5471 34.3371C55.2103 33.6339 55.178 32.5263 54.475 31.8633L53.2741 33.1365L52.0732 34.4098ZM34.9407 29.2864L34.3538 27.6379L34.3533 27.6381L34.9407 29.2864ZM24.0754 52.1917L22.4269 52.7795L22.4276 52.7814L24.0754 52.1917ZM25.4869 55.2299L23.977 56.1149C24.2908 56.6505 24.865 56.9797 25.4859 56.9799L25.4869 55.2299ZM62.4317 56.9932C63.3982 56.9935 64.1821 56.2103 64.1827 55.2438C64.1833 54.2773 63.4003 53.4935 62.4338 53.4932L62.4327 55.2432L62.4317 56.9932ZM53.2741 33.1365L54.475 31.8633C49.2716 26.9558 41.5626 25.0698 34.3538 27.6379L34.9407 29.2864L35.5276 30.9349C41.4511 28.8247 47.7893 30.3695 52.0732 34.4098L53.2741 33.1365ZM34.9407 29.2864L34.3533 27.6381C24.1163 31.2884 18.7796 42.5446 22.4269 52.7795L24.0754 52.1917L25.7239 51.6039C22.725 43.1885 27.113 33.9354 35.5281 30.9348L34.9407 29.2864ZM24.0754 52.1917L22.4276 52.7814C22.846 53.9514 23.3633 55.0677 23.977 56.1149L25.4869 55.2299L26.9969 54.3449C26.4978 53.4932 26.0714 52.5756 25.7232 51.6021L24.0754 52.1917ZM25.4869 55.2299L25.4859 56.9799L62.4317 56.9932L62.4327 55.2432L62.4338 53.4932L25.488 53.4799L25.4869 55.2299Z" fill="#A1A3AA"/>
<path d="M26.7057 27.4893L24.9981 27.1071L24.9975 27.1098L26.7057 27.4893ZM31.0108 24.7569L31.3934 23.0491L31.3907 23.0485L31.0108 24.7569ZM29.437 31.7936L29.8197 30.0859C28.8204 29.8622 28.1913 28.8703 28.414 27.8687L26.7057 27.4893L24.9975 27.1098C24.3571 29.9894 26.1643 32.8545 29.0544 33.5014L29.437 31.7936ZM26.7057 27.4893L28.4134 27.8715C28.6373 26.8722 29.6294 26.2428 30.6309 26.4653L31.0108 24.7569L31.3907 23.0485C28.5112 22.4089 25.6457 24.2168 24.9981 27.1071L26.7057 27.4893ZM31.0108 24.7569L30.6282 26.4646C31.6274 26.6883 32.2565 27.6802 32.0338 28.6818L33.7421 29.0612L35.4504 29.4407C36.0907 26.5611 34.2836 23.696 31.3934 23.0491L31.0108 24.7569Z" fill="#A1A3AA"/>
</g>
<defs>
<clipPath id="clip0_4431_126723">
<rect width="44" height="35.1485" fill="white" transform="matrix(1 0.000358244 -0.000610266 1 20.748 22.373)"/>
</clipPath>
</defs>
</svg>
