<svg width="36" height="36" viewBox="0 0 36 36" fill="none" xmlns="http://www.w3.org/2000/svg">
<g opacity="0.8">
<g clip-path="url(#clip0_2869_27087)">
<g opacity="0.9">
<path opacity="0.21" d="M22.3594 0.5625C29.5822 0.5625 35.4375 6.41778 35.4375 13.6406V22.3594C35.4375 29.5822 29.5822 35.4375 22.3594 35.4375H13.6406C6.41778 35.4375 0.5625 29.5822 0.5625 22.3594V13.6406C0.5625 6.41778 6.41778 0.5625 13.6406 0.5625H22.3594Z" fill="#F1C21B"/>
<path fill-rule="evenodd" clip-rule="evenodd" d="M9.28125 14.6914L16.7797 19.0206C16.8604 19.0672 16.9451 19.1009 17.0312 19.1223V27.5186L9.81604 23.2486C9.48456 23.0524 9.28125 22.6959 9.28125 22.3107V14.6914ZM26.7195 14.5801V22.3144C26.7195 22.6996 26.5162 23.0562 26.1848 23.2524L18.9695 27.5223V19.0525C18.9871 19.0437 19.0045 19.0343 19.0218 19.0244L26.7195 14.5801Z" fill="#F1C21B"/>
<path opacity="0.499209" fill-rule="evenodd" clip-rule="evenodd" d="M9.51563 12.5936C9.60722 12.478 9.72282 12.3802 9.8576 12.3084L17.4865 8.24512C17.8068 8.07454 18.1909 8.07454 18.5112 8.24512L26.1401 12.3084C26.244 12.3638 26.3365 12.4345 26.4154 12.5171L18.0511 17.3462C17.9961 17.3779 17.9454 17.4143 17.8992 17.4544C17.853 17.4143 17.8022 17.3779 17.7473 17.3462L9.51563 12.5936Z" fill="#F1C21B"/>
</g>
</g>
</g>
<defs>
<clipPath id="clip0_2869_27087">
<rect width="36" height="36" rx="13.5" fill="white"/>
</clipPath>
</defs>
</svg>
