<svg width="20" height="20" viewBox="0 0 20 20" fill="none" xmlns="http://www.w3.org/2000/svg">
<path fill-rule="evenodd" clip-rule="evenodd" d="M7.83313 2.45898C7.83313 2.04477 7.49735 1.70898 7.08313 1.70898C6.66892 1.70898 6.33314 2.04477 6.33314 2.45898V3.37547H5.76215C5.32061 3.37546 4.94461 3.37545 4.63592 3.40067C4.31162 3.42716 3.99613 3.48519 3.69452 3.63887C3.2398 3.87056 2.8701 4.24027 2.6384 4.69499C2.48472 4.9966 2.4267 5.3121 2.4002 5.6364C2.37498 5.94508 2.37499 6.32104 2.375 6.76256V15.2383C2.37499 15.6798 2.37498 16.0559 2.4002 16.3645C2.4267 16.6888 2.48472 17.0043 2.6384 17.3059C2.8701 17.7607 3.2398 18.1304 3.69452 18.3621C3.99613 18.5157 4.31162 18.5738 4.63592 18.6003C4.9446 18.6255 5.32055 18.6255 5.76207 18.6255H14.2378C14.6793 18.6255 15.0554 18.6255 15.364 18.6003C15.6883 18.5738 16.0038 18.5157 16.3054 18.3621C16.7602 18.1304 17.1299 17.7607 17.3615 17.3059C17.5152 17.0043 17.5733 16.6888 17.5997 16.3645C17.625 16.0559 17.625 15.6799 17.6249 15.2384V6.76263C17.625 6.32111 17.625 5.94507 17.5997 5.6364C17.5733 5.3121 17.5152 4.9966 17.3615 4.69499C17.1299 4.24027 16.7602 3.87056 16.3054 3.63887C16.0038 3.48519 15.6883 3.42716 15.364 3.40067C15.0553 3.37545 14.6794 3.37546 14.2378 3.37547H13.6664V2.459C13.6664 2.04479 13.3307 1.709 12.9164 1.709C12.5022 1.709 12.1664 2.04479 12.1664 2.459V3.37547H7.83313V2.45898ZM12.1664 5.79234V4.87546H7.83313V5.79232C7.83313 6.20653 7.49735 6.54232 7.08313 6.54232C6.66892 6.54232 6.33314 6.20653 6.33314 5.79232V4.87546H5.45834C4.77954 4.87546 4.61801 4.88472 4.50841 4.92033C4.22935 5.011 4.01055 5.2298 3.91988 5.50887C3.88427 5.61847 3.87501 5.78 3.87501 6.4588V8.16711H16.125V6.4588C16.125 5.78 16.1157 5.61847 16.0801 5.50887C15.9894 5.2298 15.7706 5.011 15.4916 4.92033C15.382 4.88472 15.2204 4.87546 14.5416 4.87546H13.6664V5.79234C13.6664 6.20655 13.3307 6.54234 12.9164 6.54234C12.5022 6.54234 12.1664 6.20655 12.1664 5.79234ZM16.125 9.66711H3.87501V15.5421C3.87501 16.2209 3.88427 16.3825 3.91988 16.4921C4.01055 16.7711 4.22935 16.9899 4.50841 17.0806C4.61801 17.1162 4.77954 17.1255 5.45834 17.1255H14.5416C15.2204 17.1255 15.382 17.1162 15.4916 17.0806C15.7706 16.9899 15.9894 16.7711 16.0801 16.4921C16.1157 16.3825 16.125 16.2209 16.125 15.5421V9.66711Z" fill="#A1A3AA"/>
</svg>
