<svg viewBox="0 0 13 13" fill="none" xmlns="http://www.w3.org/2000/svg">
<path d="M4.47867 1.50968C4.52221 1.46615 4.58126 1.44169 4.64282 1.44169H8.35711C8.41867 1.44169 8.47772 1.46615 8.52126 1.50968C8.56479 1.55321 8.58925 1.61226 8.58925 1.67383V2.83455H9.98211V1.67383C9.98211 1.24285 9.81088 0.829526 9.50612 0.52478C9.20141 0.220033 8.78809 0.0488281 8.35711 0.0488281H4.64282C4.21184 0.0488281 3.79852 0.220033 3.49377 0.52478C3.18902 0.829526 3.01782 1.24285 3.01782 1.67383V2.83455H4.41068V1.67383C4.41068 1.61226 4.43514 1.55321 4.47867 1.50968Z" fill="#F1C21B"/>
<path opacity="0.7" d="M1.39286 2.78516C0.623603 2.78516 0 3.40876 0 4.17801V11.6066C0 12.3758 0.623603 12.9994 1.39286 12.9994H11.6071C12.3764 12.9994 13 12.3758 13 11.6066V4.17801C13 3.40876 12.3764 2.78516 11.6071 2.78516H1.39286Z" fill="#F7CF42"/>
<path fill-rule="evenodd" clip-rule="evenodd" d="M3.25028 5.52734C2.92975 5.52734 2.66992 5.78718 2.66992 6.1077C2.66992 6.42822 2.92975 6.68806 3.25028 6.68806H9.75028C10.0708 6.68806 10.3306 6.42822 10.3306 6.1077C10.3306 5.78718 10.0708 5.52734 9.75028 5.52734H3.25028ZM3.25028 9.09642C2.92975 9.09642 2.66992 9.35622 2.66992 9.67677C2.66992 9.99731 2.92975 10.2571 3.25028 10.2571H9.75028C10.0708 10.2571 10.3306 9.99731 10.3306 9.67677C10.3306 9.35622 10.0708 9.09642 9.75028 9.09642H3.25028Z" fill="#F1C21B"/>
</svg>
