<svg width="20" height="20" viewBox="0 0 20 20" fill="none" xmlns="http://www.w3.org/2000/svg">
<path d="M9.72947 8.18357V5.86473H7.41063V4.31884H9.72947V2H11.2754V4.31884H13.5942V5.86473H11.2754V8.18357H9.72947ZM5.54589 17.7778C5.24316 17.475 5.09179 17.1111 5.09179 16.686C5.09179 16.2609 5.24316 15.8969 5.54589 15.5942C5.84863 15.2915 6.21256 15.1401 6.63768 15.1401C7.0628 15.1401 7.42673 15.2915 7.72947 15.5942C8.03221 15.8969 8.18357 16.2609 8.18357 16.686C8.18357 17.1111 8.03221 17.475 7.72947 17.7778C7.42673 18.0805 7.0628 18.2319 6.63768 18.2319C6.21256 18.2319 5.84863 18.0805 5.54589 17.7778ZM13.2754 17.7778C12.9726 17.475 12.8213 17.1111 12.8213 16.686C12.8213 16.2609 12.9726 15.8969 13.2754 15.5942C13.5781 15.2915 13.942 15.1401 14.3671 15.1401C14.7923 15.1401 15.1562 15.2915 15.4589 15.5942C15.7617 15.8969 15.913 16.2609 15.913 16.686C15.913 17.1111 15.7617 17.475 15.4589 17.7778C15.1562 18.0805 14.7923 18.2319 14.3671 18.2319C13.942 18.2319 13.5781 18.0805 13.2754 17.7778ZM2 4.31884V2.77295H4.5314L7.81642 9.72947H13.2271L16.2415 4.31884H18L14.599 10.4638C14.4573 10.7214 14.2673 10.9211 14.029 11.0628C13.7907 11.2045 13.5298 11.2754 13.2464 11.2754H7.48792L6.63768 12.8213H15.913V14.3671H6.63768C6.05797 14.3671 5.61675 14.1159 5.31401 13.6135C5.01127 13.1111 5.00161 12.6023 5.28502 12.087L6.3285 10.1932L3.54589 4.31884H2Z" fill="#45474D"/>
</svg>
