<svg width="14" height="14" viewBox="0 0 14 14" fill="none" xmlns="http://www.w3.org/2000/svg">
<path d="M7.5829 4.66671C7.5829 4.98887 7.32173 5.25004 6.99957 5.25004C6.6774 5.25004 6.41624 4.98887 6.41624 4.66671C6.41624 4.34454 6.6774 4.08337 6.99957 4.08337C7.32173 4.08337 7.5829 4.34454 7.5829 4.66671Z" fill="#A1A3AA"/>
<path d="M7.52464 6.70837C7.52464 6.41843 7.28959 6.18337 6.99964 6.18337C6.70969 6.18337 6.47464 6.41843 6.47464 6.70837V9.33337C6.47464 9.62332 6.70969 9.85837 6.99964 9.85837C7.28959 9.85837 7.52464 9.62332 7.52464 9.33337V6.70837Z" fill="#A1A3AA"/>
<path fill-rule="evenodd" clip-rule="evenodd" d="M1.22461 7.0001C1.22461 3.81065 3.81015 1.2251 6.99958 1.2251C10.189 1.2251 12.7746 3.81065 12.7746 7.0001C12.7746 10.1895 10.189 12.7751 6.99958 12.7751C3.81015 12.7751 1.22461 10.1895 1.22461 7.0001ZM6.99958 2.2751C4.39005 2.2751 2.27461 4.39055 2.27461 7.0001C2.27461 9.60964 4.39005 11.7251 6.99958 11.7251C9.60911 11.7251 11.7246 9.60964 11.7246 7.0001C11.7246 4.39055 9.60911 2.2751 6.99958 2.2751Z" fill="#A1A3AA"/>
</svg>
