<svg width="24" height="24" viewBox="0 0 24 24" fill="none" xmlns="http://www.w3.org/2000/svg">
<path d="M8.85725 9.01577C8.85725 10.5587 7.60649 11.8094 6.0636 11.8094H5.36518C3.82229 11.8094 2.57153 10.5587 2.57153 9.01577C2.57153 7.78 2.7412 6.55008 3.07578 5.36046L3.43032 4.09986C3.542 3.7028 3.90413 3.42847 4.3166 3.42847H19.6836C20.0961 3.42847 20.4582 3.7028 20.5699 4.09986L20.9244 5.36046C21.259 6.55008 21.4287 7.78 21.4287 9.01577" stroke="#C2C3C8" stroke-width="1.28571" stroke-linecap="round"/>
<path d="M8.85742 8.6665C8.85742 10.4023 10.2645 11.8094 12.0003 11.8094C13.736 11.8094 15.1431 10.4023 15.1431 8.6665" stroke="#C2C3C8" stroke-width="1.28571" stroke-linecap="round"/>
<path d="M15.1431 8.6665C15.1431 10.4023 16.5502 11.8094 18.2859 11.8094C20.0217 11.8094 21.4288 10.4023 21.4288 8.6665" stroke="#C2C3C8" stroke-width="1.28571" stroke-linecap="round"/>
<path d="M4.66675 11.8096V18.0953C4.66675 19.2525 5.60482 20.1905 6.76199 20.1905H8.69849C9.17188 20.1905 9.55564 19.8068 9.55564 19.3334V16.7683C9.55564 15.4183 10.6501 14.3239 12.0001 14.3239C13.3501 14.3239 14.4445 15.4183 14.4445 16.7683V19.3334C14.4445 19.8068 14.8283 20.1905 15.3017 20.1905H17.2382C18.3953 20.1905 19.3334 19.2525 19.3334 18.0953V11.8096" stroke="#C2C3C8" stroke-width="1.28571"/>
</svg>
