<svg width="24" height="24" viewBox="0 0 24 24" fill="none" xmlns="http://www.w3.org/2000/svg">
<path d="M11.2998 3.60522C11.7342 2.884 12.7806 2.88387 13.2148 3.60522L15.0391 6.63745C15.3618 7.1736 15.8884 7.55583 16.498 7.69702L19.9443 8.49585C20.7648 8.68587 21.0882 9.68016 20.5361 10.3162L18.2168 12.989C17.8068 13.4616 17.6061 14.0805 17.6602 14.7039L17.9658 18.2283C18.0386 19.0672 17.1924 19.6824 16.417 19.3542L13.1592 17.9734C12.5829 17.7293 11.9317 17.7293 11.3555 17.9734L8.09766 19.3542C7.32218 19.6828 6.47601 19.0673 6.54883 18.2283L6.85449 14.7039C6.9086 14.0804 6.70708 13.4616 6.29688 12.989L3.97754 10.3162C3.42585 9.68018 3.74909 8.68593 4.56934 8.49585L8.0166 7.69702C8.62625 7.55578 9.1529 7.17364 9.47559 6.63745L11.2998 3.60522Z" stroke="#C2C3C8" stroke-width="1.19388"/>
</svg>
