<svg width="17" height="17" viewBox="0 0 17 17" fill="none" xmlns="http://www.w3.org/2000/svg">
<path d="M6.78147 12.0291L13.2293 6.78926L12.1888 5.50883L7.02135 9.70817L4.90311 7.10159L3.62268 8.14213L6.78147 12.0291ZM7.47933 16.6252C6.33266 16.5067 5.27755 16.1778 4.31401 15.6383C3.35048 15.0989 2.53425 14.4176 1.86532 13.5945C1.1964 12.7714 0.69647 11.8331 0.365523 10.7796C0.0345754 9.72609 -0.0716415 8.626 0.0468719 7.47933C0.165385 6.33266 0.49435 5.27756 1.03377 4.31402C1.57318 3.35048 2.25446 2.53425 3.07759 1.86533C3.90072 1.19641 4.83903 0.696476 5.89253 0.365529C6.94602 0.0345817 8.0461 -0.0716352 9.19277 0.0468781C10.3394 0.165391 11.3945 0.494356 12.3581 1.03377C13.3216 1.57319 14.1379 2.25446 14.8068 3.07759C15.4757 3.90073 15.9756 4.83904 16.3066 5.89253C16.6375 6.94603 16.7437 8.04611 16.6252 9.19278C16.5067 10.3394 16.1777 11.3946 15.6383 12.3581C15.0989 13.3216 14.4176 14.1379 13.5945 14.8068C12.7714 15.4757 11.8331 15.9756 10.7796 16.3066C9.72608 16.6375 8.626 16.7437 7.47933 16.6252Z" fill="#1ED45A"/>
</svg>
