<svg viewBox="0 0 40 40" fill="none" xmlns="http://www.w3.org/2000/svg">
<path fill-rule="evenodd" clip-rule="evenodd" d="M3.49994 20C3.49994 10.8873 10.8872 3.5 19.9999 3.5C29.1125 3.5 36.4998 10.8873 36.4998 20C36.4998 29.1127 29.1125 36.5 19.9999 36.5C10.8872 36.5 3.49994 29.1127 3.49994 20ZM20 11.8332C20.8285 11.8332 21.5 12.5047 21.5 13.3332V20.8332C21.5 21.6616 20.8285 22.3332 20 22.3332C19.1716 22.3332 18.5 21.6616 18.5 20.8332V13.3332C18.5 12.5047 19.1716 11.8332 20 11.8332ZM21.6665 26.6665C21.6665 27.587 20.9203 28.3332 19.9998 28.3332C19.0794 28.3332 18.3332 27.587 18.3332 26.6665C18.3332 25.746 19.0794 24.9998 19.9998 24.9998C20.9203 24.9998 21.6665 25.746 21.6665 26.6665Z" fill="#E52222"/>
</svg>
