<svg width="32" height="25" viewBox="0 0 32 25" fill="none" xmlns="http://www.w3.org/2000/svg">
<g clip-path="url(#clip0_1_1808)">
<path d="M25.3636 22.4296C27.0305 19.5811 27.5396 16.0811 26.5219 12.7131C26.5219 12.7131 19.103 18.7313 14.6997 16.3617" stroke="#F45C33" stroke-width="2.8" stroke-linecap="round" stroke-linejoin="round"/>
<path d="M23.2095 7.34909C19.9705 4.29428 15.1746 3.12295 10.6911 4.72019C4.32317 6.99087 1.00308 13.9929 3.27215 20.3603C3.53386 21.0921 3.85609 21.7865 4.23596 22.4348L29.4632 22.4439" stroke="#F45C33" stroke-width="2.8" stroke-linecap="round" stroke-linejoin="round"/>
<path d="M6.93321 6.43235C5.60534 6.13516 4.77359 4.81833 5.06824 3.49326C5.36578 2.16532 6.68281 1.33324 8.00781 1.62755C9.33568 1.92475 10.1674 3.24158 9.87277 4.56664" stroke="#F45C33" stroke-width="2.8" stroke-miterlimit="10"/>
</g>
<defs>
<clipPath id="clip0_1_1808">
<rect width="30.0439" height="24" fill="white" transform="matrix(1 0.000358244 -0.000610266 1 1 0)"/>
</clipPath>
</defs>
</svg>
