<svg width="25" height="25" viewBox="0 0 25 25" fill="none" xmlns="http://www.w3.org/2000/svg">
<path fill-rule="evenodd" clip-rule="evenodd" d="M12.4999 2.1875C10.182 2.1875 8.27639 3.00812 6.9665 4.55659C5.6747 6.08369 5.05206 8.21156 5.05206 10.6771L5.05206 11.4583C5.05206 14.0262 4.34036 15.5467 3.3267 16.5293C2.92926 16.9145 2.888 17.4477 3.03007 17.8399C3.17455 18.2388 3.57049 18.6458 4.16618 18.6458H20.8337C21.4294 18.6458 21.8253 18.2388 21.9698 17.8399C22.1119 17.4477 22.0706 16.9145 21.6732 16.5293C20.6595 15.5467 19.9478 14.0262 19.9478 11.4583L19.9478 10.6771C19.9478 8.21156 19.3252 6.08369 18.0334 4.55659C16.7235 3.00812 14.8179 2.1875 12.4999 2.1875ZM6.92705 10.6771C6.92705 8.50533 7.47628 6.85716 8.39801 5.76754C9.30166 4.69929 10.6512 4.0625 12.4999 4.0625C14.3487 4.0625 15.6982 4.69929 16.6019 5.76754C17.5236 6.85716 18.0728 8.50533 18.0728 10.6771L18.0728 11.4583C18.0728 13.7112 18.5605 15.445 19.4465 16.7708H5.55339C6.43941 15.445 6.92705 13.7112 6.92705 11.4583L6.92705 10.6771Z" fill="white"/>
<path d="M10.4166 20.9373C9.89886 20.9373 9.47913 21.3571 9.47913 21.8748C9.47913 22.3926 9.89886 22.8123 10.4166 22.8123H14.5833C15.101 22.8123 15.5208 22.3926 15.5208 21.8748C15.5208 21.3571 15.101 20.9373 14.5833 20.9373H10.4166Z" fill="white"/>
</svg>
