<svg width="24" height="24" viewBox="0 0 24 24" fill="none" xmlns="http://www.w3.org/2000/svg">
<g clip-path="url(#clip0_1127_22514)">
<mask id="mask0_1127_22514" style="mask-type:alpha" maskUnits="userSpaceOnUse" x="0" y="0" width="24" height="24">
<rect width="24" height="24" fill="#D9D9D9"/>
</mask>
<g mask="url(#mask0_1127_22514)">
<path d="M12.0005 19.999C9.76715 19.999 7.87549 19.224 6.32549 17.674C4.77549 16.124 4.00049 14.2324 4.00049 11.999C4.00049 9.76569 4.77549 7.87402 6.32549 6.32402C7.87549 4.77402 9.76715 3.99902 12.0005 3.99902C13.1505 3.99902 14.2505 4.23652 15.3005 4.71152C16.3505 5.18652 17.2505 5.86569 18.0005 6.74902V3.99902H20.0005V10.999H13.0005V8.99902H17.2005C16.6672 8.06569 15.938 7.33236 15.013 6.79902C14.088 6.26569 13.0838 5.99902 12.0005 5.99902C10.3338 5.99902 8.91716 6.58236 7.75049 7.74902C6.58382 8.91569 6.00049 10.3324 6.00049 11.999C6.00049 13.6657 6.58382 15.0824 7.75049 16.249C8.91716 17.4157 10.3338 17.999 12.0005 17.999C13.2838 17.999 14.4422 17.6324 15.4755 16.899C16.5088 16.1657 17.2338 15.199 17.6505 13.999H19.7505C19.2838 15.7657 18.3338 17.2074 16.9005 18.324C15.4672 19.4407 13.8338 19.999 12.0005 19.999Z" fill="#F45C33"/>
</g>
</g>
<defs>
<clipPath id="clip0_1127_22514">
<rect width="24" height="24" fill="white"/>
</clipPath>
</defs>
</svg>
