<svg width="24" height="24" viewBox="0 0 24 24" fill="none" xmlns="http://www.w3.org/2000/svg">
<path d="M4.45703 18.0734V7.19995H19.5427V18.0734C19.5427 19.2636 18.5779 20.2285 17.3876 20.2285H15.3958C14.9089 20.2285 14.5142 19.8338 14.5142 19.3469V17.5657C14.5142 16.1771 13.3885 15.0514 11.9999 15.0514C10.6113 15.0514 9.4856 16.1771 9.4856 17.5657V19.3469C9.4856 19.8338 9.09088 20.2285 8.60397 20.2285H6.61213C5.4219 20.2285 4.45703 19.2636 4.45703 18.0734Z" fill="#F45C33"/>
<circle cx="6.0001" cy="9.42857" r="3.42857" fill="#F45C33"/>
<circle cx="12.0001" cy="8.57163" r="3.98571" fill="#F45C33" stroke="white" stroke-width="1.11429"/>
<circle cx="18.0001" cy="8.57163" r="3.98571" fill="#F45C33" stroke="white" stroke-width="1.11429"/>
<circle cx="6.0001" cy="8.57163" r="3.98571" fill="#F45C33" stroke="white" stroke-width="1.11429"/>
<circle cx="12.0001" cy="8.57163" r="3.42857" fill="#F45C33"/>
<circle cx="18.0001" cy="8.57163" r="3.42857" fill="#F45C33"/>
<path d="M3.25217 4.33621C3.35467 3.80905 3.81639 3.42847 4.35342 3.42847H19.6468C20.1838 3.42847 20.6455 3.80905 20.748 4.33621L21.2884 7.11544C21.3817 7.59512 21.4287 8.08265 21.4287 8.57132H2.57153C2.57153 8.08265 2.61849 7.59512 2.71176 7.11544L3.25217 4.33621Z" fill="#F45C33"/>
</svg>
