<svg viewBox="0 0 16 16" fill="none" xmlns="http://www.w3.org/2000/svg">
<path d="M5.45441 10.5479C7.66036 12.7538 9.88282 13.569 11.3388 13.864C12.5474 14.1088 13.6607 13.561 14.4367 12.785L14.6181 12.6036C15.4628 11.7589 15.3469 10.3577 14.3747 9.66334L13.045 8.71354C12.4085 8.25893 11.5367 8.33109 10.9836 8.88415L10.4309 9.43688C10.0269 9.26898 9.21428 8.83946 8.18855 7.81373C7.16283 6.788 6.7333 5.97536 6.5654 5.57137L7.11814 5.01863C7.6712 4.46557 7.74335 3.59373 7.28874 2.95728L6.33894 1.62755C5.64455 0.6554 4.24343 0.53944 3.39866 1.38421L3.21733 1.56554C2.44129 2.34159 1.89351 3.45489 2.13834 4.66346C2.43328 6.11945 3.24846 8.34192 5.45441 10.5479Z" fill="#C2C3C8"/>
</svg>
