<svg viewBox="0 0 13 13" fill="none" xmlns="http://www.w3.org/2000/svg">
<path opacity="0.7" d="M0 3.99946C0 3.24122 0.722345 2.78711 1.39286 2.78711H11.6071C12.2777 2.78711 13 3.24122 13 3.99946V5.31508C13 5.89783 12.5733 6.30094 12.0714 6.45632V11.6085C12.0714 11.9779 11.9247 12.3323 11.6635 12.5935C11.4023 12.8547 11.048 13.0014 10.6786 13.0014H2.32143C1.95201 13.0014 1.59774 12.8547 1.33653 12.5935C1.07532 12.3323 0.928571 11.9779 0.928571 11.6085V6.45632C0.426676 6.30094 0 5.89783 0 5.31508V3.99946Z" fill="#F7CF42"/>
<path fill-rule="evenodd" clip-rule="evenodd" d="M3.36246 0.798182C3.56843 0.473354 3.99873 0.377001 4.32356 0.582973L6.49967 1.96283L8.67579 0.582973C9.00062 0.377001 9.43087 0.473354 9.63692 0.798182C9.84288 1.12301 9.74649 1.55331 9.42168 1.75928L7.08001 3.24412V6.45773H12.0711V7.61845H7.08001V13.0018H5.91929V7.61845H0.928223V6.45773H5.91929V3.24409L3.57767 1.75928C3.25284 1.55331 3.15649 1.12301 3.36246 0.798182Z" fill="#F1C21B"/>
</svg>
