<svg viewBox="0 0 16 16" fill="none" xmlns="http://www.w3.org/2000/svg">
<path d="M5.46667 4.73076L7.23583 2.41526C7.34328 2.27182 7.46994 2.16676 7.61583 2.1001C7.75795 2.03509 7.90823 2.00173 8.06667 2V2.90626V11.6153V12.5191L5.2375 13.3236C5.18261 13.3454 5.13444 13.358 5.093 13.3614C5.05156 13.3649 5.00778 13.3666 4.96167 13.3666C4.66956 13.3666 4.4155 13.26 4.1995 13.0468C3.98361 12.8334 3.88122 12.5738 3.89233 12.2679L3.959 9.6576L2.191 7.24993C2.12178 7.1516 2.07267 7.05437 2.04367 6.95826C2.01456 6.86215 2 6.75921 2 6.64943C2 6.41987 2.06578 6.21115 2.19733 6.02326C2.32878 5.83549 2.513 5.70165 2.75 5.62176L5.46667 4.73076Z" fill="#F7CF42"/>
<path d="M10.5997 4.73076L8.83057 2.41526C8.72313 2.27182 8.59646 2.16676 8.45057 2.1001C8.30845 2.03509 8.15818 2.00173 7.99974 2V2.90626V11.6153V12.5191L10.8289 13.3236C10.8838 13.3454 10.932 13.358 10.9734 13.3614C11.0149 13.3649 11.0586 13.3666 11.1047 13.3666C11.3969 13.3666 11.6509 13.26 11.8669 13.0468C12.0828 12.8334 12.1852 12.5738 12.1741 12.2679L12.1074 9.6576L13.8754 7.24993C13.9446 7.1516 13.9937 7.05437 14.0227 6.95826C14.0519 6.86215 14.0664 6.75921 14.0664 6.64943C14.0664 6.41987 14.0006 6.21115 13.8691 6.02326C13.7376 5.83549 13.5534 5.70165 13.3164 5.62176L10.5997 4.73076Z" fill="#A1A3AA"/>
</svg>
