<svg width="24" height="24" viewBox="0 0 24 24" fill="none" xmlns="http://www.w3.org/2000/svg">
<path d="M15.0002 2.35718C15.9074 2.35729 16.6427 3.09261 16.6428 3.99976V4.00073H18.0002L18.2043 4.01147C19.2128 4.11393 20.0002 4.96522 20.0002 6.00073V19.0007L19.9895 19.2048C19.8937 20.1459 19.1455 20.8944 18.2043 20.99L18.0002 21.0007H6.00024L5.79614 20.99C4.85487 20.8946 4.10681 20.146 4.01099 19.2048L4.00024 19.0007V6.00073C4.00024 4.89617 4.89569 4.00075 6.00024 4.00073H7.35767V3.99976C7.3578 3.09254 8.093 2.35718 9.00024 2.35718H15.0002ZM6.00024 5.28687C5.60577 5.28688 5.28638 5.60626 5.28638 6.00073V19.0007C5.28682 19.3948 5.60604 19.7146 6.00024 19.7146H18.0002C18.3943 19.7144 18.7137 19.3947 18.7141 19.0007V6.00073C18.7141 5.60637 18.3946 5.28706 18.0002 5.28687H16.6428V5.99976C16.6428 6.90701 15.9075 7.64222 15.0002 7.64233H9.00024C8.09292 7.64233 7.35767 6.90708 7.35767 5.99976V5.28687H6.00024ZM9.00024 3.64233C8.80308 3.64233 8.64295 3.80262 8.64282 3.99976V5.99976C8.64282 6.197 8.803 6.35718 9.00024 6.35718H15.0002C15.1974 6.35706 15.3577 6.19693 15.3577 5.99976V3.99976C15.3575 3.80269 15.1973 3.64245 15.0002 3.64233H9.00024Z" fill="#C2C3C8"/>
<path d="M8 11H14" stroke="#C2C3C8" stroke-width="1.28571" stroke-linecap="round"/>
<path d="M8 14H12" stroke="#C2C3C8" stroke-width="1.28571" stroke-linecap="round"/>
</svg>
