<svg width="36" height="36" viewBox="0 0 36 36" fill="none" xmlns="http://www.w3.org/2000/svg">
<g opacity="0.6">
<path opacity="0.21" d="M22.2002 0C29.8216 0.000106558 35.9999 6.17843 36 13.7998V22.2002C35.9999 29.8216 29.8216 35.9999 22.2002 36H13.7998C6.17843 35.9999 0.000105985 29.8216 0 22.2002V13.7998C0.000106565 6.17843 6.17843 0.000105978 13.7998 0H22.2002Z" fill="#78A9FF"/>
<path opacity="0.587821" d="M22.8008 14.7988C24.1261 14.799 25.2002 15.8739 25.2002 17.1992C25.2 18.5244 24.126 19.5984 22.8008 19.5986C21.4754 19.5986 20.4006 18.5245 20.4004 17.1992C20.4004 15.8737 21.4753 14.7988 22.8008 14.7988ZM15.6006 10.7969C17.3678 10.797 18.8008 12.2298 18.8008 13.9971C18.8007 15.7642 17.3677 17.1972 15.6006 17.1973C13.8333 17.1973 12.4005 15.7643 12.4004 13.9971C12.4004 12.2298 13.8333 10.7969 15.6006 10.7969Z" fill="#78A9FF"/>
<path d="M15.5874 18.8047C19.4176 18.8047 22.5648 20.6392 22.7993 24.5645C22.8087 24.7208 22.7987 25.2051 22.1978 25.2051H8.98291C8.7824 25.2051 8.38546 24.7726 8.40186 24.5645C8.71194 20.7464 11.8103 18.8047 15.5874 18.8047ZM22.481 20.4043C25.2065 20.4339 27.4317 21.8105 27.5991 24.7227C27.6058 24.8402 27.5991 25.2021 27.1655 25.2021H24.0796C24.0794 23.402 23.4847 21.741 22.481 20.4043Z" fill="#78A9FF"/>
</g>
</svg>
