<svg viewBox="0 0 16 16" fill="none" xmlns="http://www.w3.org/2000/svg">
<path d="M3.24239 3.24231C3.4767 3.008 3.8566 3.008 4.09091 3.24231L7.99997 7.15138L11.909 3.24231C12.1433 3.008 12.5232 3.008 12.7576 3.24231C12.9919 3.47662 12.9919 3.85652 12.7576 4.09084L8.84849 7.99991L12.7576 11.909C12.9919 12.1433 12.9919 12.5232 12.7576 12.7575C12.5232 12.9918 12.1433 12.9918 11.909 12.7575L7.99997 8.84844L4.09091 12.7575C3.8566 12.9918 3.4767 12.9918 3.24239 12.7575C3.00807 12.5232 3.00807 12.1433 3.24239 11.909L7.15144 7.99991L3.24239 4.09084C3.00807 3.85652 3.00807 3.47662 3.24239 3.24231Z" fill="currentColor"/>
</svg>
