<svg viewBox="0 0 13 13" fill="none" xmlns="http://www.w3.org/2000/svg">
<g clip-path="url(#clip0_5972_26001)">
<path fill-rule="evenodd" clip-rule="evenodd" d="M6.35624 1.39286C5.92526 1.39286 5.51193 1.56406 5.20719 1.86881C4.90244 2.17355 4.73124 2.58688 4.73124 3.01786V4.41071C4.73124 4.79534 4.41943 5.10714 4.03481 5.10714C3.65017 5.10714 3.33838 4.79534 3.33838 4.41071V3.01786C3.33838 2.21748 3.65633 1.44987 4.22229 0.88391C4.78824 0.317952 5.55584 0 6.35624 0C7.15662 0 7.92422 0.317952 8.49018 0.88391C9.05618 1.44987 9.37412 2.21748 9.37412 3.01786V4.41071C9.37412 4.79534 9.06231 5.10714 8.67766 5.10714C8.29303 5.10714 7.98124 4.79534 7.98124 4.41071V3.01786C7.98124 2.58688 7.81003 2.17355 7.50528 1.86881C7.20054 1.56406 6.78721 1.39286 6.35624 1.39286Z" fill="#F1C21B"/>
<path opacity="0.7" d="M1.71307 3.63281C1.47656 3.63281 1.27786 3.81059 1.25164 4.04564L0.46504 11.0982C0.462923 11.1172 0.460045 11.1393 0.456832 11.164C0.437155 11.315 0.404702 11.5642 0.45491 11.8044C0.561018 12.3121 0.94813 12.7288 1.45116 12.8686C1.67817 12.9317 1.93618 12.9246 2.09331 12.9203C2.12612 12.9193 2.15454 12.9185 2.17735 12.9185H10.5345C10.5573 12.9185 10.5857 12.9193 10.6186 12.9203C10.7757 12.9246 11.0337 12.9317 11.2607 12.8686C11.7638 12.7288 12.1508 12.312 12.2569 11.8044C12.3072 11.5642 12.2747 11.315 12.255 11.164C12.2518 11.1393 12.2489 11.1172 12.2468 11.0982L11.4602 4.04564C11.434 3.81059 11.2353 3.63281 10.9988 3.63281H1.71307Z" fill="#F7CF42"/>
</g>
<defs>
<clipPath id="clip0_5972_26001">
<rect width="13" height="13" fill="white"/>
</clipPath>
</defs>
</svg>
