<svg viewBox="0 0 16 16" fill="none" xmlns="http://www.w3.org/2000/svg">
<path d="M4.45847 2.91629C5.2968 1.92526 6.51639 1.40007 7.99988 1.40007C9.48337 1.40007 10.703 1.92526 11.5413 2.91629C12.368 3.89363 12.7665 5.25547 12.7665 6.8334L12.7665 7.3334C12.7665 8.97683 13.222 9.94994 13.8708 10.5788C14.1251 10.8254 14.1515 11.1666 14.0606 11.4176C13.9681 11.6729 13.7147 11.9334 13.3335 11.9334H2.66627C2.28503 11.9334 2.03162 11.6729 1.93916 11.4176C1.84823 11.1666 1.87464 10.8254 2.129 10.5788C2.77774 9.94994 3.23323 8.97683 3.23323 7.3334L3.23323 6.8334C3.23323 5.25547 3.63172 3.89363 4.45847 2.91629Z" fill="#F45C33"/>
<path d="M6.06656 14C6.06656 13.6686 6.33518 13.4 6.66655 13.4H9.33321C9.66458 13.4 9.93321 13.6686 9.93321 14C9.93321 14.3313 9.66458 14.6 9.33321 14.6H6.66655C6.33518 14.6 6.06656 14.3313 6.06656 14Z" fill="#F45C33"/>
</svg>
