<svg width="24" height="24" viewBox="0 0 24 24" fill="none" xmlns="http://www.w3.org/2000/svg">
<path d="M11.7871 2.95703C11.9134 2.8635 12.0866 2.8635 12.2129 2.95703L20.2129 8.88379C20.3036 8.95116 20.3574 9.05789 20.3574 9.1709V21C20.3574 21.1972 20.1972 21.3574 20 21.3574H15.25C15.0528 21.3574 14.8926 21.1972 14.8926 21V17.583C14.8924 15.9855 13.5976 14.6904 12 14.6904C10.4024 14.6904 9.10758 15.9855 9.10742 17.583V21C9.10742 21.1972 8.94724 21.3574 8.75 21.3574H4C3.80275 21.3574 3.64258 21.1972 3.64258 21V9.1709C3.64258 9.05789 3.6964 8.95116 3.78711 8.88379L11.7871 2.95703Z" stroke="#C2C3C8" stroke-width="1.28571"/>
</svg>
