<svg viewBox="0 0 13 11" fill="none" xmlns="http://www.w3.org/2000/svg">
<g clip-path="url(#clip0_5972_18255)">
<path opacity="0.7" d="M1.3907 10.8333C0.622638 10.8333 0 10.1719 0 9.35606V7.35718C0 7.13329 0.142189 6.93758 0.34608 6.88083C0.95771 6.71061 1.4084 6.11892 1.4084 5.41667C1.4084 4.71441 0.95771 4.12272 0.346079 3.9525C0.142189 3.89576 0 3.70005 0 3.47615V1.47727C0 0.661395 0.62264 0 1.3907 0H11.6093C12.3774 0 13 0.661395 13 1.47727V3.48048C13 3.70282 12.8597 3.89759 12.6577 3.95575C12.0519 4.13017 11.6069 4.71884 11.6069 5.41667C11.6069 6.11449 12.0519 6.70316 12.6577 6.87758C12.8597 6.93575 13 7.13051 13 7.35285V9.35606C13 10.1719 12.3774 10.8333 11.6093 10.8333H1.3907Z" fill="#F7CF42"/>
<path fill-rule="evenodd" clip-rule="evenodd" d="M9.65169 3.22701L4.33174 8.54695C4.07205 8.80663 3.65099 8.80663 3.39131 8.54695C3.13161 8.28725 3.13161 7.86621 3.39131 7.60651L8.71125 2.28657C8.97094 2.02687 9.39199 2.02687 9.65169 2.28657C9.91135 2.54627 9.91135 2.96731 9.65169 3.22701ZM4.39352 2.2248C3.80589 2.2248 3.32953 2.70116 3.32953 3.28878C3.32953 3.8764 3.80589 4.35277 4.39352 4.35277C4.98114 4.35277 5.45751 3.8764 5.45751 3.28878C5.45751 2.70116 4.98114 2.2248 4.39352 2.2248ZM8.64947 6.48075C8.06184 6.48075 7.58548 6.95712 7.58548 7.54474C7.58548 8.13236 8.06184 8.60872 8.64947 8.60872C9.23709 8.60872 9.71345 8.13236 9.71345 7.54474C9.71345 6.95712 9.23709 6.48075 8.64947 6.48075Z" fill="#F1C21B"/>
</g>
<defs>
<clipPath id="clip0_5972_18255">
<rect width="13" height="10.8333" fill="white"/>
</clipPath>
</defs>
</svg>
