<svg width="16" height="16" viewBox="0 0 16 16" fill="none" xmlns="http://www.w3.org/2000/svg">
<g clip-path="url(#clip0_409_36206)">
<mask id="mask0_409_36206" style="mask-type:alpha" maskUnits="userSpaceOnUse" x="-1" y="-1" width="18" height="18">
<rect x="-0.05" y="-0.05" width="16.1" height="16.1" fill="#D9D9D9" stroke="black" stroke-width="0.1"/>
</mask>
<g mask="url(#mask0_409_36206)">
<path d="M11.5356 8.89062C12.1386 8.89062 12.6539 9.10355 13.0786 9.52832C13.5035 9.95307 13.7173 10.4683 13.7173 11.0713C13.7173 11.6741 13.5035 12.1894 13.0786 12.6143C12.6539 13.0389 12.1385 13.252 11.5356 13.252C10.9329 13.2519 10.4175 13.0389 9.99268 12.6143C9.56803 12.1894 9.355 11.6741 9.35498 11.0713C9.35498 10.4684 9.56807 9.95303 9.99268 9.52832C10.4175 9.10354 10.9329 8.89071 11.5356 8.89062ZM11.5347 9.85742C11.1984 9.85742 10.913 9.97522 10.6763 10.2129C10.4397 10.4504 10.3218 10.7361 10.3218 11.0723C10.3218 11.4086 10.4407 11.694 10.6782 11.9307C10.9159 12.1673 11.2014 12.2852 11.5376 12.2852C11.8737 12.2851 12.1592 12.1672 12.396 11.9297C12.6327 11.692 12.7505 11.4057 12.7505 11.0693C12.7504 10.7333 12.6316 10.4486 12.394 10.2119C12.1564 9.97517 11.871 9.85742 11.5347 9.85742ZM7.64404 10.5879C7.7791 10.5879 7.89501 10.6335 7.98779 10.7256C8.08082 10.8177 8.12744 10.9338 8.12744 11.0684C8.12733 11.2027 8.08023 11.318 7.98779 11.4121C7.89507 11.5067 7.77963 11.5546 7.64404 11.5547H3.56689C3.43164 11.5547 3.31601 11.5083 3.22314 11.416C3.1302 11.3238 3.0835 11.2088 3.0835 11.0742C3.08353 10.9398 3.12969 10.8237 3.22217 10.7295C3.31494 10.635 3.43124 10.5879 3.56689 10.5879H7.64404ZM4.46436 2.74707C5.06721 2.74708 5.58247 2.96002 6.00732 3.38477C6.432 3.80961 6.64502 4.32492 6.64502 4.92773C6.64497 5.53063 6.43203 6.046 6.00732 6.4707C5.58249 6.8955 5.06718 7.10839 4.46436 7.1084C3.86143 7.1084 3.34612 6.89549 2.92139 6.4707C2.49657 6.046 2.28374 5.53063 2.28369 4.92773C2.28369 4.3249 2.49658 3.80961 2.92139 3.38477C3.34614 2.96001 3.86138 2.74707 4.46436 2.74707ZM4.4624 3.71387C4.16831 3.71395 3.91356 3.8045 3.6958 3.98633L3.60498 4.06934C3.3683 4.30697 3.25057 4.59249 3.25049 4.92871C3.25049 5.26485 3.36834 5.5503 3.60596 5.78711C3.84348 6.02378 4.12911 6.14152 4.46533 6.1416C4.80154 6.1416 5.08706 6.02367 5.32373 5.78613C5.56048 5.54853 5.67822 5.26214 5.67822 4.92578C5.67812 4.58977 5.56006 4.30492 5.32275 4.06836C5.08504 3.83161 4.79877 3.71387 4.4624 3.71387ZM12.4331 4.44434C12.5684 4.44434 12.685 4.48978 12.7778 4.58203C12.8708 4.67428 12.9165 4.79023 12.9165 4.9248C12.9164 5.05911 12.8703 5.17534 12.7778 5.26953C12.6851 5.36389 12.5686 5.41113 12.4331 5.41113H8.35693C8.22168 5.41113 8.10508 5.36471 8.01221 5.27246C7.91942 5.18037 7.87354 5.0651 7.87354 4.93066C7.87358 4.79616 7.91967 4.68008 8.01221 4.58594C8.10495 4.49142 8.22134 4.44434 8.35693 4.44434H12.4331Z" fill="#5D6069" stroke="#5D6069" stroke-width="0.1"/>
</g>
</g>
<defs>
<clipPath id="clip0_409_36206">
<rect width="16" height="16" fill="white"/>
</clipPath>
</defs>
</svg>
