<svg width="22" height="22" viewBox="0 0 22 22" fill="none" xmlns="http://www.w3.org/2000/svg">
<rect x="5.5" y="5.5" width="11" height="11" rx="5.49998" fill="white"/>
<path fill-rule="evenodd" clip-rule="evenodd" d="M1.92488 11C1.92488 5.98807 5.98788 1.92505 10.9998 1.92505C16.0118 1.92505 20.0748 5.98807 20.0748 11C20.0748 16.012 16.0118 20.075 10.9998 20.075C5.98788 20.075 1.92488 16.012 1.92488 11ZM10.9999 6.50829C11.4556 6.50829 11.8249 6.87766 11.8249 7.33329V11.4583C11.8249 11.9139 11.4556 12.2833 10.9999 12.2833C10.5443 12.2833 10.1749 11.9139 10.1749 11.4583V7.33329C10.1749 6.87766 10.5443 6.50829 10.9999 6.50829ZM11.9165 14.6666C11.9165 15.1729 11.5061 15.5833 10.9998 15.5833C10.4936 15.5833 10.0832 15.1729 10.0832 14.6666C10.0832 14.1604 10.4936 13.75 10.9998 13.75C11.5061 13.75 11.9165 14.1604 11.9165 14.6666Z" fill="#FA4D56"/>
</svg>
