<svg width="36" height="36" viewBox="0 0 36 36" fill="none" xmlns="http://www.w3.org/2000/svg">
<mask id="mask0_4843_26524" style="mask-type:alpha" maskUnits="userSpaceOnUse" x="0" y="0" width="36" height="36">
<rect width="36" height="36" fill="#D9D9D9"/>
</mask>
<g mask="url(#mask0_4843_26524)">
<path d="M4.5 31.5C3.675 31.5 2.96875 31.2062 2.38125 30.6187C1.79375 30.0312 1.5 29.325 1.5 28.5V10.5C1.5 9.675 1.79375 8.96875 2.38125 8.38125C2.96875 7.79375 3.675 7.5 4.5 7.5H9.225L12 4.5H21V7.5H13.3125L10.575 10.5H4.5V28.5H28.5V15H31.5V28.5C31.5 29.325 31.2063 30.0312 30.6188 30.6187C30.0312 31.2062 29.325 31.5 28.5 31.5H4.5ZM28.5 10.5V7.5H25.5V4.5H28.5V1.5H31.5V4.5H34.5V7.5H31.5V10.5H28.5ZM16.5 26.25C18.375 26.25 19.9688 25.5937 21.2812 24.2812C22.5938 22.9687 23.25 21.375 23.25 19.5C23.25 17.625 22.5938 16.0312 21.2812 14.7187C19.9688 13.4062 18.375 12.75 16.5 12.75C14.625 12.75 13.0312 13.4062 11.7188 14.7187C10.4062 16.0312 9.75 17.625 9.75 19.5C9.75 21.375 10.4062 22.9687 11.7188 24.2812C13.0312 25.5937 14.625 26.25 16.5 26.25ZM16.5 23.25C15.45 23.25 14.5625 22.8875 13.8375 22.1625C13.1125 21.4375 12.75 20.55 12.75 19.5C12.75 18.45 13.1125 17.5625 13.8375 16.8375C14.5625 16.1125 15.45 15.75 16.5 15.75C17.55 15.75 18.4375 16.1125 19.1625 16.8375C19.8875 17.5625 20.25 18.45 20.25 19.5C20.25 20.55 19.8875 21.4375 19.1625 22.1625C18.4375 22.8875 17.55 23.25 16.5 23.25Z" fill="#C2C3C8"/>
</g>
</svg>
