<svg width="19" height="17" viewBox="0 0 19 17" fill="none" xmlns="http://www.w3.org/2000/svg">
<path d="M1.78427 17C1.28567 17 0.863636 16.8236 0.518182 16.4708C0.172727 16.118 0 15.687 0 15.1778V3.70235C0 3.19314 0.172727 2.76214 0.518182 2.40935C0.863636 2.05655 1.28567 1.88015 1.78427 1.88015H10.8288C11.0388 1.88015 11.2163 1.95416 11.361 2.10216C11.5059 2.25017 11.5753 2.43144 11.569 2.64597C11.5626 2.85396 11.4886 3.03027 11.3469 3.17492C11.2051 3.31973 11.0324 3.39214 10.8288 3.39214H1.48052V15.1778C1.48052 15.2684 1.50898 15.3427 1.5659 15.4008C1.62281 15.459 1.69561 15.488 1.78427 15.488H16.969C17.0576 15.488 17.1304 15.459 17.1874 15.4008C17.2443 15.3427 17.2727 15.2684 17.2727 15.1778V8.43209C17.2727 8.21755 17.3436 8.03796 17.4854 7.89332C17.6271 7.7485 17.8029 7.67609 18.013 7.67609C18.2231 7.67609 18.3989 7.7485 18.5405 7.89332C18.6823 8.03796 18.7532 8.21755 18.7532 8.43209V15.1778C18.7532 15.687 18.5805 16.118 18.2351 16.4708C17.8896 16.8236 17.4676 17 16.969 17H1.78427ZM9.37662 8.43209L12.5881 6.34832C12.7679 6.22938 12.9369 6.19805 13.0949 6.25432C13.2532 6.31044 13.3772 6.41149 13.4671 6.55748C13.5569 6.70364 13.5901 6.86004 13.5667 7.0267C13.5432 7.19335 13.4416 7.33615 13.262 7.45509L9.84743 9.69409C9.69559 9.78834 9.53866 9.83706 9.37662 9.84025C9.21459 9.84361 9.05765 9.79808 8.90582 9.70367L1.48052 4.95251V3.39214L9.37662 8.43209ZM14.364 4.73453C13.8356 4.19492 13.5714 3.54073 13.5714 2.77197C13.5714 2.00304 13.8356 1.34877 14.364 0.809163C14.8922 0.269721 15.5328 0 16.2857 0C17.0386 0 17.6792 0.269721 18.2074 0.809163C18.7358 1.34877 19 2.00304 19 2.77197C19 3.54073 18.7358 4.19492 18.2074 4.73453C17.6792 5.27414 17.0386 5.54394 16.2857 5.54394C15.5328 5.54394 14.8922 5.27414 14.364 4.73453Z" fill="#35373B"/>
</svg>
