<svg width="32" height="32" viewBox="0 0 32 32" fill="none" xmlns="http://www.w3.org/2000/svg">
<path d="M15.6246 8.70577C16.513 8.70577 17.2331 7.98562 17.2331 7.09727C17.2331 6.20892 16.513 5.48877 15.6246 5.48877C14.7363 5.48877 14.0161 6.20892 14.0161 7.09727C14.0161 7.98562 14.7363 8.70577 15.6246 8.70577Z" fill="url(#paint0_linear_4385_1772)"/>
<path d="M29.0711 24.6605H2.18085C2.0196 24.6605 1.86623 24.5917 1.76201 24.4717L0.761119 23.3371C0.450431 22.9851 0.70606 22.4385 1.17996 22.4385H30.07C30.5439 22.4385 30.7996 22.9851 30.4889 23.3371L29.488 24.4717C29.3818 24.5917 29.2304 24.6605 29.0692 24.6605H29.0711Z" fill="#DBDCDF"/>
<path d="M15.6248 8.70557C8.03853 8.70557 1.88965 14.8544 1.88965 22.4407H29.358C29.358 14.8544 23.2092 8.70557 15.6229 8.70557H15.6248Z" fill="url(#paint1_linear_4385_1772)"/>
<defs>
<linearGradient id="paint0_linear_4385_1772" x1="15.6246" y1="6.9203" x2="15.6246" y2="8.88274" gradientUnits="userSpaceOnUse">
<stop stop-color="#DBDCDF"/>
<stop offset="0.32" stop-color="#E0E1E4"/>
<stop offset="0.75" stop-color="#F1F2F3"/>
<stop offset="1" stop-color="white"/>
</linearGradient>
<linearGradient id="paint1_linear_4385_1772" x1="15.6248" y1="14.821" x2="15.6248" y2="23.1978" gradientUnits="userSpaceOnUse">
<stop stop-color="#DBDCDF"/>
<stop offset="0.32" stop-color="#E0E1E4"/>
<stop offset="0.75" stop-color="#F1F2F3"/>
<stop offset="1" stop-color="white"/>
</linearGradient>
</defs>
</svg>
