<svg width="32" height="32" viewBox="0 0 32 32" fill="none" xmlns="http://www.w3.org/2000/svg">
<path d="M8.31396 19.095V28.0907C8.31396 28.6622 8.69737 29.0922 9.10944 28.9829L26.807 22.4059C27.1205 22.3235 27.3481 21.9491 27.3481 21.5137V12.57C27.3481 11.9913 26.9557 11.5595 26.54 11.6813L8.84249 18.2046C8.53433 18.2942 8.31396 18.665 8.31396 19.0932V19.095Z" fill="#FFE497"/>
<path d="M8.31396 22.2681L27.3481 15.27V18.4358L8.31396 25.4338V22.2681Z" fill="#FFEEC2"/>
<path d="M18.6085 6.67597C17.4278 6.21731 16.0859 6.57564 15.2922 7.56461C12.861 10.5888 7.9412 16.7699 7.77278 17.4722C7.54883 18.4074 7.66887 19.8712 9.01616 19.7995C10.3635 19.7261 13.4576 21.2919 13.4576 21.2919C13.4576 21.2919 15.9784 22.0928 17.8309 19.2907C19.6816 16.4886 27.3479 13.1885 27.3479 13.1885C27.3479 13.1885 27.6543 10.7035 26.5973 10.0102C25.8609 9.52642 21.2995 7.72406 18.6085 6.67776V6.67597Z" fill="url(#paint0_linear_4385_28289)"/>
<path d="M22.7453 8.39404C22.7453 8.39404 22.4962 11.0797 20.8981 11.5634L19.2588 11.0904L22.7453 8.39404Z" fill="#FFE8CF"/>
<path d="M14.7492 5.97347C14.7492 5.97347 14.2189 4.33773 14.6005 3.63721C14.6005 3.63721 15.7525 4.36639 15.2616 5.72085C15.2616 5.72085 15.7256 3.84862 16.9368 3.63721C16.9368 3.63721 17.1123 5.33566 15.9621 5.80327C15.9621 5.80327 16.6394 5.31416 17.7215 5.48436C17.7215 5.48436 17.3811 6.48229 15.8958 6.07918L14.7492 5.97347Z" fill="#6EAD62"/>
<path d="M22.8333 8.10375C22.8333 8.10375 23.1128 5.77286 20.2104 5.89648C20.2104 5.89648 18.7789 4.36824 17.6358 6.21539C16.491 8.06254 16.8189 10.3934 16.8189 10.3934L16.7759 11.1674C16.7759 11.1674 21.968 11.4612 22.8351 8.10375H22.8333Z" fill="url(#paint1_linear_4385_28289)"/>
<path d="M14.4912 11.4467C14.4912 11.4467 12.0098 7.50876 14.0271 6.16505C15.0358 5.49499 15.9854 5.70998 17.1087 6.01635C17.7609 6.19372 18.4739 6.78316 18.4184 7.78467C18.3754 8.56044 18.2123 9.26275 17.252 10.7623C15.6055 13.3351 14.4894 11.4485 14.4894 11.4485L14.4912 11.4467Z" fill="url(#paint2_linear_4385_28289)"/>
<path d="M16.9244 6.89795H16.9226C16.8464 6.89795 16.7847 6.95971 16.7847 7.0359V7.34585C16.7847 7.42204 16.8464 7.48381 16.9226 7.48381H16.9244C17.0006 7.48381 17.0624 7.42204 17.0624 7.34585V7.0359C17.0624 6.95971 17.0006 6.89795 16.9244 6.89795Z" fill="#FFE497"/>
<path d="M16.6466 8.72705H16.6448C16.5686 8.72705 16.5068 8.78882 16.5068 8.86501V9.17495C16.5068 9.25114 16.5686 9.31291 16.6448 9.31291H16.6466C16.7228 9.31291 16.7845 9.25114 16.7845 9.17495V8.86501C16.7845 8.78882 16.7228 8.72705 16.6466 8.72705Z" fill="#FFE497"/>
<path d="M17.5352 8.20941C17.5352 8.12827 17.4698 8.0625 17.3892 8.0625C17.3085 8.0625 17.2432 8.12827 17.2432 8.20941V8.58028C17.2432 8.66141 17.3085 8.72719 17.3892 8.72719C17.4698 8.72719 17.5352 8.66141 17.5352 8.58028V8.20941Z" fill="#FFE497"/>
<path d="M21.9013 6.9502C21.9013 6.9502 20.0201 7.02007 19.2336 9.18792C18.4471 11.3558 17.9956 11.0817 17.9956 11.0817C17.9956 11.0817 19.7478 10.4868 19.8284 9.24883C19.909 8.01083 22.2722 7.83525 22.2722 7.83525C22.2722 7.83525 22.5499 7.20102 21.9031 6.95199L21.9013 6.9502Z" fill="#FFE8CF"/>
<path d="M21.2314 12.3354C21.2314 12.3354 22.0842 10.5097 19.6852 9.83071C19.6852 9.83071 18.9292 8.20034 17.4995 9.39893C16.0698 10.5975 15.7114 12.5862 15.7114 12.5862L15.4678 13.2061C15.4678 13.2061 19.6225 14.8383 21.2314 12.3336V12.3354Z" fill="url(#paint3_linear_4385_28289)"/>
<path d="M20.1423 6.00211C20.1423 6.00211 19.2429 6.20277 19.0942 7.42644C19.0566 7.73639 18.976 8.04454 18.8327 8.32045C18.7753 8.43153 18.7055 8.54261 18.623 8.64115C18.623 8.64115 19.0011 7.97467 18.6911 7.03228C18.6911 7.03228 18.503 6.28697 19.4167 5.86594C19.4167 5.86594 19.707 5.69216 20.1423 6.00211Z" fill="#FFE8CF"/>
<path d="M19.5633 9.9797C19.5633 9.9797 18.5725 9.73783 18.2554 11.1747C18.2554 11.1747 18.1425 11.6011 17.9956 11.8125C17.9956 11.8125 19.2139 11.0762 19.4486 10.4545L19.5633 9.9797Z" fill="url(#paint4_linear_4385_28289)"/>
<defs>
<linearGradient id="paint0_linear_4385_28289" x1="17.5371" y1="21.3976" x2="17.5371" y2="6.47889" gradientUnits="userSpaceOnUse">
<stop stop-color="#FFF4E9"/>
<stop offset="1" stop-color="#FEF1DB"/>
</linearGradient>
<linearGradient id="paint1_linear_4385_28289" x1="16.7741" y1="8.23812" x2="22.8405" y2="8.23812" gradientUnits="userSpaceOnUse">
<stop stop-color="#FFF4E9"/>
<stop offset="1" stop-color="#FEF1DB"/>
</linearGradient>
<linearGradient id="paint2_linear_4385_28289" x1="15.8295" y1="12.1132" x2="15.8295" y2="5.15637" gradientUnits="userSpaceOnUse">
<stop offset="0.68" stop-color="#FD5139"/>
<stop offset="0.72" stop-color="#FD563E"/>
<stop offset="0.77" stop-color="#FD654F"/>
<stop offset="0.82" stop-color="#FD7F6A"/>
<stop offset="0.88" stop-color="#FDA291"/>
<stop offset="0.95" stop-color="#FECEC1"/>
<stop offset="1" stop-color="#FFF8EE"/>
</linearGradient>
<linearGradient id="paint3_linear_4385_28289" x1="15.4678" y1="11.3446" x2="21.3783" y2="11.3446" gradientUnits="userSpaceOnUse">
<stop stop-color="white"/>
<stop offset="1" stop-color="#FFF4E7"/>
</linearGradient>
<linearGradient id="paint4_linear_4385_28289" x1="17.9956" y1="10.888" x2="19.5633" y2="10.888" gradientUnits="userSpaceOnUse">
<stop stop-color="#FFF4E9"/>
<stop offset="1" stop-color="#FEF1DB"/>
</linearGradient>
</defs>
</svg>
