<svg width="32" height="32" viewBox="0 0 32 32" fill="none" xmlns="http://www.w3.org/2000/svg">
<path d="M14.479 13.6831H2.90617C2.23608 13.6831 1.69287 14.2263 1.69287 14.8964V15.1831C1.69287 15.8532 2.23608 16.3964 2.90617 16.3964H14.479C15.1491 16.3964 15.6923 15.8532 15.6923 15.1831V14.8964C15.6923 14.2263 15.1491 13.6831 14.479 13.6831Z" fill="#EB3F23"/>
<path d="M28.3526 13.6831H16.7797C16.1096 13.6831 15.5664 14.2263 15.5664 14.8964V15.1831C15.5664 15.8532 16.1096 16.3964 16.7797 16.3964H28.3526C29.0227 16.3964 29.5659 15.8532 29.5659 15.1831V14.8964C29.5659 14.2263 29.0227 13.6831 28.3526 13.6831Z" fill="#EB3F23"/>
<path d="M27.0672 16.397H4.10371C3.46718 16.397 2.95117 16.913 2.95117 17.5495V19.0229C2.95117 19.6595 3.46718 20.1755 4.10371 20.1755H27.0672C27.7037 20.1755 28.2197 19.6595 28.2197 19.0229V17.5495C28.2197 16.913 27.7037 16.397 27.0672 16.397Z" fill="url(#paint0_linear_4385_28254)"/>
<path d="M2.77463 12.5747C2.77463 12.5747 0.959426 12.8064 1.0012 13.8981C1.04297 14.9899 3.2702 13.3665 3.2702 13.3665C3.2702 13.3665 3.14299 14.6576 4.67718 14.5931C6.21137 14.5285 6.49998 13.5848 6.49998 13.5848C6.49998 13.5848 7.6829 15.2007 9.15443 14.8646C10.626 14.5285 9.61772 13.7424 9.61772 13.7424C9.61772 13.7424 11.0057 14.8722 12.7696 14.9102C14.5355 14.9481 14.8905 13.7424 14.8905 13.7424C14.8905 13.7424 14.45 15.2861 15.5646 15.2861C16.6792 15.2861 16.4076 13.9304 16.4076 13.9304C16.4076 13.9304 17.8146 15.1171 19.664 14.9083C21.5134 14.6975 22.3469 13.731 22.3469 13.731C22.3469 13.731 22.2995 15.4133 23.2735 15.2861C24.2476 15.1589 25.7191 13.9342 25.7191 13.9342C25.7191 13.9342 28.7457 16.6874 29.0818 15.2937C29.4179 13.9 28.1989 13.731 28.1989 13.731C28.1989 13.731 30.1736 14.2779 30.6369 14.1317C31.1002 13.9855 31.44 12.9336 29.566 12.5747H2.77463Z" fill="#6EAD62"/>
<path d="M22.3388 7.16016C21.0799 7.16016 19.916 7.53041 18.9609 8.1589C18.0059 7.53041 16.8419 7.16016 15.5831 7.16016C14.3242 7.16016 13.1603 7.53041 12.2052 8.1589C11.2501 7.53041 10.0862 7.16016 8.82731 7.16016C5.59184 7.16016 2.96777 9.60005 2.96777 12.6096H28.1964C28.1964 9.60005 25.5743 7.16016 22.3369 7.16016H22.3388Z" fill="#F9CC94"/>
<path d="M12.208 8.15918C12.208 8.15918 13.163 8.84273 13.1288 10.0845C13.0947 11.3263 13.951 11.1459 14.1409 10.8687C14.3877 10.5079 14.4997 9.66869 13.782 8.94146C13.3548 8.50855 13.0168 8.29209 12.2061 8.15918H12.208Z" fill="#FFE7CF"/>
<path d="M18.9648 8.15918C18.9648 8.15918 19.9199 8.84273 19.8857 10.0845C19.8515 11.3263 20.7078 11.1459 20.8977 10.8687C21.1446 10.5079 21.2566 9.66869 20.5389 8.94146C20.1116 8.50855 19.7737 8.29209 18.9629 8.15918H18.9648Z" fill="#FFE7CF"/>
<path d="M9.25959 10.3496C9.09431 10.2542 8.88296 10.3108 8.78753 10.4761C8.69211 10.6414 8.74874 10.8527 8.91402 10.9482L9.40404 11.2311C9.56933 11.3265 9.78067 11.2699 9.8761 11.1046C9.97153 10.9393 9.9149 10.728 9.74961 10.6325L9.25959 10.3496Z" fill="#EFB97D"/>
<path d="M17.7542 10.3487C17.5889 10.2532 17.3776 10.3099 17.2822 10.4751C17.1867 10.6404 17.2434 10.8518 17.4086 10.9472L17.8987 11.2301C18.064 11.3255 18.2753 11.2689 18.3707 11.1036C18.4662 10.9383 18.4095 10.727 18.2442 10.6316L17.7542 10.3487Z" fill="#EFB97D"/>
<path d="M6.50218 9.6029C6.50218 9.41204 6.34746 9.25732 6.15661 9.25732C5.96575 9.25732 5.81104 9.41204 5.81104 9.6029V10.1687C5.81104 10.3596 5.96575 10.5143 6.15661 10.5143C6.34746 10.5143 6.50218 10.3596 6.50218 10.1687V9.6029Z" fill="#EFB97D"/>
<path d="M15.5837 9.33044C15.5837 9.13958 15.429 8.98486 15.2382 8.98486C15.0473 8.98486 14.8926 9.13958 14.8926 9.33044V9.89626C14.8926 10.0871 15.0473 10.2418 15.2382 10.2418C15.429 10.2418 15.5837 10.0871 15.5837 9.89626V9.33044Z" fill="#EFB97D"/>
<path d="M25.2083 10.3487C25.043 10.2532 24.8317 10.3099 24.7363 10.4751C24.6408 10.6404 24.6975 10.8518 24.8628 10.9472L25.3528 11.2301C25.5181 11.3255 25.7294 11.2689 25.8248 11.1036C25.9203 10.9383 25.8636 10.727 25.6983 10.6316L25.2083 10.3487Z" fill="#EFB97D"/>
<path d="M23.0373 9.33044C23.0373 9.13958 22.8826 8.98486 22.6918 8.98486C22.5009 8.98486 22.3462 9.13958 22.3462 9.33044V9.89626C22.3462 10.0871 22.5009 10.2418 22.6918 10.2418C22.8826 10.2418 23.0373 10.0871 23.0373 9.89626V9.33044Z" fill="#EFB97D"/>
<path d="M2.96973 21.4033H28.1984C28.1984 23.2926 26.6642 24.8268 24.775 24.8268H6.39317C4.50392 24.8268 2.96973 23.2926 2.96973 21.4033Z" fill="#F9CC94"/>
<path d="M6.08283 22.6738C5.91755 22.5784 5.7062 22.6351 5.61077 22.8003C5.51535 22.9656 5.57198 23.177 5.73726 23.2724L6.22728 23.5553C6.39257 23.6507 6.60392 23.5941 6.69934 23.4288C6.79477 23.2635 6.73814 23.0522 6.57285 22.9568L6.08283 22.6738Z" fill="#EFB97D"/>
<path d="M16.3372 23.332C16.1719 23.2366 15.9606 23.2933 15.8652 23.4585C15.7697 23.6238 15.8264 23.8352 15.9917 23.9306L16.4817 24.2135C16.647 24.3089 16.8583 24.2523 16.9537 24.087C17.0492 23.9217 16.9925 23.7104 16.8272 23.615L16.3372 23.332Z" fill="#EFB97D"/>
<path d="M10.3723 23.9349C10.3125 24.1161 10.411 24.3115 10.5922 24.3713C10.7735 24.431 10.9689 24.3326 11.0286 24.1513L11.2058 23.6139C11.2656 23.4327 11.1671 23.2373 10.9859 23.1775C10.8046 23.1178 10.6092 23.2162 10.5494 23.3975L10.3723 23.9349Z" fill="#EFB97D"/>
<path d="M14.1667 22.3138C14.1667 22.123 14.012 21.9683 13.8212 21.9683C13.6303 21.9683 13.4756 22.123 13.4756 22.3138V22.8797C13.4756 23.0705 13.6303 23.2252 13.8212 23.2252C14.012 23.2252 14.1667 23.0705 14.1667 22.8797V22.3138Z" fill="#EFB97D"/>
<path d="M23.7923 23.332C23.627 23.2366 23.4157 23.2933 23.3202 23.4585C23.2248 23.6238 23.2815 23.8352 23.4467 23.9306L23.9368 24.2135C24.102 24.3089 24.3134 24.2523 24.4088 24.087C24.5042 23.9217 24.4476 23.7104 24.2823 23.615L23.7923 23.332Z" fill="#EFB97D"/>
<path d="M21.0886 22.9442C21.0886 22.7534 20.9339 22.5986 20.743 22.5986C20.5522 22.5986 20.3975 22.7534 20.3975 22.9442V23.51C20.3975 23.7009 20.5522 23.8556 20.743 23.8556C20.9339 23.8556 21.0886 23.7009 21.0886 23.51V22.9442Z" fill="#EFB97D"/>
<path d="M4.67969 16.397L14.5133 19.2831C15.0867 19.4502 15.6943 19.4559 16.2696 19.2964L26.7033 16.397H4.67969Z" fill="#FDB405"/>
<path d="M2.77463 20.1753C2.77463 20.1753 0.959426 20.4069 1.0012 21.4987C1.04297 22.5905 3.2702 20.9671 3.2702 20.9671C3.2702 20.9671 3.14299 22.2582 4.67718 22.1937C6.21137 22.1291 6.49998 21.1854 6.49998 21.1854C6.49998 21.1854 7.6829 22.8013 9.15443 22.4652C10.626 22.1291 9.61772 21.343 9.61772 21.343C9.61772 21.343 11.0057 22.4728 12.7696 22.5108C14.5355 22.5487 14.8905 21.343 14.8905 21.343C14.8905 21.343 14.45 22.8867 15.5646 22.8867C16.6792 22.8867 16.4076 21.531 16.4076 21.531C16.4076 21.531 17.8146 22.7177 19.664 22.5089C21.5134 22.2981 22.3469 21.3316 22.3469 21.3316C22.3469 21.3316 22.2995 23.0139 23.2735 22.8867C24.2476 22.7595 25.7191 21.5348 25.7191 21.5348C25.7191 21.5348 28.7457 24.288 29.0818 22.8943C29.4179 21.5006 28.1989 21.3316 28.1989 21.3316C28.1989 21.3316 30.1736 21.8785 30.6369 21.7323C31.1002 21.5861 31.44 20.5342 29.566 20.1753H2.77463Z" fill="#6EAD62"/>
<defs>
<linearGradient id="paint0_linear_4385_28254" x1="15.5854" y1="20.1755" x2="15.5854" y2="16.397" gradientUnits="userSpaceOnUse">
<stop stop-color="#9B633D"/>
<stop offset="1" stop-color="#7B4E2D"/>
</linearGradient>
</defs>
</svg>
