<svg width="32" height="32" viewBox="0 0 32 32" fill="none" xmlns="http://www.w3.org/2000/svg">
<path d="M15.6553 18.8966C15.6553 18.5936 18.3766 3.09863 18.3766 3.09863H21.7779" stroke="#F45C33" stroke-width="1.1085" stroke-linecap="round" stroke-linejoin="round"/>
<path d="M20.3366 29.0988H11.7476C11.2838 29.0988 10.9014 28.5852 10.8792 27.9312L9.14444 14.4962C9.12227 13.7997 9.51764 13.2178 10.0128 13.2178H22.0732C22.5683 13.2178 22.9637 13.7997 22.9415 14.4962L21.2067 27.9312C21.1864 28.5852 20.804 29.0988 20.3384 29.0988H20.3366Z" fill="url(#paint0_linear_4385_28282)"/>
<path opacity="0.8" d="M16.0405 5.67578C12.146 5.67578 8.98682 8.6133 8.98682 12.2362H23.0924C23.0924 8.6133 19.9351 5.67578 16.0387 5.67578H16.0405Z" fill="url(#paint1_linear_4385_28282)"/>
<path opacity="0.8" d="M23.6438 12.2368H8.60894C8.37834 12.2368 8.19141 12.4238 8.19141 12.6544V14.2912C8.19141 14.5218 8.37834 14.7088 8.60894 14.7088H23.6438C23.8744 14.7088 24.0614 14.5218 24.0614 14.2912V12.6544C24.0614 12.4238 23.8744 12.2368 23.6438 12.2368Z" fill="url(#paint2_linear_4385_28282)"/>
<defs>
<linearGradient id="paint0_linear_4385_28282" x1="16.0411" y1="29.0988" x2="16.0411" y2="13.2178" gradientUnits="userSpaceOnUse">
<stop stop-color="#F45C33"/>
<stop offset="0.38" stop-color="#F35930"/>
<stop offset="0.65" stop-color="#F05126"/>
<stop offset="0.89" stop-color="#EB4316"/>
<stop offset="1" stop-color="#E83B0D"/>
</linearGradient>
<linearGradient id="paint1_linear_4385_28282" x1="16.0405" y1="5.67578" x2="16.0405" y2="12.2362" gradientUnits="userSpaceOnUse">
<stop stop-color="#FCD1C5"/>
<stop offset="1" stop-color="#FDF0EC"/>
</linearGradient>
<linearGradient id="paint2_linear_4385_28282" x1="8.19141" y1="13.4728" x2="24.0595" y2="13.4728" gradientUnits="userSpaceOnUse">
<stop stop-color="#FCD1C5"/>
<stop offset="1" stop-color="#FDF0EC"/>
</linearGradient>
</defs>
</svg>
